G04 #@! TF.GenerationSoftware,KiCad,Pcbnew,8.0.4*
G04 #@! TF.CreationDate,2024-07-21T17:31:12-07:00*
G04 #@! TF.ProjectId,RPi_RTC_Interface,5250695f-5254-4435-9f49-6e7465726661,V1.0*
G04 #@! TF.SameCoordinates,Original*
G04 #@! TF.FileFunction,Soldermask,Top*
G04 #@! TF.FilePolarity,Negative*
%FSLAX46Y46*%
G04 Gerber Fmt 4.6, Leading zero omitted, Abs format (unit mm)*
G04 Created by KiCad (PCBNEW 8.0.4) date 2024-07-21 17:31:12*
%MOMM*%
%LPD*%
G01*
G04 APERTURE LIST*
G04 Aperture macros list*
%AMRoundRect*
0 Rectangle with rounded corners*
0 $1 Rounding radius*
0 $2 $3 $4 $5 $6 $7 $8 $9 X,Y pos of 4 corners*
0 Add a 4 corners polygon primitive as box body*
4,1,4,$2,$3,$4,$5,$6,$7,$8,$9,$2,$3,0*
0 Add four circle primitives for the rounded corners*
1,1,$1+$1,$2,$3*
1,1,$1+$1,$4,$5*
1,1,$1+$1,$6,$7*
1,1,$1+$1,$8,$9*
0 Add four rect primitives between the rounded corners*
20,1,$1+$1,$2,$3,$4,$5,0*
20,1,$1+$1,$4,$5,$6,$7,0*
20,1,$1+$1,$6,$7,$8,$9,0*
20,1,$1+$1,$8,$9,$2,$3,0*%
G04 Aperture macros list end*
%ADD10R,2.600000X2.600000*%
%ADD11C,2.600000*%
%ADD12C,1.600000*%
%ADD13O,1.600000X1.600000*%
%ADD14C,2.700000*%
%ADD15R,1.700000X1.700000*%
%ADD16O,1.700000X1.700000*%
%ADD17C,1.354000*%
%ADD18RoundRect,0.375000X0.375000X-0.625000X0.375000X0.625000X-0.375000X0.625000X-0.375000X-0.625000X0*%
%ADD19RoundRect,0.500000X1.400000X-0.500000X1.400000X0.500000X-1.400000X0.500000X-1.400000X-0.500000X0*%
%ADD20R,3.000000X3.000000*%
%ADD21C,3.000000*%
%ADD22R,1.800000X1.800000*%
%ADD23C,1.800000*%
%ADD24RoundRect,0.150000X-0.825000X-0.150000X0.825000X-0.150000X0.825000X0.150000X-0.825000X0.150000X0*%
%ADD25R,1.050000X1.500000*%
%ADD26O,1.050000X1.500000*%
G04 APERTURE END LIST*
D10*
X160523000Y-130718000D03*
D11*
X165603000Y-130718000D03*
X170683000Y-130718000D03*
D12*
X153686000Y-93380000D03*
D13*
X163846000Y-93380000D03*
D14*
X178610000Y-86600000D03*
D15*
X139447000Y-93888000D03*
D16*
X136907000Y-93888000D03*
X134367000Y-93888000D03*
D12*
X162616000Y-96428000D03*
X165116000Y-96428000D03*
D17*
X148110000Y-101508000D03*
X150610000Y-101508000D03*
D12*
X123440000Y-91856000D03*
X120940000Y-91856000D03*
D15*
X125476000Y-87884000D03*
D16*
X125476000Y-85344000D03*
X128016000Y-87884000D03*
X128016000Y-85344000D03*
X130556000Y-87884000D03*
X130556000Y-85344000D03*
X133096000Y-87884000D03*
X133096000Y-85344000D03*
X135636000Y-87884000D03*
X135636000Y-85344000D03*
X138176000Y-87884000D03*
X138176000Y-85344000D03*
X140716000Y-87884000D03*
X140716000Y-85344000D03*
X143256000Y-87884000D03*
X143256000Y-85344000D03*
X145796000Y-87884000D03*
X145796000Y-85344000D03*
X148336000Y-87884000D03*
X148336000Y-85344000D03*
X150876000Y-87884000D03*
X150876000Y-85344000D03*
X153416000Y-87884000D03*
X153416000Y-85344000D03*
X155956000Y-87884000D03*
X155956000Y-85344000D03*
X158496000Y-87884000D03*
X158496000Y-85344000D03*
X161036000Y-87884000D03*
X161036000Y-85344000D03*
X163576000Y-87884000D03*
X163576000Y-85344000D03*
X166116000Y-87884000D03*
X166116000Y-85344000D03*
X168656000Y-87884000D03*
X168656000Y-85344000D03*
X171196000Y-87884000D03*
X171196000Y-85344000D03*
X173736000Y-87884000D03*
X173736000Y-85344000D03*
D10*
X132858000Y-130861000D03*
D11*
X137938000Y-130861000D03*
X143018000Y-130861000D03*
X148098000Y-130861000D03*
D14*
X120610000Y-135600000D03*
D18*
X144810000Y-98250000D03*
X147110000Y-98250000D03*
D19*
X147110000Y-91950000D03*
D18*
X149410000Y-98250000D03*
D14*
X178610000Y-135600000D03*
X120610000Y-86600000D03*
D20*
X146236000Y-112176000D03*
D21*
X125746000Y-112176000D03*
D17*
X146110000Y-101508000D03*
X143610000Y-101508000D03*
D12*
X128286000Y-130972000D03*
X128286000Y-128472000D03*
D22*
X153162000Y-130464000D03*
D23*
X155702000Y-130464000D03*
D24*
X119715000Y-94267000D03*
X119715000Y-95537000D03*
X119715000Y-96807000D03*
X119715000Y-98077000D03*
X124665000Y-98077000D03*
X124665000Y-96807000D03*
X124665000Y-95537000D03*
X124665000Y-94267000D03*
D12*
X155718000Y-122844000D03*
D13*
X145558000Y-122844000D03*
D25*
X165116000Y-99878000D03*
D26*
X163846000Y-99878000D03*
X162576000Y-99878000D03*
M02*
