G04 #@! TF.GenerationSoftware,KiCad,Pcbnew,8.0.4*
G04 #@! TF.CreationDate,2024-07-21T17:31:12-07:00*
G04 #@! TF.ProjectId,RPi_RTC_Interface,5250695f-5254-4435-9f49-6e7465726661,V1.0*
G04 #@! TF.SameCoordinates,Original*
G04 #@! TF.FileFunction,Legend,Top*
G04 #@! TF.FilePolarity,Positive*
%FSLAX46Y46*%
G04 Gerber Fmt 4.6, Leading zero omitted, Abs format (unit mm)*
G04 Created by KiCad (PCBNEW 8.0.4) date 2024-07-21 17:31:12*
%MOMM*%
%LPD*%
G01*
G04 APERTURE LIST*
G04 Aperture macros list*
%AMRoundRect*
0 Rectangle with rounded corners*
0 $1 Rounding radius*
0 $2 $3 $4 $5 $6 $7 $8 $9 X,Y pos of 4 corners*
0 Add a 4 corners polygon primitive as box body*
4,1,4,$2,$3,$4,$5,$6,$7,$8,$9,$2,$3,0*
0 Add four circle primitives for the rounded corners*
1,1,$1+$1,$2,$3*
1,1,$1+$1,$4,$5*
1,1,$1+$1,$6,$7*
1,1,$1+$1,$8,$9*
0 Add four rect primitives between the rounded corners*
20,1,$1+$1,$2,$3,$4,$5,0*
20,1,$1+$1,$4,$5,$6,$7,0*
20,1,$1+$1,$6,$7,$8,$9,0*
20,1,$1+$1,$8,$9,$2,$3,0*%
G04 Aperture macros list end*
%ADD10C,0.100000*%
%ADD11C,0.300000*%
%ADD12C,0.250000*%
%ADD13C,0.150000*%
%ADD14C,0.120000*%
%ADD15C,0.127000*%
%ADD16R,2.600000X2.600000*%
%ADD17C,2.600000*%
%ADD18C,1.600000*%
%ADD19O,1.600000X1.600000*%
%ADD20C,2.700000*%
%ADD21R,1.700000X1.700000*%
%ADD22O,1.700000X1.700000*%
%ADD23C,1.354000*%
%ADD24RoundRect,0.375000X0.375000X-0.625000X0.375000X0.625000X-0.375000X0.625000X-0.375000X-0.625000X0*%
%ADD25RoundRect,0.500000X1.400000X-0.500000X1.400000X0.500000X-1.400000X0.500000X-1.400000X-0.500000X0*%
%ADD26R,3.000000X3.000000*%
%ADD27C,3.000000*%
%ADD28R,1.800000X1.800000*%
%ADD29C,1.800000*%
%ADD30RoundRect,0.150000X-0.825000X-0.150000X0.825000X-0.150000X0.825000X0.150000X-0.825000X0.150000X0*%
%ADD31R,1.050000X1.500000*%
%ADD32O,1.050000X1.500000*%
G04 APERTURE END LIST*
D10*
X151654000Y-128178000D02*
X157242000Y-128178000D01*
X157242000Y-138592000D01*
X151654000Y-138592000D01*
X151654000Y-128178000D01*
D11*
X143431143Y-117537471D02*
X143359715Y-117608900D01*
X143359715Y-117608900D02*
X143145429Y-117680328D01*
X143145429Y-117680328D02*
X143002572Y-117680328D01*
X143002572Y-117680328D02*
X142788286Y-117608900D01*
X142788286Y-117608900D02*
X142645429Y-117466042D01*
X142645429Y-117466042D02*
X142574000Y-117323185D01*
X142574000Y-117323185D02*
X142502572Y-117037471D01*
X142502572Y-117037471D02*
X142502572Y-116823185D01*
X142502572Y-116823185D02*
X142574000Y-116537471D01*
X142574000Y-116537471D02*
X142645429Y-116394614D01*
X142645429Y-116394614D02*
X142788286Y-116251757D01*
X142788286Y-116251757D02*
X143002572Y-116180328D01*
X143002572Y-116180328D02*
X143145429Y-116180328D01*
X143145429Y-116180328D02*
X143359715Y-116251757D01*
X143359715Y-116251757D02*
X143431143Y-116323185D01*
X144931143Y-117680328D02*
X144431143Y-116966042D01*
X144074000Y-117680328D02*
X144074000Y-116180328D01*
X144074000Y-116180328D02*
X144645429Y-116180328D01*
X144645429Y-116180328D02*
X144788286Y-116251757D01*
X144788286Y-116251757D02*
X144859715Y-116323185D01*
X144859715Y-116323185D02*
X144931143Y-116466042D01*
X144931143Y-116466042D02*
X144931143Y-116680328D01*
X144931143Y-116680328D02*
X144859715Y-116823185D01*
X144859715Y-116823185D02*
X144788286Y-116894614D01*
X144788286Y-116894614D02*
X144645429Y-116966042D01*
X144645429Y-116966042D02*
X144074000Y-116966042D01*
X145502572Y-116323185D02*
X145574000Y-116251757D01*
X145574000Y-116251757D02*
X145716858Y-116180328D01*
X145716858Y-116180328D02*
X146074000Y-116180328D01*
X146074000Y-116180328D02*
X146216858Y-116251757D01*
X146216858Y-116251757D02*
X146288286Y-116323185D01*
X146288286Y-116323185D02*
X146359715Y-116466042D01*
X146359715Y-116466042D02*
X146359715Y-116608900D01*
X146359715Y-116608900D02*
X146288286Y-116823185D01*
X146288286Y-116823185D02*
X145431143Y-117680328D01*
X145431143Y-117680328D02*
X146359715Y-117680328D01*
X147288286Y-116180328D02*
X147431143Y-116180328D01*
X147431143Y-116180328D02*
X147574000Y-116251757D01*
X147574000Y-116251757D02*
X147645429Y-116323185D01*
X147645429Y-116323185D02*
X147716857Y-116466042D01*
X147716857Y-116466042D02*
X147788286Y-116751757D01*
X147788286Y-116751757D02*
X147788286Y-117108900D01*
X147788286Y-117108900D02*
X147716857Y-117394614D01*
X147716857Y-117394614D02*
X147645429Y-117537471D01*
X147645429Y-117537471D02*
X147574000Y-117608900D01*
X147574000Y-117608900D02*
X147431143Y-117680328D01*
X147431143Y-117680328D02*
X147288286Y-117680328D01*
X147288286Y-117680328D02*
X147145429Y-117608900D01*
X147145429Y-117608900D02*
X147074000Y-117537471D01*
X147074000Y-117537471D02*
X147002571Y-117394614D01*
X147002571Y-117394614D02*
X146931143Y-117108900D01*
X146931143Y-117108900D02*
X146931143Y-116751757D01*
X146931143Y-116751757D02*
X147002571Y-116466042D01*
X147002571Y-116466042D02*
X147074000Y-116323185D01*
X147074000Y-116323185D02*
X147145429Y-116251757D01*
X147145429Y-116251757D02*
X147288286Y-116180328D01*
X148288285Y-116180328D02*
X149216857Y-116180328D01*
X149216857Y-116180328D02*
X148716857Y-116751757D01*
X148716857Y-116751757D02*
X148931142Y-116751757D01*
X148931142Y-116751757D02*
X149074000Y-116823185D01*
X149074000Y-116823185D02*
X149145428Y-116894614D01*
X149145428Y-116894614D02*
X149216857Y-117037471D01*
X149216857Y-117037471D02*
X149216857Y-117394614D01*
X149216857Y-117394614D02*
X149145428Y-117537471D01*
X149145428Y-117537471D02*
X149074000Y-117608900D01*
X149074000Y-117608900D02*
X148931142Y-117680328D01*
X148931142Y-117680328D02*
X148502571Y-117680328D01*
X148502571Y-117680328D02*
X148359714Y-117608900D01*
X148359714Y-117608900D02*
X148288285Y-117537471D01*
X149788285Y-116323185D02*
X149859713Y-116251757D01*
X149859713Y-116251757D02*
X150002571Y-116180328D01*
X150002571Y-116180328D02*
X150359713Y-116180328D01*
X150359713Y-116180328D02*
X150502571Y-116251757D01*
X150502571Y-116251757D02*
X150573999Y-116323185D01*
X150573999Y-116323185D02*
X150645428Y-116466042D01*
X150645428Y-116466042D02*
X150645428Y-116608900D01*
X150645428Y-116608900D02*
X150573999Y-116823185D01*
X150573999Y-116823185D02*
X149716856Y-117680328D01*
X149716856Y-117680328D02*
X150645428Y-117680328D01*
X147452143Y-136917757D02*
X147309286Y-136846328D01*
X147309286Y-136846328D02*
X147095000Y-136846328D01*
X147095000Y-136846328D02*
X146880714Y-136917757D01*
X146880714Y-136917757D02*
X146737857Y-137060614D01*
X146737857Y-137060614D02*
X146666428Y-137203471D01*
X146666428Y-137203471D02*
X146595000Y-137489185D01*
X146595000Y-137489185D02*
X146595000Y-137703471D01*
X146595000Y-137703471D02*
X146666428Y-137989185D01*
X146666428Y-137989185D02*
X146737857Y-138132042D01*
X146737857Y-138132042D02*
X146880714Y-138274900D01*
X146880714Y-138274900D02*
X147095000Y-138346328D01*
X147095000Y-138346328D02*
X147237857Y-138346328D01*
X147237857Y-138346328D02*
X147452143Y-138274900D01*
X147452143Y-138274900D02*
X147523571Y-138203471D01*
X147523571Y-138203471D02*
X147523571Y-137703471D01*
X147523571Y-137703471D02*
X147237857Y-137703471D01*
X148166428Y-138346328D02*
X148166428Y-136846328D01*
X148166428Y-136846328D02*
X149023571Y-138346328D01*
X149023571Y-138346328D02*
X149023571Y-136846328D01*
X149737857Y-138346328D02*
X149737857Y-136846328D01*
X149737857Y-136846328D02*
X150095000Y-136846328D01*
X150095000Y-136846328D02*
X150309286Y-136917757D01*
X150309286Y-136917757D02*
X150452143Y-137060614D01*
X150452143Y-137060614D02*
X150523572Y-137203471D01*
X150523572Y-137203471D02*
X150595000Y-137489185D01*
X150595000Y-137489185D02*
X150595000Y-137703471D01*
X150595000Y-137703471D02*
X150523572Y-137989185D01*
X150523572Y-137989185D02*
X150452143Y-138132042D01*
X150452143Y-138132042D02*
X150309286Y-138274900D01*
X150309286Y-138274900D02*
X150095000Y-138346328D01*
X150095000Y-138346328D02*
X149737857Y-138346328D01*
X176740328Y-131139774D02*
X178240328Y-130639774D01*
X178240328Y-130639774D02*
X176740328Y-130139774D01*
X178240328Y-128854060D02*
X178240328Y-129711203D01*
X178240328Y-129282632D02*
X176740328Y-129282632D01*
X176740328Y-129282632D02*
X176954614Y-129425489D01*
X176954614Y-129425489D02*
X177097471Y-129568346D01*
X177097471Y-129568346D02*
X177168900Y-129711203D01*
X178097471Y-128211204D02*
X178168900Y-128139775D01*
X178168900Y-128139775D02*
X178240328Y-128211204D01*
X178240328Y-128211204D02*
X178168900Y-128282632D01*
X178168900Y-128282632D02*
X178097471Y-128211204D01*
X178097471Y-128211204D02*
X178240328Y-128211204D01*
X176740328Y-127211203D02*
X176740328Y-127068346D01*
X176740328Y-127068346D02*
X176811757Y-126925489D01*
X176811757Y-126925489D02*
X176883185Y-126854061D01*
X176883185Y-126854061D02*
X177026042Y-126782632D01*
X177026042Y-126782632D02*
X177311757Y-126711203D01*
X177311757Y-126711203D02*
X177668900Y-126711203D01*
X177668900Y-126711203D02*
X177954614Y-126782632D01*
X177954614Y-126782632D02*
X178097471Y-126854061D01*
X178097471Y-126854061D02*
X178168900Y-126925489D01*
X178168900Y-126925489D02*
X178240328Y-127068346D01*
X178240328Y-127068346D02*
X178240328Y-127211203D01*
X178240328Y-127211203D02*
X178168900Y-127354061D01*
X178168900Y-127354061D02*
X178097471Y-127425489D01*
X178097471Y-127425489D02*
X177954614Y-127496918D01*
X177954614Y-127496918D02*
X177668900Y-127568346D01*
X177668900Y-127568346D02*
X177311757Y-127568346D01*
X177311757Y-127568346D02*
X177026042Y-127496918D01*
X177026042Y-127496918D02*
X176883185Y-127425489D01*
X176883185Y-127425489D02*
X176811757Y-127354061D01*
X176811757Y-127354061D02*
X176740328Y-127211203D01*
X180902828Y-130160346D02*
X180188542Y-130660346D01*
X180902828Y-131017489D02*
X179402828Y-131017489D01*
X179402828Y-131017489D02*
X179402828Y-130446060D01*
X179402828Y-130446060D02*
X179474257Y-130303203D01*
X179474257Y-130303203D02*
X179545685Y-130231774D01*
X179545685Y-130231774D02*
X179688542Y-130160346D01*
X179688542Y-130160346D02*
X179902828Y-130160346D01*
X179902828Y-130160346D02*
X180045685Y-130231774D01*
X180045685Y-130231774D02*
X180117114Y-130303203D01*
X180117114Y-130303203D02*
X180188542Y-130446060D01*
X180188542Y-130446060D02*
X180188542Y-131017489D01*
X180902828Y-128874632D02*
X180117114Y-128874632D01*
X180117114Y-128874632D02*
X179974257Y-128946060D01*
X179974257Y-128946060D02*
X179902828Y-129088917D01*
X179902828Y-129088917D02*
X179902828Y-129374632D01*
X179902828Y-129374632D02*
X179974257Y-129517489D01*
X180831400Y-128874632D02*
X180902828Y-129017489D01*
X180902828Y-129017489D02*
X180902828Y-129374632D01*
X180902828Y-129374632D02*
X180831400Y-129517489D01*
X180831400Y-129517489D02*
X180688542Y-129588917D01*
X180688542Y-129588917D02*
X180545685Y-129588917D01*
X180545685Y-129588917D02*
X180402828Y-129517489D01*
X180402828Y-129517489D02*
X180331400Y-129374632D01*
X180331400Y-129374632D02*
X180331400Y-129017489D01*
X180331400Y-129017489D02*
X180259971Y-128874632D01*
X180831400Y-128231774D02*
X180902828Y-128088917D01*
X180902828Y-128088917D02*
X180902828Y-127803203D01*
X180902828Y-127803203D02*
X180831400Y-127660346D01*
X180831400Y-127660346D02*
X180688542Y-127588917D01*
X180688542Y-127588917D02*
X180617114Y-127588917D01*
X180617114Y-127588917D02*
X180474257Y-127660346D01*
X180474257Y-127660346D02*
X180402828Y-127803203D01*
X180402828Y-127803203D02*
X180402828Y-128017489D01*
X180402828Y-128017489D02*
X180331400Y-128160346D01*
X180331400Y-128160346D02*
X180188542Y-128231774D01*
X180188542Y-128231774D02*
X180117114Y-128231774D01*
X180117114Y-128231774D02*
X179974257Y-128160346D01*
X179974257Y-128160346D02*
X179902828Y-128017489D01*
X179902828Y-128017489D02*
X179902828Y-127803203D01*
X179902828Y-127803203D02*
X179974257Y-127660346D01*
X179902828Y-126946060D02*
X181402828Y-126946060D01*
X179974257Y-126946060D02*
X179902828Y-126803203D01*
X179902828Y-126803203D02*
X179902828Y-126517488D01*
X179902828Y-126517488D02*
X179974257Y-126374631D01*
X179974257Y-126374631D02*
X180045685Y-126303203D01*
X180045685Y-126303203D02*
X180188542Y-126231774D01*
X180188542Y-126231774D02*
X180617114Y-126231774D01*
X180617114Y-126231774D02*
X180759971Y-126303203D01*
X180759971Y-126303203D02*
X180831400Y-126374631D01*
X180831400Y-126374631D02*
X180902828Y-126517488D01*
X180902828Y-126517488D02*
X180902828Y-126803203D01*
X180902828Y-126803203D02*
X180831400Y-126946060D01*
X180902828Y-125588917D02*
X179402828Y-125588917D01*
X179974257Y-125588917D02*
X179902828Y-125446060D01*
X179902828Y-125446060D02*
X179902828Y-125160345D01*
X179902828Y-125160345D02*
X179974257Y-125017488D01*
X179974257Y-125017488D02*
X180045685Y-124946060D01*
X180045685Y-124946060D02*
X180188542Y-124874631D01*
X180188542Y-124874631D02*
X180617114Y-124874631D01*
X180617114Y-124874631D02*
X180759971Y-124946060D01*
X180759971Y-124946060D02*
X180831400Y-125017488D01*
X180831400Y-125017488D02*
X180902828Y-125160345D01*
X180902828Y-125160345D02*
X180902828Y-125446060D01*
X180902828Y-125446060D02*
X180831400Y-125588917D01*
X180831400Y-123660345D02*
X180902828Y-123803202D01*
X180902828Y-123803202D02*
X180902828Y-124088917D01*
X180902828Y-124088917D02*
X180831400Y-124231774D01*
X180831400Y-124231774D02*
X180688542Y-124303202D01*
X180688542Y-124303202D02*
X180117114Y-124303202D01*
X180117114Y-124303202D02*
X179974257Y-124231774D01*
X179974257Y-124231774D02*
X179902828Y-124088917D01*
X179902828Y-124088917D02*
X179902828Y-123803202D01*
X179902828Y-123803202D02*
X179974257Y-123660345D01*
X179974257Y-123660345D02*
X180117114Y-123588917D01*
X180117114Y-123588917D02*
X180259971Y-123588917D01*
X180259971Y-123588917D02*
X180402828Y-124303202D01*
X180902828Y-122946060D02*
X179902828Y-122946060D01*
X180188542Y-122946060D02*
X180045685Y-122874631D01*
X180045685Y-122874631D02*
X179974257Y-122803203D01*
X179974257Y-122803203D02*
X179902828Y-122660345D01*
X179902828Y-122660345D02*
X179902828Y-122517488D01*
X180902828Y-122017489D02*
X179902828Y-122017489D01*
X180188542Y-122017489D02*
X180045685Y-121946060D01*
X180045685Y-121946060D02*
X179974257Y-121874632D01*
X179974257Y-121874632D02*
X179902828Y-121731774D01*
X179902828Y-121731774D02*
X179902828Y-121588917D01*
X179902828Y-121231775D02*
X180902828Y-120874632D01*
X179902828Y-120517489D02*
X180902828Y-120874632D01*
X180902828Y-120874632D02*
X181259971Y-121017489D01*
X181259971Y-121017489D02*
X181331400Y-121088918D01*
X181331400Y-121088918D02*
X181402828Y-121231775D01*
X180902828Y-118803204D02*
X179402828Y-118803204D01*
X179402828Y-118803204D02*
X179402828Y-118231775D01*
X179402828Y-118231775D02*
X179474257Y-118088918D01*
X179474257Y-118088918D02*
X179545685Y-118017489D01*
X179545685Y-118017489D02*
X179688542Y-117946061D01*
X179688542Y-117946061D02*
X179902828Y-117946061D01*
X179902828Y-117946061D02*
X180045685Y-118017489D01*
X180045685Y-118017489D02*
X180117114Y-118088918D01*
X180117114Y-118088918D02*
X180188542Y-118231775D01*
X180188542Y-118231775D02*
X180188542Y-118803204D01*
X180902828Y-117303204D02*
X179902828Y-117303204D01*
X179402828Y-117303204D02*
X179474257Y-117374632D01*
X179474257Y-117374632D02*
X179545685Y-117303204D01*
X179545685Y-117303204D02*
X179474257Y-117231775D01*
X179474257Y-117231775D02*
X179402828Y-117303204D01*
X179402828Y-117303204D02*
X179545685Y-117303204D01*
X180902828Y-114588918D02*
X180188542Y-115088918D01*
X180902828Y-115446061D02*
X179402828Y-115446061D01*
X179402828Y-115446061D02*
X179402828Y-114874632D01*
X179402828Y-114874632D02*
X179474257Y-114731775D01*
X179474257Y-114731775D02*
X179545685Y-114660346D01*
X179545685Y-114660346D02*
X179688542Y-114588918D01*
X179688542Y-114588918D02*
X179902828Y-114588918D01*
X179902828Y-114588918D02*
X180045685Y-114660346D01*
X180045685Y-114660346D02*
X180117114Y-114731775D01*
X180117114Y-114731775D02*
X180188542Y-114874632D01*
X180188542Y-114874632D02*
X180188542Y-115446061D01*
X179402828Y-114160346D02*
X179402828Y-113303204D01*
X180902828Y-113731775D02*
X179402828Y-113731775D01*
X180759971Y-111946061D02*
X180831400Y-112017489D01*
X180831400Y-112017489D02*
X180902828Y-112231775D01*
X180902828Y-112231775D02*
X180902828Y-112374632D01*
X180902828Y-112374632D02*
X180831400Y-112588918D01*
X180831400Y-112588918D02*
X180688542Y-112731775D01*
X180688542Y-112731775D02*
X180545685Y-112803204D01*
X180545685Y-112803204D02*
X180259971Y-112874632D01*
X180259971Y-112874632D02*
X180045685Y-112874632D01*
X180045685Y-112874632D02*
X179759971Y-112803204D01*
X179759971Y-112803204D02*
X179617114Y-112731775D01*
X179617114Y-112731775D02*
X179474257Y-112588918D01*
X179474257Y-112588918D02*
X179402828Y-112374632D01*
X179402828Y-112374632D02*
X179402828Y-112231775D01*
X179402828Y-112231775D02*
X179474257Y-112017489D01*
X179474257Y-112017489D02*
X179545685Y-111946061D01*
X179331400Y-109088918D02*
X181259971Y-110374632D01*
X180902828Y-107446061D02*
X179402828Y-107446061D01*
X179902828Y-106731775D02*
X180902828Y-106731775D01*
X180045685Y-106731775D02*
X179974257Y-106660346D01*
X179974257Y-106660346D02*
X179902828Y-106517489D01*
X179902828Y-106517489D02*
X179902828Y-106303203D01*
X179902828Y-106303203D02*
X179974257Y-106160346D01*
X179974257Y-106160346D02*
X180117114Y-106088918D01*
X180117114Y-106088918D02*
X180902828Y-106088918D01*
X179902828Y-105588917D02*
X179902828Y-105017489D01*
X179402828Y-105374632D02*
X180688542Y-105374632D01*
X180688542Y-105374632D02*
X180831400Y-105303203D01*
X180831400Y-105303203D02*
X180902828Y-105160346D01*
X180902828Y-105160346D02*
X180902828Y-105017489D01*
X180831400Y-103946060D02*
X180902828Y-104088917D01*
X180902828Y-104088917D02*
X180902828Y-104374632D01*
X180902828Y-104374632D02*
X180831400Y-104517489D01*
X180831400Y-104517489D02*
X180688542Y-104588917D01*
X180688542Y-104588917D02*
X180117114Y-104588917D01*
X180117114Y-104588917D02*
X179974257Y-104517489D01*
X179974257Y-104517489D02*
X179902828Y-104374632D01*
X179902828Y-104374632D02*
X179902828Y-104088917D01*
X179902828Y-104088917D02*
X179974257Y-103946060D01*
X179974257Y-103946060D02*
X180117114Y-103874632D01*
X180117114Y-103874632D02*
X180259971Y-103874632D01*
X180259971Y-103874632D02*
X180402828Y-104588917D01*
X180902828Y-103231775D02*
X179902828Y-103231775D01*
X180188542Y-103231775D02*
X180045685Y-103160346D01*
X180045685Y-103160346D02*
X179974257Y-103088918D01*
X179974257Y-103088918D02*
X179902828Y-102946060D01*
X179902828Y-102946060D02*
X179902828Y-102803203D01*
X179902828Y-102517489D02*
X179902828Y-101946061D01*
X180902828Y-102303204D02*
X179617114Y-102303204D01*
X179617114Y-102303204D02*
X179474257Y-102231775D01*
X179474257Y-102231775D02*
X179402828Y-102088918D01*
X179402828Y-102088918D02*
X179402828Y-101946061D01*
X180902828Y-100803204D02*
X180117114Y-100803204D01*
X180117114Y-100803204D02*
X179974257Y-100874632D01*
X179974257Y-100874632D02*
X179902828Y-101017489D01*
X179902828Y-101017489D02*
X179902828Y-101303204D01*
X179902828Y-101303204D02*
X179974257Y-101446061D01*
X180831400Y-100803204D02*
X180902828Y-100946061D01*
X180902828Y-100946061D02*
X180902828Y-101303204D01*
X180902828Y-101303204D02*
X180831400Y-101446061D01*
X180831400Y-101446061D02*
X180688542Y-101517489D01*
X180688542Y-101517489D02*
X180545685Y-101517489D01*
X180545685Y-101517489D02*
X180402828Y-101446061D01*
X180402828Y-101446061D02*
X180331400Y-101303204D01*
X180331400Y-101303204D02*
X180331400Y-100946061D01*
X180331400Y-100946061D02*
X180259971Y-100803204D01*
X180831400Y-99446061D02*
X180902828Y-99588918D01*
X180902828Y-99588918D02*
X180902828Y-99874632D01*
X180902828Y-99874632D02*
X180831400Y-100017489D01*
X180831400Y-100017489D02*
X180759971Y-100088918D01*
X180759971Y-100088918D02*
X180617114Y-100160346D01*
X180617114Y-100160346D02*
X180188542Y-100160346D01*
X180188542Y-100160346D02*
X180045685Y-100088918D01*
X180045685Y-100088918D02*
X179974257Y-100017489D01*
X179974257Y-100017489D02*
X179902828Y-99874632D01*
X179902828Y-99874632D02*
X179902828Y-99588918D01*
X179902828Y-99588918D02*
X179974257Y-99446061D01*
X180831400Y-98231775D02*
X180902828Y-98374632D01*
X180902828Y-98374632D02*
X180902828Y-98660347D01*
X180902828Y-98660347D02*
X180831400Y-98803204D01*
X180831400Y-98803204D02*
X180688542Y-98874632D01*
X180688542Y-98874632D02*
X180117114Y-98874632D01*
X180117114Y-98874632D02*
X179974257Y-98803204D01*
X179974257Y-98803204D02*
X179902828Y-98660347D01*
X179902828Y-98660347D02*
X179902828Y-98374632D01*
X179902828Y-98374632D02*
X179974257Y-98231775D01*
X179974257Y-98231775D02*
X180117114Y-98160347D01*
X180117114Y-98160347D02*
X180259971Y-98160347D01*
X180259971Y-98160347D02*
X180402828Y-98874632D01*
X180117114Y-95874633D02*
X180188542Y-95660347D01*
X180188542Y-95660347D02*
X180259971Y-95588918D01*
X180259971Y-95588918D02*
X180402828Y-95517490D01*
X180402828Y-95517490D02*
X180617114Y-95517490D01*
X180617114Y-95517490D02*
X180759971Y-95588918D01*
X180759971Y-95588918D02*
X180831400Y-95660347D01*
X180831400Y-95660347D02*
X180902828Y-95803204D01*
X180902828Y-95803204D02*
X180902828Y-96374633D01*
X180902828Y-96374633D02*
X179402828Y-96374633D01*
X179402828Y-96374633D02*
X179402828Y-95874633D01*
X179402828Y-95874633D02*
X179474257Y-95731776D01*
X179474257Y-95731776D02*
X179545685Y-95660347D01*
X179545685Y-95660347D02*
X179688542Y-95588918D01*
X179688542Y-95588918D02*
X179831400Y-95588918D01*
X179831400Y-95588918D02*
X179974257Y-95660347D01*
X179974257Y-95660347D02*
X180045685Y-95731776D01*
X180045685Y-95731776D02*
X180117114Y-95874633D01*
X180117114Y-95874633D02*
X180117114Y-96374633D01*
X180902828Y-94660347D02*
X180831400Y-94803204D01*
X180831400Y-94803204D02*
X180759971Y-94874633D01*
X180759971Y-94874633D02*
X180617114Y-94946061D01*
X180617114Y-94946061D02*
X180188542Y-94946061D01*
X180188542Y-94946061D02*
X180045685Y-94874633D01*
X180045685Y-94874633D02*
X179974257Y-94803204D01*
X179974257Y-94803204D02*
X179902828Y-94660347D01*
X179902828Y-94660347D02*
X179902828Y-94446061D01*
X179902828Y-94446061D02*
X179974257Y-94303204D01*
X179974257Y-94303204D02*
X180045685Y-94231776D01*
X180045685Y-94231776D02*
X180188542Y-94160347D01*
X180188542Y-94160347D02*
X180617114Y-94160347D01*
X180617114Y-94160347D02*
X180759971Y-94231776D01*
X180759971Y-94231776D02*
X180831400Y-94303204D01*
X180831400Y-94303204D02*
X180902828Y-94446061D01*
X180902828Y-94446061D02*
X180902828Y-94660347D01*
X180902828Y-92874633D02*
X180117114Y-92874633D01*
X180117114Y-92874633D02*
X179974257Y-92946061D01*
X179974257Y-92946061D02*
X179902828Y-93088918D01*
X179902828Y-93088918D02*
X179902828Y-93374633D01*
X179902828Y-93374633D02*
X179974257Y-93517490D01*
X180831400Y-92874633D02*
X180902828Y-93017490D01*
X180902828Y-93017490D02*
X180902828Y-93374633D01*
X180902828Y-93374633D02*
X180831400Y-93517490D01*
X180831400Y-93517490D02*
X180688542Y-93588918D01*
X180688542Y-93588918D02*
X180545685Y-93588918D01*
X180545685Y-93588918D02*
X180402828Y-93517490D01*
X180402828Y-93517490D02*
X180331400Y-93374633D01*
X180331400Y-93374633D02*
X180331400Y-93017490D01*
X180331400Y-93017490D02*
X180259971Y-92874633D01*
X180902828Y-92160347D02*
X179902828Y-92160347D01*
X180188542Y-92160347D02*
X180045685Y-92088918D01*
X180045685Y-92088918D02*
X179974257Y-92017490D01*
X179974257Y-92017490D02*
X179902828Y-91874632D01*
X179902828Y-91874632D02*
X179902828Y-91731775D01*
X180902828Y-90588919D02*
X179402828Y-90588919D01*
X180831400Y-90588919D02*
X180902828Y-90731776D01*
X180902828Y-90731776D02*
X180902828Y-91017490D01*
X180902828Y-91017490D02*
X180831400Y-91160347D01*
X180831400Y-91160347D02*
X180759971Y-91231776D01*
X180759971Y-91231776D02*
X180617114Y-91303204D01*
X180617114Y-91303204D02*
X180188542Y-91303204D01*
X180188542Y-91303204D02*
X180045685Y-91231776D01*
X180045685Y-91231776D02*
X179974257Y-91160347D01*
X179974257Y-91160347D02*
X179902828Y-91017490D01*
X179902828Y-91017490D02*
X179902828Y-90731776D01*
X179902828Y-90731776D02*
X179974257Y-90588919D01*
X131101000Y-136846328D02*
X131601000Y-138346328D01*
X131601000Y-138346328D02*
X132101000Y-136846328D01*
X132600999Y-138346328D02*
X132600999Y-136846328D01*
X132600999Y-136846328D02*
X132958142Y-136846328D01*
X132958142Y-136846328D02*
X133172428Y-136917757D01*
X133172428Y-136917757D02*
X133315285Y-137060614D01*
X133315285Y-137060614D02*
X133386714Y-137203471D01*
X133386714Y-137203471D02*
X133458142Y-137489185D01*
X133458142Y-137489185D02*
X133458142Y-137703471D01*
X133458142Y-137703471D02*
X133386714Y-137989185D01*
X133386714Y-137989185D02*
X133315285Y-138132042D01*
X133315285Y-138132042D02*
X133172428Y-138274900D01*
X133172428Y-138274900D02*
X132958142Y-138346328D01*
X132958142Y-138346328D02*
X132600999Y-138346328D01*
X134100999Y-138346328D02*
X134100999Y-136846328D01*
X134100999Y-136846328D02*
X134458142Y-136846328D01*
X134458142Y-136846328D02*
X134672428Y-136917757D01*
X134672428Y-136917757D02*
X134815285Y-137060614D01*
X134815285Y-137060614D02*
X134886714Y-137203471D01*
X134886714Y-137203471D02*
X134958142Y-137489185D01*
X134958142Y-137489185D02*
X134958142Y-137703471D01*
X134958142Y-137703471D02*
X134886714Y-137989185D01*
X134886714Y-137989185D02*
X134815285Y-138132042D01*
X134815285Y-138132042D02*
X134672428Y-138274900D01*
X134672428Y-138274900D02*
X134458142Y-138346328D01*
X134458142Y-138346328D02*
X134100999Y-138346328D01*
X158528000Y-136846328D02*
X159028000Y-138346328D01*
X159028000Y-138346328D02*
X159528000Y-136846328D01*
X160027999Y-138346328D02*
X160027999Y-136846328D01*
X160027999Y-136846328D02*
X160385142Y-136846328D01*
X160385142Y-136846328D02*
X160599428Y-136917757D01*
X160599428Y-136917757D02*
X160742285Y-137060614D01*
X160742285Y-137060614D02*
X160813714Y-137203471D01*
X160813714Y-137203471D02*
X160885142Y-137489185D01*
X160885142Y-137489185D02*
X160885142Y-137703471D01*
X160885142Y-137703471D02*
X160813714Y-137989185D01*
X160813714Y-137989185D02*
X160742285Y-138132042D01*
X160742285Y-138132042D02*
X160599428Y-138274900D01*
X160599428Y-138274900D02*
X160385142Y-138346328D01*
X160385142Y-138346328D02*
X160027999Y-138346328D01*
X161527999Y-138346328D02*
X161527999Y-136846328D01*
X161527999Y-136846328D02*
X161885142Y-136846328D01*
X161885142Y-136846328D02*
X162099428Y-136917757D01*
X162099428Y-136917757D02*
X162242285Y-137060614D01*
X162242285Y-137060614D02*
X162313714Y-137203471D01*
X162313714Y-137203471D02*
X162385142Y-137489185D01*
X162385142Y-137489185D02*
X162385142Y-137703471D01*
X162385142Y-137703471D02*
X162313714Y-137989185D01*
X162313714Y-137989185D02*
X162242285Y-138132042D01*
X162242285Y-138132042D02*
X162099428Y-138274900D01*
X162099428Y-138274900D02*
X161885142Y-138346328D01*
X161885142Y-138346328D02*
X161527999Y-138346328D01*
D12*
X153133714Y-136086142D02*
X153133714Y-134886142D01*
X153133714Y-134886142D02*
X153590857Y-134886142D01*
X153590857Y-134886142D02*
X153705142Y-134943285D01*
X153705142Y-134943285D02*
X153762285Y-135000428D01*
X153762285Y-135000428D02*
X153819428Y-135114714D01*
X153819428Y-135114714D02*
X153819428Y-135286142D01*
X153819428Y-135286142D02*
X153762285Y-135400428D01*
X153762285Y-135400428D02*
X153705142Y-135457571D01*
X153705142Y-135457571D02*
X153590857Y-135514714D01*
X153590857Y-135514714D02*
X153133714Y-135514714D01*
X154219428Y-135286142D02*
X154448000Y-136086142D01*
X154448000Y-136086142D02*
X154676571Y-135514714D01*
X154676571Y-135514714D02*
X154905142Y-136086142D01*
X154905142Y-136086142D02*
X155133714Y-135286142D01*
X155590857Y-136086142D02*
X155590857Y-135286142D01*
X155590857Y-135514714D02*
X155648000Y-135400428D01*
X155648000Y-135400428D02*
X155705143Y-135343285D01*
X155705143Y-135343285D02*
X155819428Y-135286142D01*
X155819428Y-135286142D02*
X155933714Y-135286142D01*
D11*
X138696757Y-99291939D02*
X138625328Y-99434797D01*
X138625328Y-99434797D02*
X138625328Y-99649082D01*
X138625328Y-99649082D02*
X138696757Y-99863368D01*
X138696757Y-99863368D02*
X138839614Y-100006225D01*
X138839614Y-100006225D02*
X138982471Y-100077654D01*
X138982471Y-100077654D02*
X139268185Y-100149082D01*
X139268185Y-100149082D02*
X139482471Y-100149082D01*
X139482471Y-100149082D02*
X139768185Y-100077654D01*
X139768185Y-100077654D02*
X139911042Y-100006225D01*
X139911042Y-100006225D02*
X140053900Y-99863368D01*
X140053900Y-99863368D02*
X140125328Y-99649082D01*
X140125328Y-99649082D02*
X140125328Y-99506225D01*
X140125328Y-99506225D02*
X140053900Y-99291939D01*
X140053900Y-99291939D02*
X139982471Y-99220511D01*
X139982471Y-99220511D02*
X139482471Y-99220511D01*
X139482471Y-99220511D02*
X139482471Y-99506225D01*
X140125328Y-98577654D02*
X138625328Y-98577654D01*
X138625328Y-98577654D02*
X140125328Y-97720511D01*
X140125328Y-97720511D02*
X138625328Y-97720511D01*
X140125328Y-97006225D02*
X138625328Y-97006225D01*
X138625328Y-97006225D02*
X138625328Y-96649082D01*
X138625328Y-96649082D02*
X138696757Y-96434796D01*
X138696757Y-96434796D02*
X138839614Y-96291939D01*
X138839614Y-96291939D02*
X138982471Y-96220510D01*
X138982471Y-96220510D02*
X139268185Y-96149082D01*
X139268185Y-96149082D02*
X139482471Y-96149082D01*
X139482471Y-96149082D02*
X139768185Y-96220510D01*
X139768185Y-96220510D02*
X139911042Y-96291939D01*
X139911042Y-96291939D02*
X140053900Y-96434796D01*
X140053900Y-96434796D02*
X140125328Y-96649082D01*
X140125328Y-96649082D02*
X140125328Y-97006225D01*
X138945714Y-124478328D02*
X138945714Y-122978328D01*
X139588572Y-123121185D02*
X139660000Y-123049757D01*
X139660000Y-123049757D02*
X139802858Y-122978328D01*
X139802858Y-122978328D02*
X140160000Y-122978328D01*
X140160000Y-122978328D02*
X140302858Y-123049757D01*
X140302858Y-123049757D02*
X140374286Y-123121185D01*
X140374286Y-123121185D02*
X140445715Y-123264042D01*
X140445715Y-123264042D02*
X140445715Y-123406900D01*
X140445715Y-123406900D02*
X140374286Y-123621185D01*
X140374286Y-123621185D02*
X139517143Y-124478328D01*
X139517143Y-124478328D02*
X140445715Y-124478328D01*
X141945714Y-124335471D02*
X141874286Y-124406900D01*
X141874286Y-124406900D02*
X141660000Y-124478328D01*
X141660000Y-124478328D02*
X141517143Y-124478328D01*
X141517143Y-124478328D02*
X141302857Y-124406900D01*
X141302857Y-124406900D02*
X141160000Y-124264042D01*
X141160000Y-124264042D02*
X141088571Y-124121185D01*
X141088571Y-124121185D02*
X141017143Y-123835471D01*
X141017143Y-123835471D02*
X141017143Y-123621185D01*
X141017143Y-123621185D02*
X141088571Y-123335471D01*
X141088571Y-123335471D02*
X141160000Y-123192614D01*
X141160000Y-123192614D02*
X141302857Y-123049757D01*
X141302857Y-123049757D02*
X141517143Y-122978328D01*
X141517143Y-122978328D02*
X141660000Y-122978328D01*
X141660000Y-122978328D02*
X141874286Y-123049757D01*
X141874286Y-123049757D02*
X141945714Y-123121185D01*
X133545328Y-99791938D02*
X133545328Y-98934796D01*
X135045328Y-99363367D02*
X133545328Y-99363367D01*
X133545328Y-98577653D02*
X135045328Y-97577653D01*
X133545328Y-97577653D02*
X135045328Y-98577653D01*
X135045328Y-97006225D02*
X133545328Y-97006225D01*
X133545328Y-97006225D02*
X133545328Y-96649082D01*
X133545328Y-96649082D02*
X133616757Y-96434796D01*
X133616757Y-96434796D02*
X133759614Y-96291939D01*
X133759614Y-96291939D02*
X133902471Y-96220510D01*
X133902471Y-96220510D02*
X134188185Y-96149082D01*
X134188185Y-96149082D02*
X134402471Y-96149082D01*
X134402471Y-96149082D02*
X134688185Y-96220510D01*
X134688185Y-96220510D02*
X134831042Y-96291939D01*
X134831042Y-96291939D02*
X134973900Y-96434796D01*
X134973900Y-96434796D02*
X135045328Y-96649082D01*
X135045328Y-96649082D02*
X135045328Y-97006225D01*
D12*
X134064857Y-91579000D02*
X134179143Y-91636142D01*
X134179143Y-91636142D02*
X134407714Y-91636142D01*
X134407714Y-91636142D02*
X134522000Y-91579000D01*
X134522000Y-91579000D02*
X134579143Y-91464714D01*
X134579143Y-91464714D02*
X134579143Y-91407571D01*
X134579143Y-91407571D02*
X134522000Y-91293285D01*
X134522000Y-91293285D02*
X134407714Y-91236142D01*
X134407714Y-91236142D02*
X134236286Y-91236142D01*
X134236286Y-91236142D02*
X134122000Y-91179000D01*
X134122000Y-91179000D02*
X134064857Y-91064714D01*
X134064857Y-91064714D02*
X134064857Y-91007571D01*
X134064857Y-91007571D02*
X134122000Y-90893285D01*
X134122000Y-90893285D02*
X134236286Y-90836142D01*
X134236286Y-90836142D02*
X134407714Y-90836142D01*
X134407714Y-90836142D02*
X134522000Y-90893285D01*
X135550572Y-91579000D02*
X135436286Y-91636142D01*
X135436286Y-91636142D02*
X135207715Y-91636142D01*
X135207715Y-91636142D02*
X135093429Y-91579000D01*
X135093429Y-91579000D02*
X135036286Y-91464714D01*
X135036286Y-91464714D02*
X135036286Y-91007571D01*
X135036286Y-91007571D02*
X135093429Y-90893285D01*
X135093429Y-90893285D02*
X135207715Y-90836142D01*
X135207715Y-90836142D02*
X135436286Y-90836142D01*
X135436286Y-90836142D02*
X135550572Y-90893285D01*
X135550572Y-90893285D02*
X135607715Y-91007571D01*
X135607715Y-91007571D02*
X135607715Y-91121857D01*
X135607715Y-91121857D02*
X135036286Y-91236142D01*
X136122000Y-91636142D02*
X136122000Y-90836142D01*
X136122000Y-91064714D02*
X136179143Y-90950428D01*
X136179143Y-90950428D02*
X136236286Y-90893285D01*
X136236286Y-90893285D02*
X136350571Y-90836142D01*
X136350571Y-90836142D02*
X136464857Y-90836142D01*
X136864857Y-91636142D02*
X136864857Y-90836142D01*
X136864857Y-90436142D02*
X136807714Y-90493285D01*
X136807714Y-90493285D02*
X136864857Y-90550428D01*
X136864857Y-90550428D02*
X136922000Y-90493285D01*
X136922000Y-90493285D02*
X136864857Y-90436142D01*
X136864857Y-90436142D02*
X136864857Y-90550428D01*
X137950572Y-91636142D02*
X137950572Y-91007571D01*
X137950572Y-91007571D02*
X137893429Y-90893285D01*
X137893429Y-90893285D02*
X137779143Y-90836142D01*
X137779143Y-90836142D02*
X137550572Y-90836142D01*
X137550572Y-90836142D02*
X137436286Y-90893285D01*
X137950572Y-91579000D02*
X137836286Y-91636142D01*
X137836286Y-91636142D02*
X137550572Y-91636142D01*
X137550572Y-91636142D02*
X137436286Y-91579000D01*
X137436286Y-91579000D02*
X137379143Y-91464714D01*
X137379143Y-91464714D02*
X137379143Y-91350428D01*
X137379143Y-91350428D02*
X137436286Y-91236142D01*
X137436286Y-91236142D02*
X137550572Y-91179000D01*
X137550572Y-91179000D02*
X137836286Y-91179000D01*
X137836286Y-91179000D02*
X137950572Y-91121857D01*
X138693428Y-91636142D02*
X138579143Y-91579000D01*
X138579143Y-91579000D02*
X138522000Y-91464714D01*
X138522000Y-91464714D02*
X138522000Y-90436142D01*
X139379142Y-90436142D02*
X139493428Y-90436142D01*
X139493428Y-90436142D02*
X139607714Y-90493285D01*
X139607714Y-90493285D02*
X139664857Y-90550428D01*
X139664857Y-90550428D02*
X139721999Y-90664714D01*
X139721999Y-90664714D02*
X139779142Y-90893285D01*
X139779142Y-90893285D02*
X139779142Y-91179000D01*
X139779142Y-91179000D02*
X139721999Y-91407571D01*
X139721999Y-91407571D02*
X139664857Y-91521857D01*
X139664857Y-91521857D02*
X139607714Y-91579000D01*
X139607714Y-91579000D02*
X139493428Y-91636142D01*
X139493428Y-91636142D02*
X139379142Y-91636142D01*
X139379142Y-91636142D02*
X139264857Y-91579000D01*
X139264857Y-91579000D02*
X139207714Y-91521857D01*
X139207714Y-91521857D02*
X139150571Y-91407571D01*
X139150571Y-91407571D02*
X139093428Y-91179000D01*
X139093428Y-91179000D02*
X139093428Y-90893285D01*
X139093428Y-90893285D02*
X139150571Y-90664714D01*
X139150571Y-90664714D02*
X139207714Y-90550428D01*
X139207714Y-90550428D02*
X139264857Y-90493285D01*
X139264857Y-90493285D02*
X139379142Y-90436142D01*
D11*
X137585328Y-99077653D02*
X136871042Y-99577653D01*
X137585328Y-99934796D02*
X136085328Y-99934796D01*
X136085328Y-99934796D02*
X136085328Y-99363367D01*
X136085328Y-99363367D02*
X136156757Y-99220510D01*
X136156757Y-99220510D02*
X136228185Y-99149081D01*
X136228185Y-99149081D02*
X136371042Y-99077653D01*
X136371042Y-99077653D02*
X136585328Y-99077653D01*
X136585328Y-99077653D02*
X136728185Y-99149081D01*
X136728185Y-99149081D02*
X136799614Y-99220510D01*
X136799614Y-99220510D02*
X136871042Y-99363367D01*
X136871042Y-99363367D02*
X136871042Y-99934796D01*
X136085328Y-98577653D02*
X137585328Y-97577653D01*
X136085328Y-97577653D02*
X137585328Y-98577653D01*
X137585328Y-97006225D02*
X136085328Y-97006225D01*
X136085328Y-97006225D02*
X136085328Y-96649082D01*
X136085328Y-96649082D02*
X136156757Y-96434796D01*
X136156757Y-96434796D02*
X136299614Y-96291939D01*
X136299614Y-96291939D02*
X136442471Y-96220510D01*
X136442471Y-96220510D02*
X136728185Y-96149082D01*
X136728185Y-96149082D02*
X136942471Y-96149082D01*
X136942471Y-96149082D02*
X137228185Y-96220510D01*
X137228185Y-96220510D02*
X137371042Y-96291939D01*
X137371042Y-96291939D02*
X137513900Y-96434796D01*
X137513900Y-96434796D02*
X137585328Y-96649082D01*
X137585328Y-96649082D02*
X137585328Y-97006225D01*
D12*
X153790857Y-136664142D02*
X154019429Y-136664142D01*
X154019429Y-136664142D02*
X154133714Y-136721285D01*
X154133714Y-136721285D02*
X154248000Y-136835571D01*
X154248000Y-136835571D02*
X154305143Y-137064142D01*
X154305143Y-137064142D02*
X154305143Y-137464142D01*
X154305143Y-137464142D02*
X154248000Y-137692714D01*
X154248000Y-137692714D02*
X154133714Y-137807000D01*
X154133714Y-137807000D02*
X154019429Y-137864142D01*
X154019429Y-137864142D02*
X153790857Y-137864142D01*
X153790857Y-137864142D02*
X153676572Y-137807000D01*
X153676572Y-137807000D02*
X153562286Y-137692714D01*
X153562286Y-137692714D02*
X153505143Y-137464142D01*
X153505143Y-137464142D02*
X153505143Y-137064142D01*
X153505143Y-137064142D02*
X153562286Y-136835571D01*
X153562286Y-136835571D02*
X153676572Y-136721285D01*
X153676572Y-136721285D02*
X153790857Y-136664142D01*
X154819429Y-137064142D02*
X154819429Y-137864142D01*
X154819429Y-137178428D02*
X154876572Y-137121285D01*
X154876572Y-137121285D02*
X154990857Y-137064142D01*
X154990857Y-137064142D02*
X155162286Y-137064142D01*
X155162286Y-137064142D02*
X155276572Y-137121285D01*
X155276572Y-137121285D02*
X155333715Y-137235571D01*
X155333715Y-137235571D02*
X155333715Y-137864142D01*
D11*
X136359572Y-138274900D02*
X136573858Y-138346328D01*
X136573858Y-138346328D02*
X136931000Y-138346328D01*
X136931000Y-138346328D02*
X137073858Y-138274900D01*
X137073858Y-138274900D02*
X137145286Y-138203471D01*
X137145286Y-138203471D02*
X137216715Y-138060614D01*
X137216715Y-138060614D02*
X137216715Y-137917757D01*
X137216715Y-137917757D02*
X137145286Y-137774900D01*
X137145286Y-137774900D02*
X137073858Y-137703471D01*
X137073858Y-137703471D02*
X136931000Y-137632042D01*
X136931000Y-137632042D02*
X136645286Y-137560614D01*
X136645286Y-137560614D02*
X136502429Y-137489185D01*
X136502429Y-137489185D02*
X136431000Y-137417757D01*
X136431000Y-137417757D02*
X136359572Y-137274900D01*
X136359572Y-137274900D02*
X136359572Y-137132042D01*
X136359572Y-137132042D02*
X136431000Y-136989185D01*
X136431000Y-136989185D02*
X136502429Y-136917757D01*
X136502429Y-136917757D02*
X136645286Y-136846328D01*
X136645286Y-136846328D02*
X137002429Y-136846328D01*
X137002429Y-136846328D02*
X137216715Y-136917757D01*
X137859571Y-138346328D02*
X137859571Y-136846328D01*
X137859571Y-136846328D02*
X138216714Y-136846328D01*
X138216714Y-136846328D02*
X138431000Y-136917757D01*
X138431000Y-136917757D02*
X138573857Y-137060614D01*
X138573857Y-137060614D02*
X138645286Y-137203471D01*
X138645286Y-137203471D02*
X138716714Y-137489185D01*
X138716714Y-137489185D02*
X138716714Y-137703471D01*
X138716714Y-137703471D02*
X138645286Y-137989185D01*
X138645286Y-137989185D02*
X138573857Y-138132042D01*
X138573857Y-138132042D02*
X138431000Y-138274900D01*
X138431000Y-138274900D02*
X138216714Y-138346328D01*
X138216714Y-138346328D02*
X137859571Y-138346328D01*
X139288143Y-137917757D02*
X140002429Y-137917757D01*
X139145286Y-138346328D02*
X139645286Y-136846328D01*
X139645286Y-136846328D02*
X140145286Y-138346328D01*
X141475286Y-138274900D02*
X141689572Y-138346328D01*
X141689572Y-138346328D02*
X142046714Y-138346328D01*
X142046714Y-138346328D02*
X142189572Y-138274900D01*
X142189572Y-138274900D02*
X142261000Y-138203471D01*
X142261000Y-138203471D02*
X142332429Y-138060614D01*
X142332429Y-138060614D02*
X142332429Y-137917757D01*
X142332429Y-137917757D02*
X142261000Y-137774900D01*
X142261000Y-137774900D02*
X142189572Y-137703471D01*
X142189572Y-137703471D02*
X142046714Y-137632042D01*
X142046714Y-137632042D02*
X141761000Y-137560614D01*
X141761000Y-137560614D02*
X141618143Y-137489185D01*
X141618143Y-137489185D02*
X141546714Y-137417757D01*
X141546714Y-137417757D02*
X141475286Y-137274900D01*
X141475286Y-137274900D02*
X141475286Y-137132042D01*
X141475286Y-137132042D02*
X141546714Y-136989185D01*
X141546714Y-136989185D02*
X141618143Y-136917757D01*
X141618143Y-136917757D02*
X141761000Y-136846328D01*
X141761000Y-136846328D02*
X142118143Y-136846328D01*
X142118143Y-136846328D02*
X142332429Y-136917757D01*
X143832428Y-138203471D02*
X143761000Y-138274900D01*
X143761000Y-138274900D02*
X143546714Y-138346328D01*
X143546714Y-138346328D02*
X143403857Y-138346328D01*
X143403857Y-138346328D02*
X143189571Y-138274900D01*
X143189571Y-138274900D02*
X143046714Y-138132042D01*
X143046714Y-138132042D02*
X142975285Y-137989185D01*
X142975285Y-137989185D02*
X142903857Y-137703471D01*
X142903857Y-137703471D02*
X142903857Y-137489185D01*
X142903857Y-137489185D02*
X142975285Y-137203471D01*
X142975285Y-137203471D02*
X143046714Y-137060614D01*
X143046714Y-137060614D02*
X143189571Y-136917757D01*
X143189571Y-136917757D02*
X143403857Y-136846328D01*
X143403857Y-136846328D02*
X143546714Y-136846328D01*
X143546714Y-136846328D02*
X143761000Y-136917757D01*
X143761000Y-136917757D02*
X143832428Y-136989185D01*
X145189571Y-138346328D02*
X144475285Y-138346328D01*
X144475285Y-138346328D02*
X144475285Y-136846328D01*
X169545143Y-136917757D02*
X169402286Y-136846328D01*
X169402286Y-136846328D02*
X169188000Y-136846328D01*
X169188000Y-136846328D02*
X168973714Y-136917757D01*
X168973714Y-136917757D02*
X168830857Y-137060614D01*
X168830857Y-137060614D02*
X168759428Y-137203471D01*
X168759428Y-137203471D02*
X168688000Y-137489185D01*
X168688000Y-137489185D02*
X168688000Y-137703471D01*
X168688000Y-137703471D02*
X168759428Y-137989185D01*
X168759428Y-137989185D02*
X168830857Y-138132042D01*
X168830857Y-138132042D02*
X168973714Y-138274900D01*
X168973714Y-138274900D02*
X169188000Y-138346328D01*
X169188000Y-138346328D02*
X169330857Y-138346328D01*
X169330857Y-138346328D02*
X169545143Y-138274900D01*
X169545143Y-138274900D02*
X169616571Y-138203471D01*
X169616571Y-138203471D02*
X169616571Y-137703471D01*
X169616571Y-137703471D02*
X169330857Y-137703471D01*
X170259428Y-138346328D02*
X170259428Y-136846328D01*
X170259428Y-136846328D02*
X171116571Y-138346328D01*
X171116571Y-138346328D02*
X171116571Y-136846328D01*
X171830857Y-138346328D02*
X171830857Y-136846328D01*
X171830857Y-136846328D02*
X172188000Y-136846328D01*
X172188000Y-136846328D02*
X172402286Y-136917757D01*
X172402286Y-136917757D02*
X172545143Y-137060614D01*
X172545143Y-137060614D02*
X172616572Y-137203471D01*
X172616572Y-137203471D02*
X172688000Y-137489185D01*
X172688000Y-137489185D02*
X172688000Y-137703471D01*
X172688000Y-137703471D02*
X172616572Y-137989185D01*
X172616572Y-137989185D02*
X172545143Y-138132042D01*
X172545143Y-138132042D02*
X172402286Y-138274900D01*
X172402286Y-138274900D02*
X172188000Y-138346328D01*
X172188000Y-138346328D02*
X171830857Y-138346328D01*
D12*
X152676571Y-133108142D02*
X153419428Y-133108142D01*
X153419428Y-133108142D02*
X153019428Y-133565285D01*
X153019428Y-133565285D02*
X153190857Y-133565285D01*
X153190857Y-133565285D02*
X153305143Y-133622428D01*
X153305143Y-133622428D02*
X153362285Y-133679571D01*
X153362285Y-133679571D02*
X153419428Y-133793857D01*
X153419428Y-133793857D02*
X153419428Y-134079571D01*
X153419428Y-134079571D02*
X153362285Y-134193857D01*
X153362285Y-134193857D02*
X153305143Y-134251000D01*
X153305143Y-134251000D02*
X153190857Y-134308142D01*
X153190857Y-134308142D02*
X152848000Y-134308142D01*
X152848000Y-134308142D02*
X152733714Y-134251000D01*
X152733714Y-134251000D02*
X152676571Y-134193857D01*
X153933714Y-134193857D02*
X153990857Y-134251000D01*
X153990857Y-134251000D02*
X153933714Y-134308142D01*
X153933714Y-134308142D02*
X153876571Y-134251000D01*
X153876571Y-134251000D02*
X153933714Y-134193857D01*
X153933714Y-134193857D02*
X153933714Y-134308142D01*
X154390857Y-133108142D02*
X155133714Y-133108142D01*
X155133714Y-133108142D02*
X154733714Y-133565285D01*
X154733714Y-133565285D02*
X154905143Y-133565285D01*
X154905143Y-133565285D02*
X155019429Y-133622428D01*
X155019429Y-133622428D02*
X155076571Y-133679571D01*
X155076571Y-133679571D02*
X155133714Y-133793857D01*
X155133714Y-133793857D02*
X155133714Y-134079571D01*
X155133714Y-134079571D02*
X155076571Y-134193857D01*
X155076571Y-134193857D02*
X155019429Y-134251000D01*
X155019429Y-134251000D02*
X154905143Y-134308142D01*
X154905143Y-134308142D02*
X154562286Y-134308142D01*
X154562286Y-134308142D02*
X154448000Y-134251000D01*
X154448000Y-134251000D02*
X154390857Y-134193857D01*
X155476571Y-133108142D02*
X155876571Y-134308142D01*
X155876571Y-134308142D02*
X156276571Y-133108142D01*
D11*
X164429428Y-138346328D02*
X164429428Y-136846328D01*
X164429428Y-136846328D02*
X164786571Y-136846328D01*
X164786571Y-136846328D02*
X165000857Y-136917757D01*
X165000857Y-136917757D02*
X165143714Y-137060614D01*
X165143714Y-137060614D02*
X165215143Y-137203471D01*
X165215143Y-137203471D02*
X165286571Y-137489185D01*
X165286571Y-137489185D02*
X165286571Y-137703471D01*
X165286571Y-137703471D02*
X165215143Y-137989185D01*
X165215143Y-137989185D02*
X165143714Y-138132042D01*
X165143714Y-138132042D02*
X165000857Y-138274900D01*
X165000857Y-138274900D02*
X164786571Y-138346328D01*
X164786571Y-138346328D02*
X164429428Y-138346328D01*
X166929428Y-138489185D02*
X166786571Y-138417757D01*
X166786571Y-138417757D02*
X166643714Y-138274900D01*
X166643714Y-138274900D02*
X166429428Y-138060614D01*
X166429428Y-138060614D02*
X166286571Y-137989185D01*
X166286571Y-137989185D02*
X166143714Y-137989185D01*
X166215143Y-138346328D02*
X166072286Y-138274900D01*
X166072286Y-138274900D02*
X165929428Y-138132042D01*
X165929428Y-138132042D02*
X165858000Y-137846328D01*
X165858000Y-137846328D02*
X165858000Y-137346328D01*
X165858000Y-137346328D02*
X165929428Y-137060614D01*
X165929428Y-137060614D02*
X166072286Y-136917757D01*
X166072286Y-136917757D02*
X166215143Y-136846328D01*
X166215143Y-136846328D02*
X166500857Y-136846328D01*
X166500857Y-136846328D02*
X166643714Y-136917757D01*
X166643714Y-136917757D02*
X166786571Y-137060614D01*
X166786571Y-137060614D02*
X166858000Y-137346328D01*
X166858000Y-137346328D02*
X166858000Y-137846328D01*
X166858000Y-137846328D02*
X166786571Y-138132042D01*
X166786571Y-138132042D02*
X166643714Y-138274900D01*
X166643714Y-138274900D02*
X166500857Y-138346328D01*
X166500857Y-138346328D02*
X166215143Y-138346328D01*
X163397715Y-124376328D02*
X162540572Y-124376328D01*
X162969143Y-124376328D02*
X162969143Y-122876328D01*
X162969143Y-122876328D02*
X162826286Y-123090614D01*
X162826286Y-123090614D02*
X162683429Y-123233471D01*
X162683429Y-123233471D02*
X162540572Y-123304900D01*
X165040571Y-122876328D02*
X165397714Y-124376328D01*
X165397714Y-124376328D02*
X165683428Y-123304900D01*
X165683428Y-123304900D02*
X165969143Y-124376328D01*
X165969143Y-124376328D02*
X166326286Y-122876328D01*
X166897714Y-124376328D02*
X166897714Y-123376328D01*
X166897714Y-122876328D02*
X166826286Y-122947757D01*
X166826286Y-122947757D02*
X166897714Y-123019185D01*
X166897714Y-123019185D02*
X166969143Y-122947757D01*
X166969143Y-122947757D02*
X166897714Y-122876328D01*
X166897714Y-122876328D02*
X166897714Y-123019185D01*
X167612000Y-124376328D02*
X167612000Y-123376328D01*
X167612000Y-123662042D02*
X167683429Y-123519185D01*
X167683429Y-123519185D02*
X167754858Y-123447757D01*
X167754858Y-123447757D02*
X167897715Y-123376328D01*
X167897715Y-123376328D02*
X168040572Y-123376328D01*
X169112000Y-124304900D02*
X168969143Y-124376328D01*
X168969143Y-124376328D02*
X168683429Y-124376328D01*
X168683429Y-124376328D02*
X168540571Y-124304900D01*
X168540571Y-124304900D02*
X168469143Y-124162042D01*
X168469143Y-124162042D02*
X168469143Y-123590614D01*
X168469143Y-123590614D02*
X168540571Y-123447757D01*
X168540571Y-123447757D02*
X168683429Y-123376328D01*
X168683429Y-123376328D02*
X168969143Y-123376328D01*
X168969143Y-123376328D02*
X169112000Y-123447757D01*
X169112000Y-123447757D02*
X169183429Y-123590614D01*
X169183429Y-123590614D02*
X169183429Y-123733471D01*
X169183429Y-123733471D02*
X168469143Y-123876328D01*
D13*
X156146666Y-125092819D02*
X156146666Y-125807104D01*
X156146666Y-125807104D02*
X156099047Y-125949961D01*
X156099047Y-125949961D02*
X156003809Y-126045200D01*
X156003809Y-126045200D02*
X155860952Y-126092819D01*
X155860952Y-126092819D02*
X155765714Y-126092819D01*
X157051428Y-125426152D02*
X157051428Y-126092819D01*
X156813333Y-125045200D02*
X156575238Y-125759485D01*
X156575238Y-125759485D02*
X157194285Y-125759485D01*
X158599333Y-91548819D02*
X158266000Y-91072628D01*
X158027905Y-91548819D02*
X158027905Y-90548819D01*
X158027905Y-90548819D02*
X158408857Y-90548819D01*
X158408857Y-90548819D02*
X158504095Y-90596438D01*
X158504095Y-90596438D02*
X158551714Y-90644057D01*
X158551714Y-90644057D02*
X158599333Y-90739295D01*
X158599333Y-90739295D02*
X158599333Y-90882152D01*
X158599333Y-90882152D02*
X158551714Y-90977390D01*
X158551714Y-90977390D02*
X158504095Y-91025009D01*
X158504095Y-91025009D02*
X158408857Y-91072628D01*
X158408857Y-91072628D02*
X158027905Y-91072628D01*
X159551714Y-91548819D02*
X158980286Y-91548819D01*
X159266000Y-91548819D02*
X159266000Y-90548819D01*
X159266000Y-90548819D02*
X159170762Y-90691676D01*
X159170762Y-90691676D02*
X159075524Y-90786914D01*
X159075524Y-90786914D02*
X158980286Y-90834533D01*
X131239666Y-93342819D02*
X131239666Y-94057104D01*
X131239666Y-94057104D02*
X131192047Y-94199961D01*
X131192047Y-94199961D02*
X131096809Y-94295200D01*
X131096809Y-94295200D02*
X130953952Y-94342819D01*
X130953952Y-94342819D02*
X130858714Y-94342819D01*
X131668238Y-93438057D02*
X131715857Y-93390438D01*
X131715857Y-93390438D02*
X131811095Y-93342819D01*
X131811095Y-93342819D02*
X132049190Y-93342819D01*
X132049190Y-93342819D02*
X132144428Y-93390438D01*
X132144428Y-93390438D02*
X132192047Y-93438057D01*
X132192047Y-93438057D02*
X132239666Y-93533295D01*
X132239666Y-93533295D02*
X132239666Y-93628533D01*
X132239666Y-93628533D02*
X132192047Y-93771390D01*
X132192047Y-93771390D02*
X131620619Y-94342819D01*
X131620619Y-94342819D02*
X132239666Y-94342819D01*
X160123333Y-96787580D02*
X160075714Y-96835200D01*
X160075714Y-96835200D02*
X159932857Y-96882819D01*
X159932857Y-96882819D02*
X159837619Y-96882819D01*
X159837619Y-96882819D02*
X159694762Y-96835200D01*
X159694762Y-96835200D02*
X159599524Y-96739961D01*
X159599524Y-96739961D02*
X159551905Y-96644723D01*
X159551905Y-96644723D02*
X159504286Y-96454247D01*
X159504286Y-96454247D02*
X159504286Y-96311390D01*
X159504286Y-96311390D02*
X159551905Y-96120914D01*
X159551905Y-96120914D02*
X159599524Y-96025676D01*
X159599524Y-96025676D02*
X159694762Y-95930438D01*
X159694762Y-95930438D02*
X159837619Y-95882819D01*
X159837619Y-95882819D02*
X159932857Y-95882819D01*
X159932857Y-95882819D02*
X160075714Y-95930438D01*
X160075714Y-95930438D02*
X160123333Y-95978057D01*
X160504286Y-95978057D02*
X160551905Y-95930438D01*
X160551905Y-95930438D02*
X160647143Y-95882819D01*
X160647143Y-95882819D02*
X160885238Y-95882819D01*
X160885238Y-95882819D02*
X160980476Y-95930438D01*
X160980476Y-95930438D02*
X161028095Y-95978057D01*
X161028095Y-95978057D02*
X161075714Y-96073295D01*
X161075714Y-96073295D02*
X161075714Y-96168533D01*
X161075714Y-96168533D02*
X161028095Y-96311390D01*
X161028095Y-96311390D02*
X160456667Y-96882819D01*
X160456667Y-96882819D02*
X161075714Y-96882819D01*
X149193333Y-104367580D02*
X149145714Y-104415200D01*
X149145714Y-104415200D02*
X149002857Y-104462819D01*
X149002857Y-104462819D02*
X148907619Y-104462819D01*
X148907619Y-104462819D02*
X148764762Y-104415200D01*
X148764762Y-104415200D02*
X148669524Y-104319961D01*
X148669524Y-104319961D02*
X148621905Y-104224723D01*
X148621905Y-104224723D02*
X148574286Y-104034247D01*
X148574286Y-104034247D02*
X148574286Y-103891390D01*
X148574286Y-103891390D02*
X148621905Y-103700914D01*
X148621905Y-103700914D02*
X148669524Y-103605676D01*
X148669524Y-103605676D02*
X148764762Y-103510438D01*
X148764762Y-103510438D02*
X148907619Y-103462819D01*
X148907619Y-103462819D02*
X149002857Y-103462819D01*
X149002857Y-103462819D02*
X149145714Y-103510438D01*
X149145714Y-103510438D02*
X149193333Y-103558057D01*
X149526667Y-103462819D02*
X150145714Y-103462819D01*
X150145714Y-103462819D02*
X149812381Y-103843771D01*
X149812381Y-103843771D02*
X149955238Y-103843771D01*
X149955238Y-103843771D02*
X150050476Y-103891390D01*
X150050476Y-103891390D02*
X150098095Y-103939009D01*
X150098095Y-103939009D02*
X150145714Y-104034247D01*
X150145714Y-104034247D02*
X150145714Y-104272342D01*
X150145714Y-104272342D02*
X150098095Y-104367580D01*
X150098095Y-104367580D02*
X150050476Y-104415200D01*
X150050476Y-104415200D02*
X149955238Y-104462819D01*
X149955238Y-104462819D02*
X149669524Y-104462819D01*
X149669524Y-104462819D02*
X149574286Y-104415200D01*
X149574286Y-104415200D02*
X149526667Y-104367580D01*
X118467333Y-92213580D02*
X118419714Y-92261200D01*
X118419714Y-92261200D02*
X118276857Y-92308819D01*
X118276857Y-92308819D02*
X118181619Y-92308819D01*
X118181619Y-92308819D02*
X118038762Y-92261200D01*
X118038762Y-92261200D02*
X117943524Y-92165961D01*
X117943524Y-92165961D02*
X117895905Y-92070723D01*
X117895905Y-92070723D02*
X117848286Y-91880247D01*
X117848286Y-91880247D02*
X117848286Y-91737390D01*
X117848286Y-91737390D02*
X117895905Y-91546914D01*
X117895905Y-91546914D02*
X117943524Y-91451676D01*
X117943524Y-91451676D02*
X118038762Y-91356438D01*
X118038762Y-91356438D02*
X118181619Y-91308819D01*
X118181619Y-91308819D02*
X118276857Y-91308819D01*
X118276857Y-91308819D02*
X118419714Y-91356438D01*
X118419714Y-91356438D02*
X118467333Y-91404057D01*
X119419714Y-92308819D02*
X118848286Y-92308819D01*
X119134000Y-92308819D02*
X119134000Y-91308819D01*
X119134000Y-91308819D02*
X119038762Y-91451676D01*
X119038762Y-91451676D02*
X118943524Y-91546914D01*
X118943524Y-91546914D02*
X118848286Y-91594533D01*
X125920666Y-90040819D02*
X125920666Y-90755104D01*
X125920666Y-90755104D02*
X125873047Y-90897961D01*
X125873047Y-90897961D02*
X125777809Y-90993200D01*
X125777809Y-90993200D02*
X125634952Y-91040819D01*
X125634952Y-91040819D02*
X125539714Y-91040819D01*
X126920666Y-91040819D02*
X126349238Y-91040819D01*
X126634952Y-91040819D02*
X126634952Y-90040819D01*
X126634952Y-90040819D02*
X126539714Y-90183676D01*
X126539714Y-90183676D02*
X126444476Y-90278914D01*
X126444476Y-90278914D02*
X126349238Y-90326533D01*
X128460666Y-125346819D02*
X128460666Y-126061104D01*
X128460666Y-126061104D02*
X128413047Y-126203961D01*
X128413047Y-126203961D02*
X128317809Y-126299200D01*
X128317809Y-126299200D02*
X128174952Y-126346819D01*
X128174952Y-126346819D02*
X128079714Y-126346819D01*
X128841619Y-125346819D02*
X129460666Y-125346819D01*
X129460666Y-125346819D02*
X129127333Y-125727771D01*
X129127333Y-125727771D02*
X129270190Y-125727771D01*
X129270190Y-125727771D02*
X129365428Y-125775390D01*
X129365428Y-125775390D02*
X129413047Y-125823009D01*
X129413047Y-125823009D02*
X129460666Y-125918247D01*
X129460666Y-125918247D02*
X129460666Y-126156342D01*
X129460666Y-126156342D02*
X129413047Y-126251580D01*
X129413047Y-126251580D02*
X129365428Y-126299200D01*
X129365428Y-126299200D02*
X129270190Y-126346819D01*
X129270190Y-126346819D02*
X128984476Y-126346819D01*
X128984476Y-126346819D02*
X128889238Y-126299200D01*
X128889238Y-126299200D02*
X128841619Y-126251580D01*
X141848095Y-94554819D02*
X141848095Y-95364342D01*
X141848095Y-95364342D02*
X141895714Y-95459580D01*
X141895714Y-95459580D02*
X141943333Y-95507200D01*
X141943333Y-95507200D02*
X142038571Y-95554819D01*
X142038571Y-95554819D02*
X142229047Y-95554819D01*
X142229047Y-95554819D02*
X142324285Y-95507200D01*
X142324285Y-95507200D02*
X142371904Y-95459580D01*
X142371904Y-95459580D02*
X142419523Y-95364342D01*
X142419523Y-95364342D02*
X142419523Y-94554819D01*
X142848095Y-94650057D02*
X142895714Y-94602438D01*
X142895714Y-94602438D02*
X142990952Y-94554819D01*
X142990952Y-94554819D02*
X143229047Y-94554819D01*
X143229047Y-94554819D02*
X143324285Y-94602438D01*
X143324285Y-94602438D02*
X143371904Y-94650057D01*
X143371904Y-94650057D02*
X143419523Y-94745295D01*
X143419523Y-94745295D02*
X143419523Y-94840533D01*
X143419523Y-94840533D02*
X143371904Y-94983390D01*
X143371904Y-94983390D02*
X142800476Y-95554819D01*
X142800476Y-95554819D02*
X143419523Y-95554819D01*
X143502285Y-107789009D02*
X143645142Y-107836628D01*
X143645142Y-107836628D02*
X143692761Y-107884247D01*
X143692761Y-107884247D02*
X143740380Y-107979485D01*
X143740380Y-107979485D02*
X143740380Y-108122342D01*
X143740380Y-108122342D02*
X143692761Y-108217580D01*
X143692761Y-108217580D02*
X143645142Y-108265200D01*
X143645142Y-108265200D02*
X143549904Y-108312819D01*
X143549904Y-108312819D02*
X143168952Y-108312819D01*
X143168952Y-108312819D02*
X143168952Y-107312819D01*
X143168952Y-107312819D02*
X143502285Y-107312819D01*
X143502285Y-107312819D02*
X143597523Y-107360438D01*
X143597523Y-107360438D02*
X143645142Y-107408057D01*
X143645142Y-107408057D02*
X143692761Y-107503295D01*
X143692761Y-107503295D02*
X143692761Y-107598533D01*
X143692761Y-107598533D02*
X143645142Y-107693771D01*
X143645142Y-107693771D02*
X143597523Y-107741390D01*
X143597523Y-107741390D02*
X143502285Y-107789009D01*
X143502285Y-107789009D02*
X143168952Y-107789009D01*
X144026095Y-107312819D02*
X144597523Y-107312819D01*
X144311809Y-108312819D02*
X144311809Y-107312819D01*
X145454666Y-108312819D02*
X144883238Y-108312819D01*
X145168952Y-108312819D02*
X145168952Y-107312819D01*
X145168952Y-107312819D02*
X145073714Y-107455676D01*
X145073714Y-107455676D02*
X144978476Y-107550914D01*
X144978476Y-107550914D02*
X144883238Y-107598533D01*
X142914571Y-112290700D02*
X144057429Y-112290700D01*
X143486000Y-112862128D02*
X143486000Y-111719271D01*
X144693333Y-104202580D02*
X144645714Y-104250200D01*
X144645714Y-104250200D02*
X144502857Y-104297819D01*
X144502857Y-104297819D02*
X144407619Y-104297819D01*
X144407619Y-104297819D02*
X144264762Y-104250200D01*
X144264762Y-104250200D02*
X144169524Y-104154961D01*
X144169524Y-104154961D02*
X144121905Y-104059723D01*
X144121905Y-104059723D02*
X144074286Y-103869247D01*
X144074286Y-103869247D02*
X144074286Y-103726390D01*
X144074286Y-103726390D02*
X144121905Y-103535914D01*
X144121905Y-103535914D02*
X144169524Y-103440676D01*
X144169524Y-103440676D02*
X144264762Y-103345438D01*
X144264762Y-103345438D02*
X144407619Y-103297819D01*
X144407619Y-103297819D02*
X144502857Y-103297819D01*
X144502857Y-103297819D02*
X144645714Y-103345438D01*
X144645714Y-103345438D02*
X144693333Y-103393057D01*
X145550476Y-103631152D02*
X145550476Y-104297819D01*
X145312381Y-103250200D02*
X145074286Y-103964485D01*
X145074286Y-103964485D02*
X145693333Y-103964485D01*
X125833333Y-130335580D02*
X125785714Y-130383200D01*
X125785714Y-130383200D02*
X125642857Y-130430819D01*
X125642857Y-130430819D02*
X125547619Y-130430819D01*
X125547619Y-130430819D02*
X125404762Y-130383200D01*
X125404762Y-130383200D02*
X125309524Y-130287961D01*
X125309524Y-130287961D02*
X125261905Y-130192723D01*
X125261905Y-130192723D02*
X125214286Y-130002247D01*
X125214286Y-130002247D02*
X125214286Y-129859390D01*
X125214286Y-129859390D02*
X125261905Y-129668914D01*
X125261905Y-129668914D02*
X125309524Y-129573676D01*
X125309524Y-129573676D02*
X125404762Y-129478438D01*
X125404762Y-129478438D02*
X125547619Y-129430819D01*
X125547619Y-129430819D02*
X125642857Y-129430819D01*
X125642857Y-129430819D02*
X125785714Y-129478438D01*
X125785714Y-129478438D02*
X125833333Y-129526057D01*
X126738095Y-129430819D02*
X126261905Y-129430819D01*
X126261905Y-129430819D02*
X126214286Y-129907009D01*
X126214286Y-129907009D02*
X126261905Y-129859390D01*
X126261905Y-129859390D02*
X126357143Y-129811771D01*
X126357143Y-129811771D02*
X126595238Y-129811771D01*
X126595238Y-129811771D02*
X126690476Y-129859390D01*
X126690476Y-129859390D02*
X126738095Y-129907009D01*
X126738095Y-129907009D02*
X126785714Y-130002247D01*
X126785714Y-130002247D02*
X126785714Y-130240342D01*
X126785714Y-130240342D02*
X126738095Y-130335580D01*
X126738095Y-130335580D02*
X126690476Y-130383200D01*
X126690476Y-130383200D02*
X126595238Y-130430819D01*
X126595238Y-130430819D02*
X126357143Y-130430819D01*
X126357143Y-130430819D02*
X126261905Y-130383200D01*
X126261905Y-130383200D02*
X126214286Y-130335580D01*
X152439905Y-127870819D02*
X152439905Y-126870819D01*
X152439905Y-126870819D02*
X152678000Y-126870819D01*
X152678000Y-126870819D02*
X152820857Y-126918438D01*
X152820857Y-126918438D02*
X152916095Y-127013676D01*
X152916095Y-127013676D02*
X152963714Y-127108914D01*
X152963714Y-127108914D02*
X153011333Y-127299390D01*
X153011333Y-127299390D02*
X153011333Y-127442247D01*
X153011333Y-127442247D02*
X152963714Y-127632723D01*
X152963714Y-127632723D02*
X152916095Y-127727961D01*
X152916095Y-127727961D02*
X152820857Y-127823200D01*
X152820857Y-127823200D02*
X152678000Y-127870819D01*
X152678000Y-127870819D02*
X152439905Y-127870819D01*
X153963714Y-127870819D02*
X153392286Y-127870819D01*
X153678000Y-127870819D02*
X153678000Y-126870819D01*
X153678000Y-126870819D02*
X153582762Y-127013676D01*
X153582762Y-127013676D02*
X153487524Y-127108914D01*
X153487524Y-127108914D02*
X153392286Y-127156533D01*
X121428095Y-99182819D02*
X121428095Y-99992342D01*
X121428095Y-99992342D02*
X121475714Y-100087580D01*
X121475714Y-100087580D02*
X121523333Y-100135200D01*
X121523333Y-100135200D02*
X121618571Y-100182819D01*
X121618571Y-100182819D02*
X121809047Y-100182819D01*
X121809047Y-100182819D02*
X121904285Y-100135200D01*
X121904285Y-100135200D02*
X121951904Y-100087580D01*
X121951904Y-100087580D02*
X121999523Y-99992342D01*
X121999523Y-99992342D02*
X121999523Y-99182819D01*
X122999523Y-100182819D02*
X122428095Y-100182819D01*
X122713809Y-100182819D02*
X122713809Y-99182819D01*
X122713809Y-99182819D02*
X122618571Y-99325676D01*
X122618571Y-99325676D02*
X122523333Y-99420914D01*
X122523333Y-99420914D02*
X122428095Y-99468533D01*
X150471333Y-121012819D02*
X150138000Y-120536628D01*
X149899905Y-121012819D02*
X149899905Y-120012819D01*
X149899905Y-120012819D02*
X150280857Y-120012819D01*
X150280857Y-120012819D02*
X150376095Y-120060438D01*
X150376095Y-120060438D02*
X150423714Y-120108057D01*
X150423714Y-120108057D02*
X150471333Y-120203295D01*
X150471333Y-120203295D02*
X150471333Y-120346152D01*
X150471333Y-120346152D02*
X150423714Y-120441390D01*
X150423714Y-120441390D02*
X150376095Y-120489009D01*
X150376095Y-120489009D02*
X150280857Y-120536628D01*
X150280857Y-120536628D02*
X149899905Y-120536628D01*
X150852286Y-120108057D02*
X150899905Y-120060438D01*
X150899905Y-120060438D02*
X150995143Y-120012819D01*
X150995143Y-120012819D02*
X151233238Y-120012819D01*
X151233238Y-120012819D02*
X151328476Y-120060438D01*
X151328476Y-120060438D02*
X151376095Y-120108057D01*
X151376095Y-120108057D02*
X151423714Y-120203295D01*
X151423714Y-120203295D02*
X151423714Y-120298533D01*
X151423714Y-120298533D02*
X151376095Y-120441390D01*
X151376095Y-120441390D02*
X150804667Y-121012819D01*
X150804667Y-121012819D02*
X151423714Y-121012819D01*
X159274095Y-99586819D02*
X159274095Y-100396342D01*
X159274095Y-100396342D02*
X159321714Y-100491580D01*
X159321714Y-100491580D02*
X159369333Y-100539200D01*
X159369333Y-100539200D02*
X159464571Y-100586819D01*
X159464571Y-100586819D02*
X159655047Y-100586819D01*
X159655047Y-100586819D02*
X159750285Y-100539200D01*
X159750285Y-100539200D02*
X159797904Y-100491580D01*
X159797904Y-100491580D02*
X159845523Y-100396342D01*
X159845523Y-100396342D02*
X159845523Y-99586819D01*
X160226476Y-99586819D02*
X160845523Y-99586819D01*
X160845523Y-99586819D02*
X160512190Y-99967771D01*
X160512190Y-99967771D02*
X160655047Y-99967771D01*
X160655047Y-99967771D02*
X160750285Y-100015390D01*
X160750285Y-100015390D02*
X160797904Y-100063009D01*
X160797904Y-100063009D02*
X160845523Y-100158247D01*
X160845523Y-100158247D02*
X160845523Y-100396342D01*
X160845523Y-100396342D02*
X160797904Y-100491580D01*
X160797904Y-100491580D02*
X160750285Y-100539200D01*
X160750285Y-100539200D02*
X160655047Y-100586819D01*
X160655047Y-100586819D02*
X160369333Y-100586819D01*
X160369333Y-100586819D02*
X160274095Y-100539200D01*
X160274095Y-100539200D02*
X160226476Y-100491580D01*
D14*
X157683000Y-134878000D02*
X157683000Y-135618000D01*
X157683000Y-135618000D02*
X158183000Y-135618000D01*
X157923000Y-125457000D02*
X157923000Y-135378000D01*
X157923000Y-125457000D02*
X173283000Y-125457000D01*
X157923000Y-128417000D02*
X173283000Y-128417000D01*
X157923000Y-133318000D02*
X173283000Y-133318000D01*
X157923000Y-134818000D02*
X173283000Y-134818000D01*
X157923000Y-135378000D02*
X173283000Y-135378000D01*
X164376000Y-131741000D02*
X164329000Y-131787000D01*
X164569000Y-131957000D02*
X164534000Y-131992000D01*
X166673000Y-129443000D02*
X166638000Y-129479000D01*
X166878000Y-129649000D02*
X166831000Y-129695000D01*
X169456000Y-131741000D02*
X169409000Y-131787000D01*
X169649000Y-131957000D02*
X169614000Y-131992000D01*
X171753000Y-129443000D02*
X171718000Y-129479000D01*
X171958000Y-129649000D02*
X171911000Y-129695000D01*
X173283000Y-125457000D02*
X173283000Y-135378000D01*
X158987573Y-131401042D02*
G75*
G02*
X158988000Y-130034000I1535420J683041D01*
G01*
X159839958Y-129182573D02*
G75*
G02*
X161207000Y-129183000I683041J-1535420D01*
G01*
X160551805Y-132398253D02*
G75*
G02*
X159839000Y-132253000I-28806J1680254D01*
G01*
X161206318Y-132252756D02*
G75*
G02*
X160523000Y-132398000I-683318J1534756D01*
G01*
X162058427Y-130034958D02*
G75*
G02*
X162058000Y-131402000I-1535427J-683042D01*
G01*
X167283000Y-130718000D02*
G75*
G02*
X163923000Y-130718000I-1680000J0D01*
G01*
X163923000Y-130718000D02*
G75*
G02*
X167283000Y-130718000I1680000J0D01*
G01*
X172363000Y-130718000D02*
G75*
G02*
X169003000Y-130718000I-1680000J0D01*
G01*
X169003000Y-130718000D02*
G75*
G02*
X172363000Y-130718000I1680000J0D01*
G01*
X154726000Y-93380000D02*
X155496000Y-93380000D01*
X155496000Y-92010000D02*
X155496000Y-94750000D01*
X155496000Y-94750000D02*
X162036000Y-94750000D01*
X162036000Y-92010000D02*
X155496000Y-92010000D01*
X162036000Y-94750000D02*
X162036000Y-92010000D01*
X162806000Y-93380000D02*
X162036000Y-93380000D01*
X133037000Y-92558000D02*
X133037000Y-95218000D01*
X138177000Y-92558000D02*
X133037000Y-92558000D01*
X138177000Y-92558000D02*
X138177000Y-95218000D01*
X138177000Y-95218000D02*
X133037000Y-95218000D01*
X139447000Y-92558000D02*
X140777000Y-92558000D01*
X140777000Y-92558000D02*
X140777000Y-93888000D01*
X163237000Y-95508000D02*
X164495000Y-95508000D01*
X163237000Y-97348000D02*
X164495000Y-97348000D01*
D15*
X147360000Y-100258000D02*
X147360000Y-100613000D01*
X147360000Y-100258000D02*
X151360000Y-100258000D01*
X147360000Y-102758000D02*
X147360000Y-102403000D01*
X147360000Y-102758000D02*
X151360000Y-102758000D01*
X151360000Y-100258000D02*
X151360000Y-100613000D01*
X151360000Y-102758000D02*
X151360000Y-102403000D01*
D14*
X122819000Y-90936000D02*
X121561000Y-90936000D01*
X122819000Y-92776000D02*
X121561000Y-92776000D01*
X124146000Y-84014000D02*
X175066000Y-84014000D01*
X124146000Y-86614000D02*
X124146000Y-84014000D01*
X124146000Y-86614000D02*
X126746000Y-86614000D01*
X124206000Y-89154000D02*
X124206000Y-87824000D01*
X124206000Y-89154000D02*
X125536000Y-89154000D01*
X126746000Y-89184000D02*
X126746000Y-86614000D01*
X126746000Y-89184000D02*
X175066000Y-89214000D01*
X175066000Y-89214000D02*
X175066000Y-84014000D01*
X130018000Y-135021000D02*
X130018000Y-135761000D01*
X130018000Y-135761000D02*
X130518000Y-135761000D01*
X130258000Y-125600000D02*
X130258000Y-135521000D01*
X130258000Y-125600000D02*
X150698000Y-125600000D01*
X130258000Y-128560000D02*
X150698000Y-128560000D01*
X130258000Y-133461000D02*
X150698000Y-133461000D01*
X130258000Y-134961000D02*
X150698000Y-134961000D01*
X130258000Y-135521000D02*
X150698000Y-135521000D01*
X136711000Y-131884000D02*
X136664000Y-131930000D01*
X136904000Y-132100000D02*
X136869000Y-132135000D01*
X139008000Y-129586000D02*
X138973000Y-129622000D01*
X139213000Y-129792000D02*
X139166000Y-129838000D01*
X141791000Y-131884000D02*
X141744000Y-131930000D01*
X141984000Y-132100000D02*
X141949000Y-132135000D01*
X144088000Y-129586000D02*
X144053000Y-129622000D01*
X144293000Y-129792000D02*
X144246000Y-129838000D01*
X146871000Y-131884000D02*
X146824000Y-131930000D01*
X147064000Y-132100000D02*
X147029000Y-132135000D01*
X149168000Y-129586000D02*
X149133000Y-129622000D01*
X149373000Y-129792000D02*
X149326000Y-129838000D01*
X150698000Y-125600000D02*
X150698000Y-135521000D01*
X131322573Y-131544042D02*
G75*
G02*
X131323000Y-130177000I1535420J683041D01*
G01*
X132174958Y-129325573D02*
G75*
G02*
X133542000Y-129326000I683041J-1535420D01*
G01*
X132886805Y-132541253D02*
G75*
G02*
X132174000Y-132396000I-28806J1680254D01*
G01*
X133541318Y-132395756D02*
G75*
G02*
X132858000Y-132541000I-683318J1534756D01*
G01*
X134393427Y-130177958D02*
G75*
G02*
X134393000Y-131545000I-1535427J-683042D01*
G01*
X139618000Y-130861000D02*
G75*
G02*
X136258000Y-130861000I-1680000J0D01*
G01*
X136258000Y-130861000D02*
G75*
G02*
X139618000Y-130861000I1680000J0D01*
G01*
X144698000Y-130861000D02*
G75*
G02*
X141338000Y-130861000I-1680000J0D01*
G01*
X141338000Y-130861000D02*
G75*
G02*
X144698000Y-130861000I1680000J0D01*
G01*
X149778000Y-130861000D02*
G75*
G02*
X146418000Y-130861000I-1680000J0D01*
G01*
X146418000Y-130861000D02*
G75*
G02*
X149778000Y-130861000I1680000J0D01*
G01*
X143700000Y-93190000D02*
X144960000Y-93190000D01*
X143700000Y-96950000D02*
X143700000Y-93190000D01*
X150520000Y-93190000D02*
X149260000Y-93190000D01*
X150520000Y-96950000D02*
X150520000Y-93190000D01*
X143800000Y-98230000D02*
X143470000Y-98470000D01*
X143470000Y-97990000D01*
X143800000Y-98230000D01*
G36*
X143800000Y-98230000D02*
G01*
X143470000Y-98470000D01*
X143470000Y-97990000D01*
X143800000Y-98230000D01*
G37*
X148436000Y-109176000D02*
X142736000Y-109176000D01*
X148436000Y-109176000D02*
X148436000Y-115176000D01*
X148436000Y-115176000D02*
X142736000Y-115176000D01*
X119540329Y-112176000D02*
G75*
G02*
X141986000Y-108676000I11495715J11D01*
G01*
X141986000Y-115676000D02*
G75*
G02*
X119540329Y-112176000I-10949956J3499989D01*
G01*
X141986000Y-115676000D02*
G75*
G02*
X142736000Y-115176000I750000J-312500D01*
G01*
X142736000Y-109176000D02*
G75*
G02*
X141986000Y-108676000I0J812500D01*
G01*
D15*
X142860000Y-100258000D02*
X142860000Y-100613000D01*
X142860000Y-102758000D02*
X142860000Y-102403000D01*
X146860000Y-100258000D02*
X142860000Y-100258000D01*
X146860000Y-100258000D02*
X146860000Y-100613000D01*
X146860000Y-102758000D02*
X142860000Y-102758000D01*
X146860000Y-102758000D02*
X146860000Y-102403000D01*
D14*
X127366000Y-130351000D02*
X127366000Y-129093000D01*
X129206000Y-130351000D02*
X129206000Y-129093000D01*
X152872000Y-129228000D02*
X152872000Y-129384000D01*
X152872000Y-131544000D02*
X152872000Y-131700000D01*
X152872000Y-129228484D02*
G75*
G02*
X156104335Y-129385392I1560000J-1235516D01*
G01*
X153391039Y-129384000D02*
G75*
G02*
X155473130Y-129384163I1040961J-1080000D01*
G01*
X155473130Y-131543837D02*
G75*
G02*
X153391039Y-131544000I-1041130J1079837D01*
G01*
X156104335Y-131542608D02*
G75*
G02*
X152872000Y-131699516I-1672335J1078608D01*
G01*
X122190000Y-93612000D02*
X120240000Y-93612000D01*
X122190000Y-93612000D02*
X124140000Y-93612000D01*
X122190000Y-98732000D02*
X120240000Y-98732000D01*
X122190000Y-98732000D02*
X124140000Y-98732000D01*
X119490000Y-93707000D02*
X119250000Y-93377000D01*
X119730000Y-93377000D01*
X119490000Y-93707000D01*
G36*
X119490000Y-93707000D02*
G01*
X119250000Y-93377000D01*
X119730000Y-93377000D01*
X119490000Y-93707000D01*
G37*
X146598000Y-122844000D02*
X147368000Y-122844000D01*
X147368000Y-121474000D02*
X147368000Y-124214000D01*
X147368000Y-124214000D02*
X153908000Y-124214000D01*
X153908000Y-121474000D02*
X147368000Y-121474000D01*
X153908000Y-124214000D02*
X153908000Y-121474000D01*
X154678000Y-122844000D02*
X153908000Y-122844000D01*
X165646000Y-98028000D02*
X162046000Y-98028000D01*
X163846000Y-102478000D02*
G75*
G02*
X162007522Y-98039522I0J2600000D01*
G01*
X165684478Y-98039522D02*
G75*
G02*
X163846000Y-102478001I-1838478J-1838478D01*
G01*
%LPC*%
D16*
X160523000Y-130718000D03*
D17*
X165603000Y-130718000D03*
X170683000Y-130718000D03*
D18*
X153686000Y-93380000D03*
D19*
X163846000Y-93380000D03*
D20*
X178610000Y-86600000D03*
D21*
X139447000Y-93888000D03*
D22*
X136907000Y-93888000D03*
X134367000Y-93888000D03*
D18*
X162616000Y-96428000D03*
X165116000Y-96428000D03*
D23*
X148110000Y-101508000D03*
X150610000Y-101508000D03*
D18*
X123440000Y-91856000D03*
X120940000Y-91856000D03*
D21*
X125476000Y-87884000D03*
D22*
X125476000Y-85344000D03*
X128016000Y-87884000D03*
X128016000Y-85344000D03*
X130556000Y-87884000D03*
X130556000Y-85344000D03*
X133096000Y-87884000D03*
X133096000Y-85344000D03*
X135636000Y-87884000D03*
X135636000Y-85344000D03*
X138176000Y-87884000D03*
X138176000Y-85344000D03*
X140716000Y-87884000D03*
X140716000Y-85344000D03*
X143256000Y-87884000D03*
X143256000Y-85344000D03*
X145796000Y-87884000D03*
X145796000Y-85344000D03*
X148336000Y-87884000D03*
X148336000Y-85344000D03*
X150876000Y-87884000D03*
X150876000Y-85344000D03*
X153416000Y-87884000D03*
X153416000Y-85344000D03*
X155956000Y-87884000D03*
X155956000Y-85344000D03*
X158496000Y-87884000D03*
X158496000Y-85344000D03*
X161036000Y-87884000D03*
X161036000Y-85344000D03*
X163576000Y-87884000D03*
X163576000Y-85344000D03*
X166116000Y-87884000D03*
X166116000Y-85344000D03*
X168656000Y-87884000D03*
X168656000Y-85344000D03*
X171196000Y-87884000D03*
X171196000Y-85344000D03*
X173736000Y-87884000D03*
X173736000Y-85344000D03*
D16*
X132858000Y-130861000D03*
D17*
X137938000Y-130861000D03*
X143018000Y-130861000D03*
X148098000Y-130861000D03*
D20*
X120610000Y-135600000D03*
D24*
X144810000Y-98250000D03*
X147110000Y-98250000D03*
D25*
X147110000Y-91950000D03*
D24*
X149410000Y-98250000D03*
D20*
X178610000Y-135600000D03*
X120610000Y-86600000D03*
D26*
X146236000Y-112176000D03*
D27*
X125746000Y-112176000D03*
D23*
X146110000Y-101508000D03*
X143610000Y-101508000D03*
D18*
X128286000Y-130972000D03*
X128286000Y-128472000D03*
D28*
X153162000Y-130464000D03*
D29*
X155702000Y-130464000D03*
D30*
X119715000Y-94267000D03*
X119715000Y-95537000D03*
X119715000Y-96807000D03*
X119715000Y-98077000D03*
X124665000Y-98077000D03*
X124665000Y-96807000D03*
X124665000Y-95537000D03*
X124665000Y-94267000D03*
D18*
X155718000Y-122844000D03*
D19*
X145558000Y-122844000D03*
D31*
X165116000Y-99878000D03*
D32*
X163846000Y-99878000D03*
X162576000Y-99878000D03*
%LPD*%
M02*
