G04 #@! TF.GenerationSoftware,KiCad,Pcbnew,8.0.4*
G04 #@! TF.CreationDate,2024-07-21T17:31:12-07:00*
G04 #@! TF.ProjectId,RPi_RTC_Interface,5250695f-5254-4435-9f49-6e7465726661,V1.0*
G04 #@! TF.SameCoordinates,Original*
G04 #@! TF.FileFunction,Copper,L1,Top*
G04 #@! TF.FilePolarity,Positive*
%FSLAX46Y46*%
G04 Gerber Fmt 4.6, Leading zero omitted, Abs format (unit mm)*
G04 Created by KiCad (PCBNEW 8.0.4) date 2024-07-21 17:31:12*
%MOMM*%
%LPD*%
G01*
G04 APERTURE LIST*
G04 Aperture macros list*
%AMRoundRect*
0 Rectangle with rounded corners*
0 $1 Rounding radius*
0 $2 $3 $4 $5 $6 $7 $8 $9 X,Y pos of 4 corners*
0 Add a 4 corners polygon primitive as box body*
4,1,4,$2,$3,$4,$5,$6,$7,$8,$9,$2,$3,0*
0 Add four circle primitives for the rounded corners*
1,1,$1+$1,$2,$3*
1,1,$1+$1,$4,$5*
1,1,$1+$1,$6,$7*
1,1,$1+$1,$8,$9*
0 Add four rect primitives between the rounded corners*
20,1,$1+$1,$2,$3,$4,$5,0*
20,1,$1+$1,$4,$5,$6,$7,0*
20,1,$1+$1,$6,$7,$8,$9,0*
20,1,$1+$1,$8,$9,$2,$3,0*%
G04 Aperture macros list end*
%ADD10C,0.250000*%
G04 #@! TA.AperFunction,NonConductor*
%ADD11C,0.250000*%
G04 #@! TD*
G04 #@! TA.AperFunction,ComponentPad*
%ADD12R,2.600000X2.600000*%
G04 #@! TD*
G04 #@! TA.AperFunction,ComponentPad*
%ADD13C,2.600000*%
G04 #@! TD*
G04 #@! TA.AperFunction,ComponentPad*
%ADD14C,1.600000*%
G04 #@! TD*
G04 #@! TA.AperFunction,ComponentPad*
%ADD15O,1.600000X1.600000*%
G04 #@! TD*
G04 #@! TA.AperFunction,ComponentPad*
%ADD16R,1.700000X1.700000*%
G04 #@! TD*
G04 #@! TA.AperFunction,ComponentPad*
%ADD17O,1.700000X1.700000*%
G04 #@! TD*
G04 #@! TA.AperFunction,ComponentPad*
%ADD18C,1.150000*%
G04 #@! TD*
G04 #@! TA.AperFunction,SMDPad,CuDef*
%ADD19RoundRect,0.375000X0.375000X-0.625000X0.375000X0.625000X-0.375000X0.625000X-0.375000X-0.625000X0*%
G04 #@! TD*
G04 #@! TA.AperFunction,SMDPad,CuDef*
%ADD20RoundRect,0.500000X1.400000X-0.500000X1.400000X0.500000X-1.400000X0.500000X-1.400000X-0.500000X0*%
G04 #@! TD*
G04 #@! TA.AperFunction,ComponentPad*
%ADD21R,3.000000X3.000000*%
G04 #@! TD*
G04 #@! TA.AperFunction,ComponentPad*
%ADD22C,3.000000*%
G04 #@! TD*
G04 #@! TA.AperFunction,ComponentPad*
%ADD23R,1.800000X1.800000*%
G04 #@! TD*
G04 #@! TA.AperFunction,ComponentPad*
%ADD24C,1.800000*%
G04 #@! TD*
G04 #@! TA.AperFunction,SMDPad,CuDef*
%ADD25RoundRect,0.150000X-0.825000X-0.150000X0.825000X-0.150000X0.825000X0.150000X-0.825000X0.150000X0*%
G04 #@! TD*
G04 #@! TA.AperFunction,ComponentPad*
%ADD26R,1.050000X1.500000*%
G04 #@! TD*
G04 #@! TA.AperFunction,ComponentPad*
%ADD27O,1.050000X1.500000*%
G04 #@! TD*
G04 #@! TA.AperFunction,ViaPad*
%ADD28C,0.600000*%
G04 #@! TD*
G04 #@! TA.AperFunction,Conductor*
%ADD29C,0.609600*%
G04 #@! TD*
G04 #@! TA.AperFunction,Conductor*
%ADD30C,0.762000*%
G04 #@! TD*
G04 #@! TA.AperFunction,Conductor*
%ADD31C,0.355600*%
G04 #@! TD*
G04 #@! TA.AperFunction,Conductor*
%ADD32C,0.812800*%
G04 #@! TD*
G04 APERTURE END LIST*
D10*
D11*
X167359996Y-91117380D02*
X167312377Y-91165000D01*
X167312377Y-91165000D02*
X167169520Y-91212619D01*
X167169520Y-91212619D02*
X167074282Y-91212619D01*
X167074282Y-91212619D02*
X166931425Y-91165000D01*
X166931425Y-91165000D02*
X166836187Y-91069761D01*
X166836187Y-91069761D02*
X166788568Y-90974523D01*
X166788568Y-90974523D02*
X166740949Y-90784047D01*
X166740949Y-90784047D02*
X166740949Y-90641190D01*
X166740949Y-90641190D02*
X166788568Y-90450714D01*
X166788568Y-90450714D02*
X166836187Y-90355476D01*
X166836187Y-90355476D02*
X166931425Y-90260238D01*
X166931425Y-90260238D02*
X167074282Y-90212619D01*
X167074282Y-90212619D02*
X167169520Y-90212619D01*
X167169520Y-90212619D02*
X167312377Y-90260238D01*
X167312377Y-90260238D02*
X167359996Y-90307857D01*
X167979044Y-90212619D02*
X168169520Y-90212619D01*
X168169520Y-90212619D02*
X168264758Y-90260238D01*
X168264758Y-90260238D02*
X168359996Y-90355476D01*
X168359996Y-90355476D02*
X168407615Y-90545952D01*
X168407615Y-90545952D02*
X168407615Y-90879285D01*
X168407615Y-90879285D02*
X168359996Y-91069761D01*
X168359996Y-91069761D02*
X168264758Y-91165000D01*
X168264758Y-91165000D02*
X168169520Y-91212619D01*
X168169520Y-91212619D02*
X167979044Y-91212619D01*
X167979044Y-91212619D02*
X167883806Y-91165000D01*
X167883806Y-91165000D02*
X167788568Y-91069761D01*
X167788568Y-91069761D02*
X167740949Y-90879285D01*
X167740949Y-90879285D02*
X167740949Y-90545952D01*
X167740949Y-90545952D02*
X167788568Y-90355476D01*
X167788568Y-90355476D02*
X167883806Y-90260238D01*
X167883806Y-90260238D02*
X167979044Y-90212619D01*
X168836187Y-91212619D02*
X168836187Y-90212619D01*
X168836187Y-90212619D02*
X169169520Y-90926904D01*
X169169520Y-90926904D02*
X169502853Y-90212619D01*
X169502853Y-90212619D02*
X169502853Y-91212619D01*
X169979044Y-91212619D02*
X169979044Y-90212619D01*
X169979044Y-90212619D02*
X170359996Y-90212619D01*
X170359996Y-90212619D02*
X170455234Y-90260238D01*
X170455234Y-90260238D02*
X170502853Y-90307857D01*
X170502853Y-90307857D02*
X170550472Y-90403095D01*
X170550472Y-90403095D02*
X170550472Y-90545952D01*
X170550472Y-90545952D02*
X170502853Y-90641190D01*
X170502853Y-90641190D02*
X170455234Y-90688809D01*
X170455234Y-90688809D02*
X170359996Y-90736428D01*
X170359996Y-90736428D02*
X169979044Y-90736428D01*
X170979044Y-91117380D02*
X171026663Y-91165000D01*
X171026663Y-91165000D02*
X170979044Y-91212619D01*
X170979044Y-91212619D02*
X170931425Y-91165000D01*
X170931425Y-91165000D02*
X170979044Y-91117380D01*
X170979044Y-91117380D02*
X170979044Y-91212619D01*
X172169520Y-91165000D02*
X172312377Y-91212619D01*
X172312377Y-91212619D02*
X172550472Y-91212619D01*
X172550472Y-91212619D02*
X172645710Y-91165000D01*
X172645710Y-91165000D02*
X172693329Y-91117380D01*
X172693329Y-91117380D02*
X172740948Y-91022142D01*
X172740948Y-91022142D02*
X172740948Y-90926904D01*
X172740948Y-90926904D02*
X172693329Y-90831666D01*
X172693329Y-90831666D02*
X172645710Y-90784047D01*
X172645710Y-90784047D02*
X172550472Y-90736428D01*
X172550472Y-90736428D02*
X172359996Y-90688809D01*
X172359996Y-90688809D02*
X172264758Y-90641190D01*
X172264758Y-90641190D02*
X172217139Y-90593571D01*
X172217139Y-90593571D02*
X172169520Y-90498333D01*
X172169520Y-90498333D02*
X172169520Y-90403095D01*
X172169520Y-90403095D02*
X172217139Y-90307857D01*
X172217139Y-90307857D02*
X172264758Y-90260238D01*
X172264758Y-90260238D02*
X172359996Y-90212619D01*
X172359996Y-90212619D02*
X172598091Y-90212619D01*
X172598091Y-90212619D02*
X172740948Y-90260238D01*
X173169520Y-91212619D02*
X173169520Y-90212619D01*
X173645710Y-91212619D02*
X173645710Y-90212619D01*
X173645710Y-90212619D02*
X173883805Y-90212619D01*
X173883805Y-90212619D02*
X174026662Y-90260238D01*
X174026662Y-90260238D02*
X174121900Y-90355476D01*
X174121900Y-90355476D02*
X174169519Y-90450714D01*
X174169519Y-90450714D02*
X174217138Y-90641190D01*
X174217138Y-90641190D02*
X174217138Y-90784047D01*
X174217138Y-90784047D02*
X174169519Y-90974523D01*
X174169519Y-90974523D02*
X174121900Y-91069761D01*
X174121900Y-91069761D02*
X174026662Y-91165000D01*
X174026662Y-91165000D02*
X173883805Y-91212619D01*
X173883805Y-91212619D02*
X173645710Y-91212619D01*
X174645710Y-90688809D02*
X174979043Y-90688809D01*
X175121900Y-91212619D02*
X174645710Y-91212619D01*
X174645710Y-91212619D02*
X174645710Y-90212619D01*
X174645710Y-90212619D02*
X175121900Y-90212619D01*
D12*
X160523000Y-130718000D03*
D13*
X165603000Y-130718000D03*
X170683000Y-130718000D03*
D14*
X153686000Y-93380000D03*
D15*
X163846000Y-93380000D03*
D16*
X139447000Y-93888000D03*
D17*
X136907000Y-93888000D03*
X134367000Y-93888000D03*
D14*
X162616000Y-96428000D03*
X165116000Y-96428000D03*
D18*
X148110000Y-101508000D03*
X150610000Y-101508000D03*
D14*
X123440000Y-91856000D03*
X120940000Y-91856000D03*
D16*
X125476000Y-87884000D03*
D17*
X125476000Y-85344000D03*
X128016000Y-87884000D03*
X128016000Y-85344000D03*
X130556000Y-87884000D03*
X130556000Y-85344000D03*
X133096000Y-87884000D03*
X133096000Y-85344000D03*
X135636000Y-87884000D03*
X135636000Y-85344000D03*
X138176000Y-87884000D03*
X138176000Y-85344000D03*
X140716000Y-87884000D03*
X140716000Y-85344000D03*
X143256000Y-87884000D03*
X143256000Y-85344000D03*
X145796000Y-87884000D03*
X145796000Y-85344000D03*
X148336000Y-87884000D03*
X148336000Y-85344000D03*
X150876000Y-87884000D03*
X150876000Y-85344000D03*
X153416000Y-87884000D03*
X153416000Y-85344000D03*
X155956000Y-87884000D03*
X155956000Y-85344000D03*
X158496000Y-87884000D03*
X158496000Y-85344000D03*
X161036000Y-87884000D03*
X161036000Y-85344000D03*
X163576000Y-87884000D03*
X163576000Y-85344000D03*
X166116000Y-87884000D03*
X166116000Y-85344000D03*
X168656000Y-87884000D03*
X168656000Y-85344000D03*
X171196000Y-87884000D03*
X171196000Y-85344000D03*
X173736000Y-87884000D03*
X173736000Y-85344000D03*
D12*
X132858000Y-130861000D03*
D13*
X137938000Y-130861000D03*
X143018000Y-130861000D03*
X148098000Y-130861000D03*
D19*
X144810000Y-98250000D03*
X147110000Y-98250000D03*
D20*
X147110000Y-91950000D03*
D19*
X149410000Y-98250000D03*
D21*
X146236000Y-112176000D03*
D22*
X125746000Y-112176000D03*
D18*
X146110000Y-101508000D03*
X143610000Y-101508000D03*
D14*
X128286000Y-130972000D03*
X128286000Y-128472000D03*
D23*
X153162000Y-130464000D03*
D24*
X155702000Y-130464000D03*
D25*
X119715000Y-94267000D03*
X119715000Y-95537000D03*
X119715000Y-96807000D03*
X119715000Y-98077000D03*
X124665000Y-98077000D03*
X124665000Y-96807000D03*
X124665000Y-95537000D03*
X124665000Y-94267000D03*
D14*
X155718000Y-122844000D03*
D15*
X145558000Y-122844000D03*
D26*
X165116000Y-99878000D03*
D27*
X163846000Y-99878000D03*
X162576000Y-99878000D03*
D28*
X130556000Y-94288000D03*
X128016000Y-95538000D03*
X145812000Y-91348000D03*
X147082000Y-91348000D03*
X145812000Y-92364000D03*
X148352000Y-92364000D03*
X147082000Y-92364000D03*
X148352000Y-91348000D03*
D29*
X144810000Y-99900000D02*
X143610000Y-101100000D01*
X125544000Y-91400000D02*
X142210000Y-91400000D01*
X123968000Y-89824000D02*
X125544000Y-91400000D01*
X142210000Y-91400000D02*
X144810000Y-94000000D01*
X123968000Y-86852000D02*
X123968000Y-89824000D01*
X125476000Y-85344000D02*
X123968000Y-86852000D01*
X144810000Y-94000000D02*
X144810000Y-99900000D01*
D30*
X140875000Y-122844000D02*
X132858000Y-130861000D01*
X151883113Y-121852887D02*
X150892000Y-122844000D01*
X151883113Y-101508000D02*
X151883113Y-121852887D01*
X150610000Y-99200000D02*
X149410000Y-98000000D01*
X153686000Y-93380000D02*
X161052000Y-93380000D01*
X150610000Y-101508000D02*
X151883113Y-101508000D01*
X162616000Y-94944000D02*
X162616000Y-96428000D01*
X153686000Y-93380000D02*
X151883113Y-95182887D01*
X145558000Y-122844000D02*
X140875000Y-122844000D01*
X128286000Y-130972000D02*
X132747000Y-130972000D01*
X137368000Y-135128000D02*
X156113000Y-135128000D01*
X151883113Y-95182887D02*
X151883113Y-101508000D01*
X150892000Y-122844000D02*
X145558000Y-122844000D01*
X133101000Y-130861000D02*
X137368000Y-135128000D01*
X156113000Y-135128000D02*
X160523000Y-130718000D01*
X150610000Y-101100000D02*
X150610000Y-99200000D01*
X161052000Y-93380000D02*
X162616000Y-94944000D01*
X162616000Y-96428000D02*
X162616000Y-99838000D01*
D31*
X124665000Y-94267000D02*
X130535000Y-94267000D01*
X130535000Y-94267000D02*
X130556000Y-94288000D01*
X128015000Y-95537000D02*
X128016000Y-95538000D01*
X124665000Y-95537000D02*
X128015000Y-95537000D01*
X163846000Y-128961000D02*
X165603000Y-130718000D01*
X133100000Y-87870000D02*
X133100000Y-89666000D01*
X163846000Y-91602000D02*
X163846000Y-128961000D01*
X133604000Y-90170000D02*
X162414000Y-90170000D01*
X162414000Y-90170000D02*
X163846000Y-91602000D01*
X133100000Y-89666000D02*
X133604000Y-90170000D01*
X123331000Y-98077000D02*
X124665000Y-98077000D01*
X122952000Y-97698000D02*
X123331000Y-98077000D01*
D32*
X147110000Y-100508000D02*
X148110000Y-101508000D01*
D31*
X122952000Y-92344000D02*
X122952000Y-97698000D01*
X123440000Y-91856000D02*
X122952000Y-92344000D01*
D32*
X147082000Y-98714000D02*
X147110000Y-100508000D01*
X146110000Y-101508000D02*
X147110000Y-100508000D01*
D31*
X126887000Y-96807000D02*
X142256000Y-112176000D01*
X124665000Y-96807000D02*
X126887000Y-96807000D01*
X142256000Y-112176000D02*
X146236000Y-112176000D01*
X155718000Y-122844000D02*
X155718000Y-130448000D01*
X120742499Y-95537000D02*
X119715000Y-95537000D01*
X121428000Y-94851499D02*
X120742499Y-95537000D01*
X121428000Y-92344000D02*
X121428000Y-94851499D01*
X120940000Y-91856000D02*
X121428000Y-92344000D01*
D29*
X128020000Y-85330000D02*
X125480000Y-85330000D01*
M02*
