M48
; DRILL file {KiCad 8.0.4} date 2024-07-21T17:31:17-0700
; FORMAT={-:-/ absolute / metric / decimal}
; #@! TF.CreationDate,2024-07-21T17:31:17-07:00
; #@! TF.GenerationSoftware,Kicad,Pcbnew,8.0.4
; #@! TF.FileFunction,Plated,1,2,PTH
FMAT,2
METRIC
; #@! TA.AperFunction,Plated,PTH,ViaDrill
T1C0.300
; #@! TA.AperFunction,Plated,PTH,ComponentDrill
T2C0.750
; #@! TA.AperFunction,Plated,PTH,ComponentDrill
T3C0.800
; #@! TA.AperFunction,Plated,PTH,ComponentDrill
T4C0.900
; #@! TA.AperFunction,Plated,PTH,ComponentDrill
T5C1.000
; #@! TA.AperFunction,Plated,PTH,ComponentDrill
T6C1.300
; #@! TA.AperFunction,Plated,PTH,ComponentDrill
T7C1.500
%
G90
G05
T1
X128.016Y-95.538
X130.556Y-94.288
X145.812Y-91.348
X145.812Y-92.364
X147.082Y-91.348
X147.082Y-92.364
X148.352Y-91.348
X148.352Y-92.364
T2
X162.576Y-99.878
X163.846Y-99.878
X165.116Y-99.878
T3
X120.94Y-91.856
X123.44Y-91.856
X128.286Y-128.472
X128.286Y-130.972
X143.61Y-101.508
X145.558Y-122.844
X146.11Y-101.508
X148.11Y-101.508
X150.61Y-101.508
X153.686Y-93.38
X155.718Y-122.844
X162.616Y-96.428
X163.846Y-93.38
X165.116Y-96.428
T4
X153.162Y-130.464
X155.702Y-130.464
T5
X125.476Y-85.344
X125.476Y-87.884
X128.016Y-85.344
X128.016Y-87.884
X130.556Y-85.344
X130.556Y-87.884
X133.096Y-85.344
X133.096Y-87.884
X134.367Y-93.888
X135.636Y-85.344
X135.636Y-87.884
X136.907Y-93.888
X138.176Y-85.344
X138.176Y-87.884
X139.447Y-93.888
X140.716Y-85.344
X140.716Y-87.884
X143.256Y-85.344
X143.256Y-87.884
X145.796Y-85.344
X145.796Y-87.884
X148.336Y-85.344
X148.336Y-87.884
X150.876Y-85.344
X150.876Y-87.884
X153.416Y-85.344
X153.416Y-87.884
X155.956Y-85.344
X155.956Y-87.884
X158.496Y-85.344
X158.496Y-87.884
X161.036Y-85.344
X161.036Y-87.884
X163.576Y-85.344
X163.576Y-87.884
X166.116Y-85.344
X166.116Y-87.884
X168.656Y-85.344
X168.656Y-87.884
X171.196Y-85.344
X171.196Y-87.884
X173.736Y-85.344
X173.736Y-87.884
T6
X132.858Y-130.861
X137.938Y-130.861
X143.018Y-130.861
X148.098Y-130.861
X160.523Y-130.718
X165.603Y-130.718
X170.683Y-130.718
T7
X125.746Y-112.176
X146.236Y-112.176
M30
