%TF.GenerationSoftware,KiCad,Pcbnew,8.0.4*%
%TF.CreationDate,2024-07-21T17:31:19-07:00*%
%TF.ProjectId,RPi_RTC_Interface,5250695f-5254-4435-9f49-6e7465726661,V1.0*%
%TF.SameCoordinates,Original*%
%TF.FileFunction,Drillmap*%
%TF.FilePolarity,Positive*%
%FSLAX45Y45*%
G04 Gerber Fmt 4.5, Leading zero omitted, Abs format (unit mm)*
G04 Created by KiCad (PCBNEW 8.0.4) date 2024-07-21 17:31:19*
%MOMM*%
%LPD*%
G01*
G04 APERTURE LIST*
%ADD10C,0.100000*%
%ADD11C,0.200000*%
%ADD12C,0.130000*%
%ADD13C,0.150000*%
G04 APERTURE END LIST*
D10*
X12011000Y-13910000D02*
G75*
G02*
X11711000Y-13610000I0J300000D01*
G01*
X18211000Y-13610000D02*
G75*
G02*
X17911000Y-13910000I-300000J0D01*
G01*
X11711000Y-8610000D02*
G75*
G02*
X12011000Y-8310000I300000J0D01*
G01*
X12011000Y-8310000D02*
X17911000Y-8310000D01*
X17911000Y-8310000D02*
G75*
G02*
X18211000Y-8610000I0J-300000D01*
G01*
X12011000Y-13910000D02*
X17911000Y-13910000D01*
X18211000Y-8610000D02*
X18211000Y-13610000D01*
X11711000Y-8610000D02*
X11711000Y-13610000D01*
D11*
D10*
X12786600Y-9538800D02*
X12816600Y-9568800D01*
X12816600Y-9538800D02*
X12786600Y-9568800D01*
X13040600Y-9413800D02*
X13070600Y-9443800D01*
X13070600Y-9413800D02*
X13040600Y-9443800D01*
X14566200Y-9119800D02*
X14596200Y-9149800D01*
X14596200Y-9119800D02*
X14566200Y-9149800D01*
X14566200Y-9221400D02*
X14596200Y-9251400D01*
X14596200Y-9221400D02*
X14566200Y-9251400D01*
X14693200Y-9119800D02*
X14723200Y-9149800D01*
X14723200Y-9119800D02*
X14693200Y-9149800D01*
X14693200Y-9221400D02*
X14723200Y-9251400D01*
X14723200Y-9221400D02*
X14693200Y-9251400D01*
X14820200Y-9119800D02*
X14850200Y-9149800D01*
X14850200Y-9119800D02*
X14820200Y-9149800D01*
X14820200Y-9221400D02*
X14850200Y-9251400D01*
X14850200Y-9221400D02*
X14820200Y-9251400D01*
X16295100Y-9987800D02*
G75*
G02*
X16220100Y-9987800I-37500J0D01*
G01*
X16220100Y-9987800D02*
G75*
G02*
X16295100Y-9987800I37500J0D01*
G01*
X16422100Y-9987800D02*
G75*
G02*
X16347100Y-9987800I-37500J0D01*
G01*
X16347100Y-9987800D02*
G75*
G02*
X16422100Y-9987800I37500J0D01*
G01*
X16549100Y-9987800D02*
G75*
G02*
X16474100Y-9987800I-37500J0D01*
G01*
X16474100Y-9987800D02*
G75*
G02*
X16549100Y-9987800I37500J0D01*
G01*
X12094000Y-9145600D02*
X12094000Y-9225600D01*
X12054000Y-9185600D02*
X12134000Y-9185600D01*
X12344000Y-9145600D02*
X12344000Y-9225600D01*
X12304000Y-9185600D02*
X12384000Y-9185600D01*
X12828600Y-12807200D02*
X12828600Y-12887200D01*
X12788600Y-12847200D02*
X12868600Y-12847200D01*
X12828600Y-13057200D02*
X12828600Y-13137200D01*
X12788600Y-13097200D02*
X12868600Y-13097200D01*
X14361000Y-10110800D02*
X14361000Y-10190800D01*
X14321000Y-10150800D02*
X14401000Y-10150800D01*
X14555800Y-12244400D02*
X14555800Y-12324400D01*
X14515800Y-12284400D02*
X14595800Y-12284400D01*
X14611000Y-10110800D02*
X14611000Y-10190800D01*
X14571000Y-10150800D02*
X14651000Y-10150800D01*
X14811000Y-10110800D02*
X14811000Y-10190800D01*
X14771000Y-10150800D02*
X14851000Y-10150800D01*
X15061000Y-10110800D02*
X15061000Y-10190800D01*
X15021000Y-10150800D02*
X15101000Y-10150800D01*
X15368600Y-9298000D02*
X15368600Y-9378000D01*
X15328600Y-9338000D02*
X15408600Y-9338000D01*
X15571800Y-12244400D02*
X15571800Y-12324400D01*
X15531800Y-12284400D02*
X15611800Y-12284400D01*
X16261600Y-9602800D02*
X16261600Y-9682800D01*
X16221600Y-9642800D02*
X16301600Y-9642800D01*
X16384600Y-9298000D02*
X16384600Y-9378000D01*
X16344600Y-9338000D02*
X16424600Y-9338000D01*
X16511600Y-9602800D02*
X16511600Y-9682800D01*
X16471600Y-9642800D02*
X16551600Y-9642800D01*
X15348020Y-13078220D02*
X15348020Y-13014580D01*
X15284380Y-13014580D01*
X15284380Y-13078220D01*
X15348020Y-13078220D01*
X15602020Y-13078220D02*
X15602020Y-13014580D01*
X15538380Y-13014580D01*
X15538380Y-13078220D01*
X15602020Y-13078220D01*
X12547600Y-8584400D02*
X12597600Y-8534400D01*
X12547600Y-8484400D01*
X12497600Y-8534400D01*
X12547600Y-8584400D01*
X12547600Y-8838400D02*
X12597600Y-8788400D01*
X12547600Y-8738400D01*
X12497600Y-8788400D01*
X12547600Y-8838400D01*
X12801600Y-8584400D02*
X12851600Y-8534400D01*
X12801600Y-8484400D01*
X12751600Y-8534400D01*
X12801600Y-8584400D01*
X12801600Y-8838400D02*
X12851600Y-8788400D01*
X12801600Y-8738400D01*
X12751600Y-8788400D01*
X12801600Y-8838400D01*
X13055600Y-8584400D02*
X13105600Y-8534400D01*
X13055600Y-8484400D01*
X13005600Y-8534400D01*
X13055600Y-8584400D01*
X13055600Y-8838400D02*
X13105600Y-8788400D01*
X13055600Y-8738400D01*
X13005600Y-8788400D01*
X13055600Y-8838400D01*
X13309600Y-8584400D02*
X13359600Y-8534400D01*
X13309600Y-8484400D01*
X13259600Y-8534400D01*
X13309600Y-8584400D01*
X13309600Y-8838400D02*
X13359600Y-8788400D01*
X13309600Y-8738400D01*
X13259600Y-8788400D01*
X13309600Y-8838400D01*
X13436700Y-9438800D02*
X13486700Y-9388800D01*
X13436700Y-9338800D01*
X13386700Y-9388800D01*
X13436700Y-9438800D01*
X13563600Y-8584400D02*
X13613600Y-8534400D01*
X13563600Y-8484400D01*
X13513600Y-8534400D01*
X13563600Y-8584400D01*
X13563600Y-8838400D02*
X13613600Y-8788400D01*
X13563600Y-8738400D01*
X13513600Y-8788400D01*
X13563600Y-8838400D01*
X13690700Y-9438800D02*
X13740700Y-9388800D01*
X13690700Y-9338800D01*
X13640700Y-9388800D01*
X13690700Y-9438800D01*
X13817600Y-8584400D02*
X13867600Y-8534400D01*
X13817600Y-8484400D01*
X13767600Y-8534400D01*
X13817600Y-8584400D01*
X13817600Y-8838400D02*
X13867600Y-8788400D01*
X13817600Y-8738400D01*
X13767600Y-8788400D01*
X13817600Y-8838400D01*
X13944700Y-9438800D02*
X13994700Y-9388800D01*
X13944700Y-9338800D01*
X13894700Y-9388800D01*
X13944700Y-9438800D01*
X14071600Y-8584400D02*
X14121600Y-8534400D01*
X14071600Y-8484400D01*
X14021600Y-8534400D01*
X14071600Y-8584400D01*
X14071600Y-8838400D02*
X14121600Y-8788400D01*
X14071600Y-8738400D01*
X14021600Y-8788400D01*
X14071600Y-8838400D01*
X14325600Y-8584400D02*
X14375600Y-8534400D01*
X14325600Y-8484400D01*
X14275600Y-8534400D01*
X14325600Y-8584400D01*
X14325600Y-8838400D02*
X14375600Y-8788400D01*
X14325600Y-8738400D01*
X14275600Y-8788400D01*
X14325600Y-8838400D01*
X14579600Y-8584400D02*
X14629600Y-8534400D01*
X14579600Y-8484400D01*
X14529600Y-8534400D01*
X14579600Y-8584400D01*
X14579600Y-8838400D02*
X14629600Y-8788400D01*
X14579600Y-8738400D01*
X14529600Y-8788400D01*
X14579600Y-8838400D01*
X14833600Y-8584400D02*
X14883600Y-8534400D01*
X14833600Y-8484400D01*
X14783600Y-8534400D01*
X14833600Y-8584400D01*
X14833600Y-8838400D02*
X14883600Y-8788400D01*
X14833600Y-8738400D01*
X14783600Y-8788400D01*
X14833600Y-8838400D01*
X15087600Y-8584400D02*
X15137600Y-8534400D01*
X15087600Y-8484400D01*
X15037600Y-8534400D01*
X15087600Y-8584400D01*
X15087600Y-8838400D02*
X15137600Y-8788400D01*
X15087600Y-8738400D01*
X15037600Y-8788400D01*
X15087600Y-8838400D01*
X15341600Y-8584400D02*
X15391600Y-8534400D01*
X15341600Y-8484400D01*
X15291600Y-8534400D01*
X15341600Y-8584400D01*
X15341600Y-8838400D02*
X15391600Y-8788400D01*
X15341600Y-8738400D01*
X15291600Y-8788400D01*
X15341600Y-8838400D01*
X15595600Y-8584400D02*
X15645600Y-8534400D01*
X15595600Y-8484400D01*
X15545600Y-8534400D01*
X15595600Y-8584400D01*
X15595600Y-8838400D02*
X15645600Y-8788400D01*
X15595600Y-8738400D01*
X15545600Y-8788400D01*
X15595600Y-8838400D01*
X15849600Y-8584400D02*
X15899600Y-8534400D01*
X15849600Y-8484400D01*
X15799600Y-8534400D01*
X15849600Y-8584400D01*
X15849600Y-8838400D02*
X15899600Y-8788400D01*
X15849600Y-8738400D01*
X15799600Y-8788400D01*
X15849600Y-8838400D01*
X16103600Y-8584400D02*
X16153600Y-8534400D01*
X16103600Y-8484400D01*
X16053600Y-8534400D01*
X16103600Y-8584400D01*
X16103600Y-8838400D02*
X16153600Y-8788400D01*
X16103600Y-8738400D01*
X16053600Y-8788400D01*
X16103600Y-8838400D01*
X16357600Y-8584400D02*
X16407600Y-8534400D01*
X16357600Y-8484400D01*
X16307600Y-8534400D01*
X16357600Y-8584400D01*
X16357600Y-8838400D02*
X16407600Y-8788400D01*
X16357600Y-8738400D01*
X16307600Y-8788400D01*
X16357600Y-8838400D01*
X16611600Y-8584400D02*
X16661600Y-8534400D01*
X16611600Y-8484400D01*
X16561600Y-8534400D01*
X16611600Y-8584400D01*
X16611600Y-8838400D02*
X16661600Y-8788400D01*
X16611600Y-8738400D01*
X16561600Y-8788400D01*
X16611600Y-8838400D01*
X16865600Y-8584400D02*
X16915600Y-8534400D01*
X16865600Y-8484400D01*
X16815600Y-8534400D01*
X16865600Y-8584400D01*
X16865600Y-8838400D02*
X16915600Y-8788400D01*
X16865600Y-8738400D01*
X16815600Y-8788400D01*
X16865600Y-8838400D01*
X17119600Y-8584400D02*
X17169600Y-8534400D01*
X17119600Y-8484400D01*
X17069600Y-8534400D01*
X17119600Y-8584400D01*
X17119600Y-8838400D02*
X17169600Y-8788400D01*
X17119600Y-8738400D01*
X17069600Y-8788400D01*
X17119600Y-8838400D01*
X17373600Y-8584400D02*
X17423600Y-8534400D01*
X17373600Y-8484400D01*
X17323600Y-8534400D01*
X17373600Y-8584400D01*
X17373600Y-8838400D02*
X17423600Y-8788400D01*
X17373600Y-8738400D01*
X17323600Y-8788400D01*
X17373600Y-8838400D01*
D12*
X13220800Y-13021100D02*
X13350800Y-13151100D01*
X13350800Y-13021100D02*
X13220800Y-13151100D01*
X13350800Y-13086100D02*
G75*
G02*
X13220800Y-13086100I-65000J0D01*
G01*
X13220800Y-13086100D02*
G75*
G02*
X13350800Y-13086100I65000J0D01*
G01*
X13728800Y-13021100D02*
X13858800Y-13151100D01*
X13858800Y-13021100D02*
X13728800Y-13151100D01*
X13858800Y-13086100D02*
G75*
G02*
X13728800Y-13086100I-65000J0D01*
G01*
X13728800Y-13086100D02*
G75*
G02*
X13858800Y-13086100I65000J0D01*
G01*
X14236800Y-13021100D02*
X14366800Y-13151100D01*
X14366800Y-13021100D02*
X14236800Y-13151100D01*
X14366800Y-13086100D02*
G75*
G02*
X14236800Y-13086100I-65000J0D01*
G01*
X14236800Y-13086100D02*
G75*
G02*
X14366800Y-13086100I65000J0D01*
G01*
X14744800Y-13021100D02*
X14874800Y-13151100D01*
X14874800Y-13021100D02*
X14744800Y-13151100D01*
X14874800Y-13086100D02*
G75*
G02*
X14744800Y-13086100I-65000J0D01*
G01*
X14744800Y-13086100D02*
G75*
G02*
X14874800Y-13086100I65000J0D01*
G01*
X15987300Y-13006800D02*
X16117300Y-13136800D01*
X16117300Y-13006800D02*
X15987300Y-13136800D01*
X16117300Y-13071800D02*
G75*
G02*
X15987300Y-13071800I-65000J0D01*
G01*
X15987300Y-13071800D02*
G75*
G02*
X16117300Y-13071800I65000J0D01*
G01*
X16495300Y-13006800D02*
X16625300Y-13136800D01*
X16625300Y-13006800D02*
X16495300Y-13136800D01*
X16625300Y-13071800D02*
G75*
G02*
X16495300Y-13071800I-65000J0D01*
G01*
X16495300Y-13071800D02*
G75*
G02*
X16625300Y-13071800I65000J0D01*
G01*
X17003300Y-13006800D02*
X17133300Y-13136800D01*
X17133300Y-13006800D02*
X17003300Y-13136800D01*
X17133300Y-13071800D02*
G75*
G02*
X17003300Y-13071800I-65000J0D01*
G01*
X17003300Y-13071800D02*
G75*
G02*
X17133300Y-13071800I65000J0D01*
G01*
D13*
X12499600Y-11142600D02*
X12649600Y-11292600D01*
X12649600Y-11142600D02*
X12499600Y-11292600D01*
X12574600Y-11142600D02*
X12574600Y-11292600D01*
X12499600Y-11217600D02*
X12649600Y-11217600D01*
X14548600Y-11142600D02*
X14698600Y-11292600D01*
X14698600Y-11142600D02*
X14548600Y-11292600D01*
X14623600Y-11142600D02*
X14623600Y-11292600D01*
X14548600Y-11217600D02*
X14698600Y-11217600D01*
D11*
X11966777Y-14226484D02*
X11966777Y-14026484D01*
X11966777Y-14026484D02*
X12014396Y-14026484D01*
X12014396Y-14026484D02*
X12042967Y-14036008D01*
X12042967Y-14036008D02*
X12062015Y-14055055D01*
X12062015Y-14055055D02*
X12071539Y-14074103D01*
X12071539Y-14074103D02*
X12081062Y-14112198D01*
X12081062Y-14112198D02*
X12081062Y-14140769D01*
X12081062Y-14140769D02*
X12071539Y-14178865D01*
X12071539Y-14178865D02*
X12062015Y-14197912D01*
X12062015Y-14197912D02*
X12042967Y-14216960D01*
X12042967Y-14216960D02*
X12014396Y-14226484D01*
X12014396Y-14226484D02*
X11966777Y-14226484D01*
X12166777Y-14226484D02*
X12166777Y-14093150D01*
X12166777Y-14131246D02*
X12176301Y-14112198D01*
X12176301Y-14112198D02*
X12185824Y-14102674D01*
X12185824Y-14102674D02*
X12204872Y-14093150D01*
X12204872Y-14093150D02*
X12223920Y-14093150D01*
X12290586Y-14226484D02*
X12290586Y-14093150D01*
X12290586Y-14026484D02*
X12281062Y-14036008D01*
X12281062Y-14036008D02*
X12290586Y-14045531D01*
X12290586Y-14045531D02*
X12300110Y-14036008D01*
X12300110Y-14036008D02*
X12290586Y-14026484D01*
X12290586Y-14026484D02*
X12290586Y-14045531D01*
X12414396Y-14226484D02*
X12395348Y-14216960D01*
X12395348Y-14216960D02*
X12385824Y-14197912D01*
X12385824Y-14197912D02*
X12385824Y-14026484D01*
X12519158Y-14226484D02*
X12500110Y-14216960D01*
X12500110Y-14216960D02*
X12490586Y-14197912D01*
X12490586Y-14197912D02*
X12490586Y-14026484D01*
X12747729Y-14226484D02*
X12747729Y-14026484D01*
X12747729Y-14026484D02*
X12814396Y-14169341D01*
X12814396Y-14169341D02*
X12881062Y-14026484D01*
X12881062Y-14026484D02*
X12881062Y-14226484D01*
X13062015Y-14226484D02*
X13062015Y-14121722D01*
X13062015Y-14121722D02*
X13052491Y-14102674D01*
X13052491Y-14102674D02*
X13033443Y-14093150D01*
X13033443Y-14093150D02*
X12995348Y-14093150D01*
X12995348Y-14093150D02*
X12976301Y-14102674D01*
X13062015Y-14216960D02*
X13042967Y-14226484D01*
X13042967Y-14226484D02*
X12995348Y-14226484D01*
X12995348Y-14226484D02*
X12976301Y-14216960D01*
X12976301Y-14216960D02*
X12966777Y-14197912D01*
X12966777Y-14197912D02*
X12966777Y-14178865D01*
X12966777Y-14178865D02*
X12976301Y-14159817D01*
X12976301Y-14159817D02*
X12995348Y-14150293D01*
X12995348Y-14150293D02*
X13042967Y-14150293D01*
X13042967Y-14150293D02*
X13062015Y-14140769D01*
X13157253Y-14093150D02*
X13157253Y-14293150D01*
X13157253Y-14102674D02*
X13176301Y-14093150D01*
X13176301Y-14093150D02*
X13214396Y-14093150D01*
X13214396Y-14093150D02*
X13233443Y-14102674D01*
X13233443Y-14102674D02*
X13242967Y-14112198D01*
X13242967Y-14112198D02*
X13252491Y-14131246D01*
X13252491Y-14131246D02*
X13252491Y-14188388D01*
X13252491Y-14188388D02*
X13242967Y-14207436D01*
X13242967Y-14207436D02*
X13233443Y-14216960D01*
X13233443Y-14216960D02*
X13214396Y-14226484D01*
X13214396Y-14226484D02*
X13176301Y-14226484D01*
X13176301Y-14226484D02*
X13157253Y-14216960D01*
X13338205Y-14207436D02*
X13347729Y-14216960D01*
X13347729Y-14216960D02*
X13338205Y-14226484D01*
X13338205Y-14226484D02*
X13328682Y-14216960D01*
X13328682Y-14216960D02*
X13338205Y-14207436D01*
X13338205Y-14207436D02*
X13338205Y-14226484D01*
X13338205Y-14102674D02*
X13347729Y-14112198D01*
X13347729Y-14112198D02*
X13338205Y-14121722D01*
X13338205Y-14121722D02*
X13328682Y-14112198D01*
X13328682Y-14112198D02*
X13338205Y-14102674D01*
X13338205Y-14102674D02*
X13338205Y-14121722D01*
D10*
X11676000Y-14540000D02*
X11706000Y-14570000D01*
X11706000Y-14540000D02*
X11676000Y-14570000D01*
D11*
X12004872Y-14446484D02*
X12023920Y-14446484D01*
X12023920Y-14446484D02*
X12042967Y-14456008D01*
X12042967Y-14456008D02*
X12052491Y-14465531D01*
X12052491Y-14465531D02*
X12062015Y-14484579D01*
X12062015Y-14484579D02*
X12071539Y-14522674D01*
X12071539Y-14522674D02*
X12071539Y-14570293D01*
X12071539Y-14570293D02*
X12062015Y-14608388D01*
X12062015Y-14608388D02*
X12052491Y-14627436D01*
X12052491Y-14627436D02*
X12042967Y-14636960D01*
X12042967Y-14636960D02*
X12023920Y-14646484D01*
X12023920Y-14646484D02*
X12004872Y-14646484D01*
X12004872Y-14646484D02*
X11985824Y-14636960D01*
X11985824Y-14636960D02*
X11976301Y-14627436D01*
X11976301Y-14627436D02*
X11966777Y-14608388D01*
X11966777Y-14608388D02*
X11957253Y-14570293D01*
X11957253Y-14570293D02*
X11957253Y-14522674D01*
X11957253Y-14522674D02*
X11966777Y-14484579D01*
X11966777Y-14484579D02*
X11976301Y-14465531D01*
X11976301Y-14465531D02*
X11985824Y-14456008D01*
X11985824Y-14456008D02*
X12004872Y-14446484D01*
X12157253Y-14627436D02*
X12166777Y-14636960D01*
X12166777Y-14636960D02*
X12157253Y-14646484D01*
X12157253Y-14646484D02*
X12147729Y-14636960D01*
X12147729Y-14636960D02*
X12157253Y-14627436D01*
X12157253Y-14627436D02*
X12157253Y-14646484D01*
X12233443Y-14446484D02*
X12357253Y-14446484D01*
X12357253Y-14446484D02*
X12290586Y-14522674D01*
X12290586Y-14522674D02*
X12319158Y-14522674D01*
X12319158Y-14522674D02*
X12338205Y-14532198D01*
X12338205Y-14532198D02*
X12347729Y-14541722D01*
X12347729Y-14541722D02*
X12357253Y-14560769D01*
X12357253Y-14560769D02*
X12357253Y-14608388D01*
X12357253Y-14608388D02*
X12347729Y-14627436D01*
X12347729Y-14627436D02*
X12338205Y-14636960D01*
X12338205Y-14636960D02*
X12319158Y-14646484D01*
X12319158Y-14646484D02*
X12262015Y-14646484D01*
X12262015Y-14646484D02*
X12242967Y-14636960D01*
X12242967Y-14636960D02*
X12233443Y-14627436D01*
X12481062Y-14446484D02*
X12500110Y-14446484D01*
X12500110Y-14446484D02*
X12519158Y-14456008D01*
X12519158Y-14456008D02*
X12528682Y-14465531D01*
X12528682Y-14465531D02*
X12538205Y-14484579D01*
X12538205Y-14484579D02*
X12547729Y-14522674D01*
X12547729Y-14522674D02*
X12547729Y-14570293D01*
X12547729Y-14570293D02*
X12538205Y-14608388D01*
X12538205Y-14608388D02*
X12528682Y-14627436D01*
X12528682Y-14627436D02*
X12519158Y-14636960D01*
X12519158Y-14636960D02*
X12500110Y-14646484D01*
X12500110Y-14646484D02*
X12481062Y-14646484D01*
X12481062Y-14646484D02*
X12462015Y-14636960D01*
X12462015Y-14636960D02*
X12452491Y-14627436D01*
X12452491Y-14627436D02*
X12442967Y-14608388D01*
X12442967Y-14608388D02*
X12433443Y-14570293D01*
X12433443Y-14570293D02*
X12433443Y-14522674D01*
X12433443Y-14522674D02*
X12442967Y-14484579D01*
X12442967Y-14484579D02*
X12452491Y-14465531D01*
X12452491Y-14465531D02*
X12462015Y-14456008D01*
X12462015Y-14456008D02*
X12481062Y-14446484D01*
X12671539Y-14446484D02*
X12690586Y-14446484D01*
X12690586Y-14446484D02*
X12709634Y-14456008D01*
X12709634Y-14456008D02*
X12719158Y-14465531D01*
X12719158Y-14465531D02*
X12728682Y-14484579D01*
X12728682Y-14484579D02*
X12738205Y-14522674D01*
X12738205Y-14522674D02*
X12738205Y-14570293D01*
X12738205Y-14570293D02*
X12728682Y-14608388D01*
X12728682Y-14608388D02*
X12719158Y-14627436D01*
X12719158Y-14627436D02*
X12709634Y-14636960D01*
X12709634Y-14636960D02*
X12690586Y-14646484D01*
X12690586Y-14646484D02*
X12671539Y-14646484D01*
X12671539Y-14646484D02*
X12652491Y-14636960D01*
X12652491Y-14636960D02*
X12642967Y-14627436D01*
X12642967Y-14627436D02*
X12633443Y-14608388D01*
X12633443Y-14608388D02*
X12623920Y-14570293D01*
X12623920Y-14570293D02*
X12623920Y-14522674D01*
X12623920Y-14522674D02*
X12633443Y-14484579D01*
X12633443Y-14484579D02*
X12642967Y-14465531D01*
X12642967Y-14465531D02*
X12652491Y-14456008D01*
X12652491Y-14456008D02*
X12671539Y-14446484D01*
X12823920Y-14646484D02*
X12823920Y-14513150D01*
X12823920Y-14532198D02*
X12833443Y-14522674D01*
X12833443Y-14522674D02*
X12852491Y-14513150D01*
X12852491Y-14513150D02*
X12881063Y-14513150D01*
X12881063Y-14513150D02*
X12900110Y-14522674D01*
X12900110Y-14522674D02*
X12909634Y-14541722D01*
X12909634Y-14541722D02*
X12909634Y-14646484D01*
X12909634Y-14541722D02*
X12919158Y-14522674D01*
X12919158Y-14522674D02*
X12938205Y-14513150D01*
X12938205Y-14513150D02*
X12966777Y-14513150D01*
X12966777Y-14513150D02*
X12985824Y-14522674D01*
X12985824Y-14522674D02*
X12995348Y-14541722D01*
X12995348Y-14541722D02*
X12995348Y-14646484D01*
X13090586Y-14646484D02*
X13090586Y-14513150D01*
X13090586Y-14532198D02*
X13100110Y-14522674D01*
X13100110Y-14522674D02*
X13119158Y-14513150D01*
X13119158Y-14513150D02*
X13147729Y-14513150D01*
X13147729Y-14513150D02*
X13166777Y-14522674D01*
X13166777Y-14522674D02*
X13176301Y-14541722D01*
X13176301Y-14541722D02*
X13176301Y-14646484D01*
X13176301Y-14541722D02*
X13185824Y-14522674D01*
X13185824Y-14522674D02*
X13204872Y-14513150D01*
X13204872Y-14513150D02*
X13233443Y-14513150D01*
X13233443Y-14513150D02*
X13252491Y-14522674D01*
X13252491Y-14522674D02*
X13262015Y-14541722D01*
X13262015Y-14541722D02*
X13262015Y-14646484D01*
X13652491Y-14436960D02*
X13481063Y-14694103D01*
X13909634Y-14446484D02*
X13928682Y-14446484D01*
X13928682Y-14446484D02*
X13947729Y-14456008D01*
X13947729Y-14456008D02*
X13957253Y-14465531D01*
X13957253Y-14465531D02*
X13966777Y-14484579D01*
X13966777Y-14484579D02*
X13976301Y-14522674D01*
X13976301Y-14522674D02*
X13976301Y-14570293D01*
X13976301Y-14570293D02*
X13966777Y-14608388D01*
X13966777Y-14608388D02*
X13957253Y-14627436D01*
X13957253Y-14627436D02*
X13947729Y-14636960D01*
X13947729Y-14636960D02*
X13928682Y-14646484D01*
X13928682Y-14646484D02*
X13909634Y-14646484D01*
X13909634Y-14646484D02*
X13890586Y-14636960D01*
X13890586Y-14636960D02*
X13881063Y-14627436D01*
X13881063Y-14627436D02*
X13871539Y-14608388D01*
X13871539Y-14608388D02*
X13862015Y-14570293D01*
X13862015Y-14570293D02*
X13862015Y-14522674D01*
X13862015Y-14522674D02*
X13871539Y-14484579D01*
X13871539Y-14484579D02*
X13881063Y-14465531D01*
X13881063Y-14465531D02*
X13890586Y-14456008D01*
X13890586Y-14456008D02*
X13909634Y-14446484D01*
X14062015Y-14627436D02*
X14071539Y-14636960D01*
X14071539Y-14636960D02*
X14062015Y-14646484D01*
X14062015Y-14646484D02*
X14052491Y-14636960D01*
X14052491Y-14636960D02*
X14062015Y-14627436D01*
X14062015Y-14627436D02*
X14062015Y-14646484D01*
X14195348Y-14446484D02*
X14214396Y-14446484D01*
X14214396Y-14446484D02*
X14233444Y-14456008D01*
X14233444Y-14456008D02*
X14242967Y-14465531D01*
X14242967Y-14465531D02*
X14252491Y-14484579D01*
X14252491Y-14484579D02*
X14262015Y-14522674D01*
X14262015Y-14522674D02*
X14262015Y-14570293D01*
X14262015Y-14570293D02*
X14252491Y-14608388D01*
X14252491Y-14608388D02*
X14242967Y-14627436D01*
X14242967Y-14627436D02*
X14233444Y-14636960D01*
X14233444Y-14636960D02*
X14214396Y-14646484D01*
X14214396Y-14646484D02*
X14195348Y-14646484D01*
X14195348Y-14646484D02*
X14176301Y-14636960D01*
X14176301Y-14636960D02*
X14166777Y-14627436D01*
X14166777Y-14627436D02*
X14157253Y-14608388D01*
X14157253Y-14608388D02*
X14147729Y-14570293D01*
X14147729Y-14570293D02*
X14147729Y-14522674D01*
X14147729Y-14522674D02*
X14157253Y-14484579D01*
X14157253Y-14484579D02*
X14166777Y-14465531D01*
X14166777Y-14465531D02*
X14176301Y-14456008D01*
X14176301Y-14456008D02*
X14195348Y-14446484D01*
X14452491Y-14646484D02*
X14338206Y-14646484D01*
X14395348Y-14646484D02*
X14395348Y-14446484D01*
X14395348Y-14446484D02*
X14376301Y-14475055D01*
X14376301Y-14475055D02*
X14357253Y-14494103D01*
X14357253Y-14494103D02*
X14338206Y-14503627D01*
X14642967Y-14646484D02*
X14528682Y-14646484D01*
X14585825Y-14646484D02*
X14585825Y-14446484D01*
X14585825Y-14446484D02*
X14566777Y-14475055D01*
X14566777Y-14475055D02*
X14547729Y-14494103D01*
X14547729Y-14494103D02*
X14528682Y-14503627D01*
X14757253Y-14532198D02*
X14738206Y-14522674D01*
X14738206Y-14522674D02*
X14728682Y-14513150D01*
X14728682Y-14513150D02*
X14719158Y-14494103D01*
X14719158Y-14494103D02*
X14719158Y-14484579D01*
X14719158Y-14484579D02*
X14728682Y-14465531D01*
X14728682Y-14465531D02*
X14738206Y-14456008D01*
X14738206Y-14456008D02*
X14757253Y-14446484D01*
X14757253Y-14446484D02*
X14795348Y-14446484D01*
X14795348Y-14446484D02*
X14814396Y-14456008D01*
X14814396Y-14456008D02*
X14823920Y-14465531D01*
X14823920Y-14465531D02*
X14833444Y-14484579D01*
X14833444Y-14484579D02*
X14833444Y-14494103D01*
X14833444Y-14494103D02*
X14823920Y-14513150D01*
X14823920Y-14513150D02*
X14814396Y-14522674D01*
X14814396Y-14522674D02*
X14795348Y-14532198D01*
X14795348Y-14532198D02*
X14757253Y-14532198D01*
X14757253Y-14532198D02*
X14738206Y-14541722D01*
X14738206Y-14541722D02*
X14728682Y-14551246D01*
X14728682Y-14551246D02*
X14719158Y-14570293D01*
X14719158Y-14570293D02*
X14719158Y-14608388D01*
X14719158Y-14608388D02*
X14728682Y-14627436D01*
X14728682Y-14627436D02*
X14738206Y-14636960D01*
X14738206Y-14636960D02*
X14757253Y-14646484D01*
X14757253Y-14646484D02*
X14795348Y-14646484D01*
X14795348Y-14646484D02*
X14814396Y-14636960D01*
X14814396Y-14636960D02*
X14823920Y-14627436D01*
X14823920Y-14627436D02*
X14833444Y-14608388D01*
X14833444Y-14608388D02*
X14833444Y-14570293D01*
X14833444Y-14570293D02*
X14823920Y-14551246D01*
X14823920Y-14551246D02*
X14814396Y-14541722D01*
X14814396Y-14541722D02*
X14795348Y-14532198D01*
X14909634Y-14446484D02*
X14909634Y-14484579D01*
X14985825Y-14446484D02*
X14985825Y-14484579D01*
X15281063Y-14722674D02*
X15271539Y-14713150D01*
X15271539Y-14713150D02*
X15252491Y-14684579D01*
X15252491Y-14684579D02*
X15242968Y-14665531D01*
X15242968Y-14665531D02*
X15233444Y-14636960D01*
X15233444Y-14636960D02*
X15223920Y-14589341D01*
X15223920Y-14589341D02*
X15223920Y-14551246D01*
X15223920Y-14551246D02*
X15233444Y-14503627D01*
X15233444Y-14503627D02*
X15242968Y-14475055D01*
X15242968Y-14475055D02*
X15252491Y-14456008D01*
X15252491Y-14456008D02*
X15271539Y-14427436D01*
X15271539Y-14427436D02*
X15281063Y-14417912D01*
X15385825Y-14532198D02*
X15366777Y-14522674D01*
X15366777Y-14522674D02*
X15357253Y-14513150D01*
X15357253Y-14513150D02*
X15347729Y-14494103D01*
X15347729Y-14494103D02*
X15347729Y-14484579D01*
X15347729Y-14484579D02*
X15357253Y-14465531D01*
X15357253Y-14465531D02*
X15366777Y-14456008D01*
X15366777Y-14456008D02*
X15385825Y-14446484D01*
X15385825Y-14446484D02*
X15423920Y-14446484D01*
X15423920Y-14446484D02*
X15442968Y-14456008D01*
X15442968Y-14456008D02*
X15452491Y-14465531D01*
X15452491Y-14465531D02*
X15462015Y-14484579D01*
X15462015Y-14484579D02*
X15462015Y-14494103D01*
X15462015Y-14494103D02*
X15452491Y-14513150D01*
X15452491Y-14513150D02*
X15442968Y-14522674D01*
X15442968Y-14522674D02*
X15423920Y-14532198D01*
X15423920Y-14532198D02*
X15385825Y-14532198D01*
X15385825Y-14532198D02*
X15366777Y-14541722D01*
X15366777Y-14541722D02*
X15357253Y-14551246D01*
X15357253Y-14551246D02*
X15347729Y-14570293D01*
X15347729Y-14570293D02*
X15347729Y-14608388D01*
X15347729Y-14608388D02*
X15357253Y-14627436D01*
X15357253Y-14627436D02*
X15366777Y-14636960D01*
X15366777Y-14636960D02*
X15385825Y-14646484D01*
X15385825Y-14646484D02*
X15423920Y-14646484D01*
X15423920Y-14646484D02*
X15442968Y-14636960D01*
X15442968Y-14636960D02*
X15452491Y-14627436D01*
X15452491Y-14627436D02*
X15462015Y-14608388D01*
X15462015Y-14608388D02*
X15462015Y-14570293D01*
X15462015Y-14570293D02*
X15452491Y-14551246D01*
X15452491Y-14551246D02*
X15442968Y-14541722D01*
X15442968Y-14541722D02*
X15423920Y-14532198D01*
X15700110Y-14646484D02*
X15700110Y-14446484D01*
X15785825Y-14646484D02*
X15785825Y-14541722D01*
X15785825Y-14541722D02*
X15776301Y-14522674D01*
X15776301Y-14522674D02*
X15757253Y-14513150D01*
X15757253Y-14513150D02*
X15728682Y-14513150D01*
X15728682Y-14513150D02*
X15709634Y-14522674D01*
X15709634Y-14522674D02*
X15700110Y-14532198D01*
X15909634Y-14646484D02*
X15890587Y-14636960D01*
X15890587Y-14636960D02*
X15881063Y-14627436D01*
X15881063Y-14627436D02*
X15871539Y-14608388D01*
X15871539Y-14608388D02*
X15871539Y-14551246D01*
X15871539Y-14551246D02*
X15881063Y-14532198D01*
X15881063Y-14532198D02*
X15890587Y-14522674D01*
X15890587Y-14522674D02*
X15909634Y-14513150D01*
X15909634Y-14513150D02*
X15938206Y-14513150D01*
X15938206Y-14513150D02*
X15957253Y-14522674D01*
X15957253Y-14522674D02*
X15966777Y-14532198D01*
X15966777Y-14532198D02*
X15976301Y-14551246D01*
X15976301Y-14551246D02*
X15976301Y-14608388D01*
X15976301Y-14608388D02*
X15966777Y-14627436D01*
X15966777Y-14627436D02*
X15957253Y-14636960D01*
X15957253Y-14636960D02*
X15938206Y-14646484D01*
X15938206Y-14646484D02*
X15909634Y-14646484D01*
X16090587Y-14646484D02*
X16071539Y-14636960D01*
X16071539Y-14636960D02*
X16062015Y-14617912D01*
X16062015Y-14617912D02*
X16062015Y-14446484D01*
X16242968Y-14636960D02*
X16223920Y-14646484D01*
X16223920Y-14646484D02*
X16185825Y-14646484D01*
X16185825Y-14646484D02*
X16166777Y-14636960D01*
X16166777Y-14636960D02*
X16157253Y-14617912D01*
X16157253Y-14617912D02*
X16157253Y-14541722D01*
X16157253Y-14541722D02*
X16166777Y-14522674D01*
X16166777Y-14522674D02*
X16185825Y-14513150D01*
X16185825Y-14513150D02*
X16223920Y-14513150D01*
X16223920Y-14513150D02*
X16242968Y-14522674D01*
X16242968Y-14522674D02*
X16252491Y-14541722D01*
X16252491Y-14541722D02*
X16252491Y-14560769D01*
X16252491Y-14560769D02*
X16157253Y-14579817D01*
X16328682Y-14636960D02*
X16347730Y-14646484D01*
X16347730Y-14646484D02*
X16385825Y-14646484D01*
X16385825Y-14646484D02*
X16404872Y-14636960D01*
X16404872Y-14636960D02*
X16414396Y-14617912D01*
X16414396Y-14617912D02*
X16414396Y-14608388D01*
X16414396Y-14608388D02*
X16404872Y-14589341D01*
X16404872Y-14589341D02*
X16385825Y-14579817D01*
X16385825Y-14579817D02*
X16357253Y-14579817D01*
X16357253Y-14579817D02*
X16338206Y-14570293D01*
X16338206Y-14570293D02*
X16328682Y-14551246D01*
X16328682Y-14551246D02*
X16328682Y-14541722D01*
X16328682Y-14541722D02*
X16338206Y-14522674D01*
X16338206Y-14522674D02*
X16357253Y-14513150D01*
X16357253Y-14513150D02*
X16385825Y-14513150D01*
X16385825Y-14513150D02*
X16404872Y-14522674D01*
X16481063Y-14722674D02*
X16490587Y-14713150D01*
X16490587Y-14713150D02*
X16509634Y-14684579D01*
X16509634Y-14684579D02*
X16519158Y-14665531D01*
X16519158Y-14665531D02*
X16528682Y-14636960D01*
X16528682Y-14636960D02*
X16538206Y-14589341D01*
X16538206Y-14589341D02*
X16538206Y-14551246D01*
X16538206Y-14551246D02*
X16528682Y-14503627D01*
X16528682Y-14503627D02*
X16519158Y-14475055D01*
X16519158Y-14475055D02*
X16509634Y-14456008D01*
X16509634Y-14456008D02*
X16490587Y-14427436D01*
X16490587Y-14427436D02*
X16481063Y-14417912D01*
D10*
X11706000Y-14819000D02*
G75*
G02*
X11631000Y-14819000I-37500J0D01*
G01*
X11631000Y-14819000D02*
G75*
G02*
X11706000Y-14819000I37500J0D01*
G01*
D11*
X12004872Y-14710484D02*
X12023920Y-14710484D01*
X12023920Y-14710484D02*
X12042967Y-14720008D01*
X12042967Y-14720008D02*
X12052491Y-14729531D01*
X12052491Y-14729531D02*
X12062015Y-14748579D01*
X12062015Y-14748579D02*
X12071539Y-14786674D01*
X12071539Y-14786674D02*
X12071539Y-14834293D01*
X12071539Y-14834293D02*
X12062015Y-14872388D01*
X12062015Y-14872388D02*
X12052491Y-14891436D01*
X12052491Y-14891436D02*
X12042967Y-14900960D01*
X12042967Y-14900960D02*
X12023920Y-14910484D01*
X12023920Y-14910484D02*
X12004872Y-14910484D01*
X12004872Y-14910484D02*
X11985824Y-14900960D01*
X11985824Y-14900960D02*
X11976301Y-14891436D01*
X11976301Y-14891436D02*
X11966777Y-14872388D01*
X11966777Y-14872388D02*
X11957253Y-14834293D01*
X11957253Y-14834293D02*
X11957253Y-14786674D01*
X11957253Y-14786674D02*
X11966777Y-14748579D01*
X11966777Y-14748579D02*
X11976301Y-14729531D01*
X11976301Y-14729531D02*
X11985824Y-14720008D01*
X11985824Y-14720008D02*
X12004872Y-14710484D01*
X12157253Y-14891436D02*
X12166777Y-14900960D01*
X12166777Y-14900960D02*
X12157253Y-14910484D01*
X12157253Y-14910484D02*
X12147729Y-14900960D01*
X12147729Y-14900960D02*
X12157253Y-14891436D01*
X12157253Y-14891436D02*
X12157253Y-14910484D01*
X12233443Y-14710484D02*
X12366777Y-14710484D01*
X12366777Y-14710484D02*
X12281062Y-14910484D01*
X12538205Y-14710484D02*
X12442967Y-14710484D01*
X12442967Y-14710484D02*
X12433443Y-14805722D01*
X12433443Y-14805722D02*
X12442967Y-14796198D01*
X12442967Y-14796198D02*
X12462015Y-14786674D01*
X12462015Y-14786674D02*
X12509634Y-14786674D01*
X12509634Y-14786674D02*
X12528682Y-14796198D01*
X12528682Y-14796198D02*
X12538205Y-14805722D01*
X12538205Y-14805722D02*
X12547729Y-14824769D01*
X12547729Y-14824769D02*
X12547729Y-14872388D01*
X12547729Y-14872388D02*
X12538205Y-14891436D01*
X12538205Y-14891436D02*
X12528682Y-14900960D01*
X12528682Y-14900960D02*
X12509634Y-14910484D01*
X12509634Y-14910484D02*
X12462015Y-14910484D01*
X12462015Y-14910484D02*
X12442967Y-14900960D01*
X12442967Y-14900960D02*
X12433443Y-14891436D01*
X12671539Y-14710484D02*
X12690586Y-14710484D01*
X12690586Y-14710484D02*
X12709634Y-14720008D01*
X12709634Y-14720008D02*
X12719158Y-14729531D01*
X12719158Y-14729531D02*
X12728682Y-14748579D01*
X12728682Y-14748579D02*
X12738205Y-14786674D01*
X12738205Y-14786674D02*
X12738205Y-14834293D01*
X12738205Y-14834293D02*
X12728682Y-14872388D01*
X12728682Y-14872388D02*
X12719158Y-14891436D01*
X12719158Y-14891436D02*
X12709634Y-14900960D01*
X12709634Y-14900960D02*
X12690586Y-14910484D01*
X12690586Y-14910484D02*
X12671539Y-14910484D01*
X12671539Y-14910484D02*
X12652491Y-14900960D01*
X12652491Y-14900960D02*
X12642967Y-14891436D01*
X12642967Y-14891436D02*
X12633443Y-14872388D01*
X12633443Y-14872388D02*
X12623920Y-14834293D01*
X12623920Y-14834293D02*
X12623920Y-14786674D01*
X12623920Y-14786674D02*
X12633443Y-14748579D01*
X12633443Y-14748579D02*
X12642967Y-14729531D01*
X12642967Y-14729531D02*
X12652491Y-14720008D01*
X12652491Y-14720008D02*
X12671539Y-14710484D01*
X12823920Y-14910484D02*
X12823920Y-14777150D01*
X12823920Y-14796198D02*
X12833443Y-14786674D01*
X12833443Y-14786674D02*
X12852491Y-14777150D01*
X12852491Y-14777150D02*
X12881063Y-14777150D01*
X12881063Y-14777150D02*
X12900110Y-14786674D01*
X12900110Y-14786674D02*
X12909634Y-14805722D01*
X12909634Y-14805722D02*
X12909634Y-14910484D01*
X12909634Y-14805722D02*
X12919158Y-14786674D01*
X12919158Y-14786674D02*
X12938205Y-14777150D01*
X12938205Y-14777150D02*
X12966777Y-14777150D01*
X12966777Y-14777150D02*
X12985824Y-14786674D01*
X12985824Y-14786674D02*
X12995348Y-14805722D01*
X12995348Y-14805722D02*
X12995348Y-14910484D01*
X13090586Y-14910484D02*
X13090586Y-14777150D01*
X13090586Y-14796198D02*
X13100110Y-14786674D01*
X13100110Y-14786674D02*
X13119158Y-14777150D01*
X13119158Y-14777150D02*
X13147729Y-14777150D01*
X13147729Y-14777150D02*
X13166777Y-14786674D01*
X13166777Y-14786674D02*
X13176301Y-14805722D01*
X13176301Y-14805722D02*
X13176301Y-14910484D01*
X13176301Y-14805722D02*
X13185824Y-14786674D01*
X13185824Y-14786674D02*
X13204872Y-14777150D01*
X13204872Y-14777150D02*
X13233443Y-14777150D01*
X13233443Y-14777150D02*
X13252491Y-14786674D01*
X13252491Y-14786674D02*
X13262015Y-14805722D01*
X13262015Y-14805722D02*
X13262015Y-14910484D01*
X13652491Y-14700960D02*
X13481063Y-14958103D01*
X13909634Y-14710484D02*
X13928682Y-14710484D01*
X13928682Y-14710484D02*
X13947729Y-14720008D01*
X13947729Y-14720008D02*
X13957253Y-14729531D01*
X13957253Y-14729531D02*
X13966777Y-14748579D01*
X13966777Y-14748579D02*
X13976301Y-14786674D01*
X13976301Y-14786674D02*
X13976301Y-14834293D01*
X13976301Y-14834293D02*
X13966777Y-14872388D01*
X13966777Y-14872388D02*
X13957253Y-14891436D01*
X13957253Y-14891436D02*
X13947729Y-14900960D01*
X13947729Y-14900960D02*
X13928682Y-14910484D01*
X13928682Y-14910484D02*
X13909634Y-14910484D01*
X13909634Y-14910484D02*
X13890586Y-14900960D01*
X13890586Y-14900960D02*
X13881063Y-14891436D01*
X13881063Y-14891436D02*
X13871539Y-14872388D01*
X13871539Y-14872388D02*
X13862015Y-14834293D01*
X13862015Y-14834293D02*
X13862015Y-14786674D01*
X13862015Y-14786674D02*
X13871539Y-14748579D01*
X13871539Y-14748579D02*
X13881063Y-14729531D01*
X13881063Y-14729531D02*
X13890586Y-14720008D01*
X13890586Y-14720008D02*
X13909634Y-14710484D01*
X14062015Y-14891436D02*
X14071539Y-14900960D01*
X14071539Y-14900960D02*
X14062015Y-14910484D01*
X14062015Y-14910484D02*
X14052491Y-14900960D01*
X14052491Y-14900960D02*
X14062015Y-14891436D01*
X14062015Y-14891436D02*
X14062015Y-14910484D01*
X14195348Y-14710484D02*
X14214396Y-14710484D01*
X14214396Y-14710484D02*
X14233444Y-14720008D01*
X14233444Y-14720008D02*
X14242967Y-14729531D01*
X14242967Y-14729531D02*
X14252491Y-14748579D01*
X14252491Y-14748579D02*
X14262015Y-14786674D01*
X14262015Y-14786674D02*
X14262015Y-14834293D01*
X14262015Y-14834293D02*
X14252491Y-14872388D01*
X14252491Y-14872388D02*
X14242967Y-14891436D01*
X14242967Y-14891436D02*
X14233444Y-14900960D01*
X14233444Y-14900960D02*
X14214396Y-14910484D01*
X14214396Y-14910484D02*
X14195348Y-14910484D01*
X14195348Y-14910484D02*
X14176301Y-14900960D01*
X14176301Y-14900960D02*
X14166777Y-14891436D01*
X14166777Y-14891436D02*
X14157253Y-14872388D01*
X14157253Y-14872388D02*
X14147729Y-14834293D01*
X14147729Y-14834293D02*
X14147729Y-14786674D01*
X14147729Y-14786674D02*
X14157253Y-14748579D01*
X14157253Y-14748579D02*
X14166777Y-14729531D01*
X14166777Y-14729531D02*
X14176301Y-14720008D01*
X14176301Y-14720008D02*
X14195348Y-14710484D01*
X14338206Y-14729531D02*
X14347729Y-14720008D01*
X14347729Y-14720008D02*
X14366777Y-14710484D01*
X14366777Y-14710484D02*
X14414396Y-14710484D01*
X14414396Y-14710484D02*
X14433444Y-14720008D01*
X14433444Y-14720008D02*
X14442967Y-14729531D01*
X14442967Y-14729531D02*
X14452491Y-14748579D01*
X14452491Y-14748579D02*
X14452491Y-14767627D01*
X14452491Y-14767627D02*
X14442967Y-14796198D01*
X14442967Y-14796198D02*
X14328682Y-14910484D01*
X14328682Y-14910484D02*
X14452491Y-14910484D01*
X14547729Y-14910484D02*
X14585825Y-14910484D01*
X14585825Y-14910484D02*
X14604872Y-14900960D01*
X14604872Y-14900960D02*
X14614396Y-14891436D01*
X14614396Y-14891436D02*
X14633444Y-14862865D01*
X14633444Y-14862865D02*
X14642967Y-14824769D01*
X14642967Y-14824769D02*
X14642967Y-14748579D01*
X14642967Y-14748579D02*
X14633444Y-14729531D01*
X14633444Y-14729531D02*
X14623920Y-14720008D01*
X14623920Y-14720008D02*
X14604872Y-14710484D01*
X14604872Y-14710484D02*
X14566777Y-14710484D01*
X14566777Y-14710484D02*
X14547729Y-14720008D01*
X14547729Y-14720008D02*
X14538206Y-14729531D01*
X14538206Y-14729531D02*
X14528682Y-14748579D01*
X14528682Y-14748579D02*
X14528682Y-14796198D01*
X14528682Y-14796198D02*
X14538206Y-14815246D01*
X14538206Y-14815246D02*
X14547729Y-14824769D01*
X14547729Y-14824769D02*
X14566777Y-14834293D01*
X14566777Y-14834293D02*
X14604872Y-14834293D01*
X14604872Y-14834293D02*
X14623920Y-14824769D01*
X14623920Y-14824769D02*
X14633444Y-14815246D01*
X14633444Y-14815246D02*
X14642967Y-14796198D01*
X14823920Y-14710484D02*
X14728682Y-14710484D01*
X14728682Y-14710484D02*
X14719158Y-14805722D01*
X14719158Y-14805722D02*
X14728682Y-14796198D01*
X14728682Y-14796198D02*
X14747729Y-14786674D01*
X14747729Y-14786674D02*
X14795348Y-14786674D01*
X14795348Y-14786674D02*
X14814396Y-14796198D01*
X14814396Y-14796198D02*
X14823920Y-14805722D01*
X14823920Y-14805722D02*
X14833444Y-14824769D01*
X14833444Y-14824769D02*
X14833444Y-14872388D01*
X14833444Y-14872388D02*
X14823920Y-14891436D01*
X14823920Y-14891436D02*
X14814396Y-14900960D01*
X14814396Y-14900960D02*
X14795348Y-14910484D01*
X14795348Y-14910484D02*
X14747729Y-14910484D01*
X14747729Y-14910484D02*
X14728682Y-14900960D01*
X14728682Y-14900960D02*
X14719158Y-14891436D01*
X14909634Y-14710484D02*
X14909634Y-14748579D01*
X14985825Y-14710484D02*
X14985825Y-14748579D01*
X15281063Y-14986674D02*
X15271539Y-14977150D01*
X15271539Y-14977150D02*
X15252491Y-14948579D01*
X15252491Y-14948579D02*
X15242968Y-14929531D01*
X15242968Y-14929531D02*
X15233444Y-14900960D01*
X15233444Y-14900960D02*
X15223920Y-14853341D01*
X15223920Y-14853341D02*
X15223920Y-14815246D01*
X15223920Y-14815246D02*
X15233444Y-14767627D01*
X15233444Y-14767627D02*
X15242968Y-14739055D01*
X15242968Y-14739055D02*
X15252491Y-14720008D01*
X15252491Y-14720008D02*
X15271539Y-14691436D01*
X15271539Y-14691436D02*
X15281063Y-14681912D01*
X15338206Y-14710484D02*
X15462015Y-14710484D01*
X15462015Y-14710484D02*
X15395348Y-14786674D01*
X15395348Y-14786674D02*
X15423920Y-14786674D01*
X15423920Y-14786674D02*
X15442968Y-14796198D01*
X15442968Y-14796198D02*
X15452491Y-14805722D01*
X15452491Y-14805722D02*
X15462015Y-14824769D01*
X15462015Y-14824769D02*
X15462015Y-14872388D01*
X15462015Y-14872388D02*
X15452491Y-14891436D01*
X15452491Y-14891436D02*
X15442968Y-14900960D01*
X15442968Y-14900960D02*
X15423920Y-14910484D01*
X15423920Y-14910484D02*
X15366777Y-14910484D01*
X15366777Y-14910484D02*
X15347729Y-14900960D01*
X15347729Y-14900960D02*
X15338206Y-14891436D01*
X15700110Y-14910484D02*
X15700110Y-14710484D01*
X15785825Y-14910484D02*
X15785825Y-14805722D01*
X15785825Y-14805722D02*
X15776301Y-14786674D01*
X15776301Y-14786674D02*
X15757253Y-14777150D01*
X15757253Y-14777150D02*
X15728682Y-14777150D01*
X15728682Y-14777150D02*
X15709634Y-14786674D01*
X15709634Y-14786674D02*
X15700110Y-14796198D01*
X15909634Y-14910484D02*
X15890587Y-14900960D01*
X15890587Y-14900960D02*
X15881063Y-14891436D01*
X15881063Y-14891436D02*
X15871539Y-14872388D01*
X15871539Y-14872388D02*
X15871539Y-14815246D01*
X15871539Y-14815246D02*
X15881063Y-14796198D01*
X15881063Y-14796198D02*
X15890587Y-14786674D01*
X15890587Y-14786674D02*
X15909634Y-14777150D01*
X15909634Y-14777150D02*
X15938206Y-14777150D01*
X15938206Y-14777150D02*
X15957253Y-14786674D01*
X15957253Y-14786674D02*
X15966777Y-14796198D01*
X15966777Y-14796198D02*
X15976301Y-14815246D01*
X15976301Y-14815246D02*
X15976301Y-14872388D01*
X15976301Y-14872388D02*
X15966777Y-14891436D01*
X15966777Y-14891436D02*
X15957253Y-14900960D01*
X15957253Y-14900960D02*
X15938206Y-14910484D01*
X15938206Y-14910484D02*
X15909634Y-14910484D01*
X16090587Y-14910484D02*
X16071539Y-14900960D01*
X16071539Y-14900960D02*
X16062015Y-14881912D01*
X16062015Y-14881912D02*
X16062015Y-14710484D01*
X16242968Y-14900960D02*
X16223920Y-14910484D01*
X16223920Y-14910484D02*
X16185825Y-14910484D01*
X16185825Y-14910484D02*
X16166777Y-14900960D01*
X16166777Y-14900960D02*
X16157253Y-14881912D01*
X16157253Y-14881912D02*
X16157253Y-14805722D01*
X16157253Y-14805722D02*
X16166777Y-14786674D01*
X16166777Y-14786674D02*
X16185825Y-14777150D01*
X16185825Y-14777150D02*
X16223920Y-14777150D01*
X16223920Y-14777150D02*
X16242968Y-14786674D01*
X16242968Y-14786674D02*
X16252491Y-14805722D01*
X16252491Y-14805722D02*
X16252491Y-14824769D01*
X16252491Y-14824769D02*
X16157253Y-14843817D01*
X16328682Y-14900960D02*
X16347730Y-14910484D01*
X16347730Y-14910484D02*
X16385825Y-14910484D01*
X16385825Y-14910484D02*
X16404872Y-14900960D01*
X16404872Y-14900960D02*
X16414396Y-14881912D01*
X16414396Y-14881912D02*
X16414396Y-14872388D01*
X16414396Y-14872388D02*
X16404872Y-14853341D01*
X16404872Y-14853341D02*
X16385825Y-14843817D01*
X16385825Y-14843817D02*
X16357253Y-14843817D01*
X16357253Y-14843817D02*
X16338206Y-14834293D01*
X16338206Y-14834293D02*
X16328682Y-14815246D01*
X16328682Y-14815246D02*
X16328682Y-14805722D01*
X16328682Y-14805722D02*
X16338206Y-14786674D01*
X16338206Y-14786674D02*
X16357253Y-14777150D01*
X16357253Y-14777150D02*
X16385825Y-14777150D01*
X16385825Y-14777150D02*
X16404872Y-14786674D01*
X16481063Y-14986674D02*
X16490587Y-14977150D01*
X16490587Y-14977150D02*
X16509634Y-14948579D01*
X16509634Y-14948579D02*
X16519158Y-14929531D01*
X16519158Y-14929531D02*
X16528682Y-14900960D01*
X16528682Y-14900960D02*
X16538206Y-14853341D01*
X16538206Y-14853341D02*
X16538206Y-14815246D01*
X16538206Y-14815246D02*
X16528682Y-14767627D01*
X16528682Y-14767627D02*
X16519158Y-14739055D01*
X16519158Y-14739055D02*
X16509634Y-14720008D01*
X16509634Y-14720008D02*
X16490587Y-14691436D01*
X16490587Y-14691436D02*
X16481063Y-14681912D01*
D10*
X11666000Y-15043000D02*
X11666000Y-15123000D01*
X11626000Y-15083000D02*
X11706000Y-15083000D01*
D11*
X12004872Y-14974484D02*
X12023920Y-14974484D01*
X12023920Y-14974484D02*
X12042967Y-14984008D01*
X12042967Y-14984008D02*
X12052491Y-14993531D01*
X12052491Y-14993531D02*
X12062015Y-15012579D01*
X12062015Y-15012579D02*
X12071539Y-15050674D01*
X12071539Y-15050674D02*
X12071539Y-15098293D01*
X12071539Y-15098293D02*
X12062015Y-15136388D01*
X12062015Y-15136388D02*
X12052491Y-15155436D01*
X12052491Y-15155436D02*
X12042967Y-15164960D01*
X12042967Y-15164960D02*
X12023920Y-15174484D01*
X12023920Y-15174484D02*
X12004872Y-15174484D01*
X12004872Y-15174484D02*
X11985824Y-15164960D01*
X11985824Y-15164960D02*
X11976301Y-15155436D01*
X11976301Y-15155436D02*
X11966777Y-15136388D01*
X11966777Y-15136388D02*
X11957253Y-15098293D01*
X11957253Y-15098293D02*
X11957253Y-15050674D01*
X11957253Y-15050674D02*
X11966777Y-15012579D01*
X11966777Y-15012579D02*
X11976301Y-14993531D01*
X11976301Y-14993531D02*
X11985824Y-14984008D01*
X11985824Y-14984008D02*
X12004872Y-14974484D01*
X12157253Y-15155436D02*
X12166777Y-15164960D01*
X12166777Y-15164960D02*
X12157253Y-15174484D01*
X12157253Y-15174484D02*
X12147729Y-15164960D01*
X12147729Y-15164960D02*
X12157253Y-15155436D01*
X12157253Y-15155436D02*
X12157253Y-15174484D01*
X12281062Y-15060198D02*
X12262015Y-15050674D01*
X12262015Y-15050674D02*
X12252491Y-15041150D01*
X12252491Y-15041150D02*
X12242967Y-15022103D01*
X12242967Y-15022103D02*
X12242967Y-15012579D01*
X12242967Y-15012579D02*
X12252491Y-14993531D01*
X12252491Y-14993531D02*
X12262015Y-14984008D01*
X12262015Y-14984008D02*
X12281062Y-14974484D01*
X12281062Y-14974484D02*
X12319158Y-14974484D01*
X12319158Y-14974484D02*
X12338205Y-14984008D01*
X12338205Y-14984008D02*
X12347729Y-14993531D01*
X12347729Y-14993531D02*
X12357253Y-15012579D01*
X12357253Y-15012579D02*
X12357253Y-15022103D01*
X12357253Y-15022103D02*
X12347729Y-15041150D01*
X12347729Y-15041150D02*
X12338205Y-15050674D01*
X12338205Y-15050674D02*
X12319158Y-15060198D01*
X12319158Y-15060198D02*
X12281062Y-15060198D01*
X12281062Y-15060198D02*
X12262015Y-15069722D01*
X12262015Y-15069722D02*
X12252491Y-15079246D01*
X12252491Y-15079246D02*
X12242967Y-15098293D01*
X12242967Y-15098293D02*
X12242967Y-15136388D01*
X12242967Y-15136388D02*
X12252491Y-15155436D01*
X12252491Y-15155436D02*
X12262015Y-15164960D01*
X12262015Y-15164960D02*
X12281062Y-15174484D01*
X12281062Y-15174484D02*
X12319158Y-15174484D01*
X12319158Y-15174484D02*
X12338205Y-15164960D01*
X12338205Y-15164960D02*
X12347729Y-15155436D01*
X12347729Y-15155436D02*
X12357253Y-15136388D01*
X12357253Y-15136388D02*
X12357253Y-15098293D01*
X12357253Y-15098293D02*
X12347729Y-15079246D01*
X12347729Y-15079246D02*
X12338205Y-15069722D01*
X12338205Y-15069722D02*
X12319158Y-15060198D01*
X12481062Y-14974484D02*
X12500110Y-14974484D01*
X12500110Y-14974484D02*
X12519158Y-14984008D01*
X12519158Y-14984008D02*
X12528682Y-14993531D01*
X12528682Y-14993531D02*
X12538205Y-15012579D01*
X12538205Y-15012579D02*
X12547729Y-15050674D01*
X12547729Y-15050674D02*
X12547729Y-15098293D01*
X12547729Y-15098293D02*
X12538205Y-15136388D01*
X12538205Y-15136388D02*
X12528682Y-15155436D01*
X12528682Y-15155436D02*
X12519158Y-15164960D01*
X12519158Y-15164960D02*
X12500110Y-15174484D01*
X12500110Y-15174484D02*
X12481062Y-15174484D01*
X12481062Y-15174484D02*
X12462015Y-15164960D01*
X12462015Y-15164960D02*
X12452491Y-15155436D01*
X12452491Y-15155436D02*
X12442967Y-15136388D01*
X12442967Y-15136388D02*
X12433443Y-15098293D01*
X12433443Y-15098293D02*
X12433443Y-15050674D01*
X12433443Y-15050674D02*
X12442967Y-15012579D01*
X12442967Y-15012579D02*
X12452491Y-14993531D01*
X12452491Y-14993531D02*
X12462015Y-14984008D01*
X12462015Y-14984008D02*
X12481062Y-14974484D01*
X12671539Y-14974484D02*
X12690586Y-14974484D01*
X12690586Y-14974484D02*
X12709634Y-14984008D01*
X12709634Y-14984008D02*
X12719158Y-14993531D01*
X12719158Y-14993531D02*
X12728682Y-15012579D01*
X12728682Y-15012579D02*
X12738205Y-15050674D01*
X12738205Y-15050674D02*
X12738205Y-15098293D01*
X12738205Y-15098293D02*
X12728682Y-15136388D01*
X12728682Y-15136388D02*
X12719158Y-15155436D01*
X12719158Y-15155436D02*
X12709634Y-15164960D01*
X12709634Y-15164960D02*
X12690586Y-15174484D01*
X12690586Y-15174484D02*
X12671539Y-15174484D01*
X12671539Y-15174484D02*
X12652491Y-15164960D01*
X12652491Y-15164960D02*
X12642967Y-15155436D01*
X12642967Y-15155436D02*
X12633443Y-15136388D01*
X12633443Y-15136388D02*
X12623920Y-15098293D01*
X12623920Y-15098293D02*
X12623920Y-15050674D01*
X12623920Y-15050674D02*
X12633443Y-15012579D01*
X12633443Y-15012579D02*
X12642967Y-14993531D01*
X12642967Y-14993531D02*
X12652491Y-14984008D01*
X12652491Y-14984008D02*
X12671539Y-14974484D01*
X12823920Y-15174484D02*
X12823920Y-15041150D01*
X12823920Y-15060198D02*
X12833443Y-15050674D01*
X12833443Y-15050674D02*
X12852491Y-15041150D01*
X12852491Y-15041150D02*
X12881063Y-15041150D01*
X12881063Y-15041150D02*
X12900110Y-15050674D01*
X12900110Y-15050674D02*
X12909634Y-15069722D01*
X12909634Y-15069722D02*
X12909634Y-15174484D01*
X12909634Y-15069722D02*
X12919158Y-15050674D01*
X12919158Y-15050674D02*
X12938205Y-15041150D01*
X12938205Y-15041150D02*
X12966777Y-15041150D01*
X12966777Y-15041150D02*
X12985824Y-15050674D01*
X12985824Y-15050674D02*
X12995348Y-15069722D01*
X12995348Y-15069722D02*
X12995348Y-15174484D01*
X13090586Y-15174484D02*
X13090586Y-15041150D01*
X13090586Y-15060198D02*
X13100110Y-15050674D01*
X13100110Y-15050674D02*
X13119158Y-15041150D01*
X13119158Y-15041150D02*
X13147729Y-15041150D01*
X13147729Y-15041150D02*
X13166777Y-15050674D01*
X13166777Y-15050674D02*
X13176301Y-15069722D01*
X13176301Y-15069722D02*
X13176301Y-15174484D01*
X13176301Y-15069722D02*
X13185824Y-15050674D01*
X13185824Y-15050674D02*
X13204872Y-15041150D01*
X13204872Y-15041150D02*
X13233443Y-15041150D01*
X13233443Y-15041150D02*
X13252491Y-15050674D01*
X13252491Y-15050674D02*
X13262015Y-15069722D01*
X13262015Y-15069722D02*
X13262015Y-15174484D01*
X13652491Y-14964960D02*
X13481063Y-15222103D01*
X13909634Y-14974484D02*
X13928682Y-14974484D01*
X13928682Y-14974484D02*
X13947729Y-14984008D01*
X13947729Y-14984008D02*
X13957253Y-14993531D01*
X13957253Y-14993531D02*
X13966777Y-15012579D01*
X13966777Y-15012579D02*
X13976301Y-15050674D01*
X13976301Y-15050674D02*
X13976301Y-15098293D01*
X13976301Y-15098293D02*
X13966777Y-15136388D01*
X13966777Y-15136388D02*
X13957253Y-15155436D01*
X13957253Y-15155436D02*
X13947729Y-15164960D01*
X13947729Y-15164960D02*
X13928682Y-15174484D01*
X13928682Y-15174484D02*
X13909634Y-15174484D01*
X13909634Y-15174484D02*
X13890586Y-15164960D01*
X13890586Y-15164960D02*
X13881063Y-15155436D01*
X13881063Y-15155436D02*
X13871539Y-15136388D01*
X13871539Y-15136388D02*
X13862015Y-15098293D01*
X13862015Y-15098293D02*
X13862015Y-15050674D01*
X13862015Y-15050674D02*
X13871539Y-15012579D01*
X13871539Y-15012579D02*
X13881063Y-14993531D01*
X13881063Y-14993531D02*
X13890586Y-14984008D01*
X13890586Y-14984008D02*
X13909634Y-14974484D01*
X14062015Y-15155436D02*
X14071539Y-15164960D01*
X14071539Y-15164960D02*
X14062015Y-15174484D01*
X14062015Y-15174484D02*
X14052491Y-15164960D01*
X14052491Y-15164960D02*
X14062015Y-15155436D01*
X14062015Y-15155436D02*
X14062015Y-15174484D01*
X14195348Y-14974484D02*
X14214396Y-14974484D01*
X14214396Y-14974484D02*
X14233444Y-14984008D01*
X14233444Y-14984008D02*
X14242967Y-14993531D01*
X14242967Y-14993531D02*
X14252491Y-15012579D01*
X14252491Y-15012579D02*
X14262015Y-15050674D01*
X14262015Y-15050674D02*
X14262015Y-15098293D01*
X14262015Y-15098293D02*
X14252491Y-15136388D01*
X14252491Y-15136388D02*
X14242967Y-15155436D01*
X14242967Y-15155436D02*
X14233444Y-15164960D01*
X14233444Y-15164960D02*
X14214396Y-15174484D01*
X14214396Y-15174484D02*
X14195348Y-15174484D01*
X14195348Y-15174484D02*
X14176301Y-15164960D01*
X14176301Y-15164960D02*
X14166777Y-15155436D01*
X14166777Y-15155436D02*
X14157253Y-15136388D01*
X14157253Y-15136388D02*
X14147729Y-15098293D01*
X14147729Y-15098293D02*
X14147729Y-15050674D01*
X14147729Y-15050674D02*
X14157253Y-15012579D01*
X14157253Y-15012579D02*
X14166777Y-14993531D01*
X14166777Y-14993531D02*
X14176301Y-14984008D01*
X14176301Y-14984008D02*
X14195348Y-14974484D01*
X14328682Y-14974484D02*
X14452491Y-14974484D01*
X14452491Y-14974484D02*
X14385825Y-15050674D01*
X14385825Y-15050674D02*
X14414396Y-15050674D01*
X14414396Y-15050674D02*
X14433444Y-15060198D01*
X14433444Y-15060198D02*
X14442967Y-15069722D01*
X14442967Y-15069722D02*
X14452491Y-15088769D01*
X14452491Y-15088769D02*
X14452491Y-15136388D01*
X14452491Y-15136388D02*
X14442967Y-15155436D01*
X14442967Y-15155436D02*
X14433444Y-15164960D01*
X14433444Y-15164960D02*
X14414396Y-15174484D01*
X14414396Y-15174484D02*
X14357253Y-15174484D01*
X14357253Y-15174484D02*
X14338206Y-15164960D01*
X14338206Y-15164960D02*
X14328682Y-15155436D01*
X14642967Y-15174484D02*
X14528682Y-15174484D01*
X14585825Y-15174484D02*
X14585825Y-14974484D01*
X14585825Y-14974484D02*
X14566777Y-15003055D01*
X14566777Y-15003055D02*
X14547729Y-15022103D01*
X14547729Y-15022103D02*
X14528682Y-15031627D01*
X14823920Y-14974484D02*
X14728682Y-14974484D01*
X14728682Y-14974484D02*
X14719158Y-15069722D01*
X14719158Y-15069722D02*
X14728682Y-15060198D01*
X14728682Y-15060198D02*
X14747729Y-15050674D01*
X14747729Y-15050674D02*
X14795348Y-15050674D01*
X14795348Y-15050674D02*
X14814396Y-15060198D01*
X14814396Y-15060198D02*
X14823920Y-15069722D01*
X14823920Y-15069722D02*
X14833444Y-15088769D01*
X14833444Y-15088769D02*
X14833444Y-15136388D01*
X14833444Y-15136388D02*
X14823920Y-15155436D01*
X14823920Y-15155436D02*
X14814396Y-15164960D01*
X14814396Y-15164960D02*
X14795348Y-15174484D01*
X14795348Y-15174484D02*
X14747729Y-15174484D01*
X14747729Y-15174484D02*
X14728682Y-15164960D01*
X14728682Y-15164960D02*
X14719158Y-15155436D01*
X14909634Y-14974484D02*
X14909634Y-15012579D01*
X14985825Y-14974484D02*
X14985825Y-15012579D01*
X15281063Y-15250674D02*
X15271539Y-15241150D01*
X15271539Y-15241150D02*
X15252491Y-15212579D01*
X15252491Y-15212579D02*
X15242968Y-15193531D01*
X15242968Y-15193531D02*
X15233444Y-15164960D01*
X15233444Y-15164960D02*
X15223920Y-15117341D01*
X15223920Y-15117341D02*
X15223920Y-15079246D01*
X15223920Y-15079246D02*
X15233444Y-15031627D01*
X15233444Y-15031627D02*
X15242968Y-15003055D01*
X15242968Y-15003055D02*
X15252491Y-14984008D01*
X15252491Y-14984008D02*
X15271539Y-14955436D01*
X15271539Y-14955436D02*
X15281063Y-14945912D01*
X15462015Y-15174484D02*
X15347729Y-15174484D01*
X15404872Y-15174484D02*
X15404872Y-14974484D01*
X15404872Y-14974484D02*
X15385825Y-15003055D01*
X15385825Y-15003055D02*
X15366777Y-15022103D01*
X15366777Y-15022103D02*
X15347729Y-15031627D01*
X15633444Y-15041150D02*
X15633444Y-15174484D01*
X15585825Y-14964960D02*
X15538206Y-15107817D01*
X15538206Y-15107817D02*
X15662015Y-15107817D01*
X15890587Y-15174484D02*
X15890587Y-14974484D01*
X15976301Y-15174484D02*
X15976301Y-15069722D01*
X15976301Y-15069722D02*
X15966777Y-15050674D01*
X15966777Y-15050674D02*
X15947730Y-15041150D01*
X15947730Y-15041150D02*
X15919158Y-15041150D01*
X15919158Y-15041150D02*
X15900110Y-15050674D01*
X15900110Y-15050674D02*
X15890587Y-15060198D01*
X16100110Y-15174484D02*
X16081063Y-15164960D01*
X16081063Y-15164960D02*
X16071539Y-15155436D01*
X16071539Y-15155436D02*
X16062015Y-15136388D01*
X16062015Y-15136388D02*
X16062015Y-15079246D01*
X16062015Y-15079246D02*
X16071539Y-15060198D01*
X16071539Y-15060198D02*
X16081063Y-15050674D01*
X16081063Y-15050674D02*
X16100110Y-15041150D01*
X16100110Y-15041150D02*
X16128682Y-15041150D01*
X16128682Y-15041150D02*
X16147730Y-15050674D01*
X16147730Y-15050674D02*
X16157253Y-15060198D01*
X16157253Y-15060198D02*
X16166777Y-15079246D01*
X16166777Y-15079246D02*
X16166777Y-15136388D01*
X16166777Y-15136388D02*
X16157253Y-15155436D01*
X16157253Y-15155436D02*
X16147730Y-15164960D01*
X16147730Y-15164960D02*
X16128682Y-15174484D01*
X16128682Y-15174484D02*
X16100110Y-15174484D01*
X16281063Y-15174484D02*
X16262015Y-15164960D01*
X16262015Y-15164960D02*
X16252491Y-15145912D01*
X16252491Y-15145912D02*
X16252491Y-14974484D01*
X16433444Y-15164960D02*
X16414396Y-15174484D01*
X16414396Y-15174484D02*
X16376301Y-15174484D01*
X16376301Y-15174484D02*
X16357253Y-15164960D01*
X16357253Y-15164960D02*
X16347730Y-15145912D01*
X16347730Y-15145912D02*
X16347730Y-15069722D01*
X16347730Y-15069722D02*
X16357253Y-15050674D01*
X16357253Y-15050674D02*
X16376301Y-15041150D01*
X16376301Y-15041150D02*
X16414396Y-15041150D01*
X16414396Y-15041150D02*
X16433444Y-15050674D01*
X16433444Y-15050674D02*
X16442968Y-15069722D01*
X16442968Y-15069722D02*
X16442968Y-15088769D01*
X16442968Y-15088769D02*
X16347730Y-15107817D01*
X16519158Y-15164960D02*
X16538206Y-15174484D01*
X16538206Y-15174484D02*
X16576301Y-15174484D01*
X16576301Y-15174484D02*
X16595349Y-15164960D01*
X16595349Y-15164960D02*
X16604872Y-15145912D01*
X16604872Y-15145912D02*
X16604872Y-15136388D01*
X16604872Y-15136388D02*
X16595349Y-15117341D01*
X16595349Y-15117341D02*
X16576301Y-15107817D01*
X16576301Y-15107817D02*
X16547730Y-15107817D01*
X16547730Y-15107817D02*
X16528682Y-15098293D01*
X16528682Y-15098293D02*
X16519158Y-15079246D01*
X16519158Y-15079246D02*
X16519158Y-15069722D01*
X16519158Y-15069722D02*
X16528682Y-15050674D01*
X16528682Y-15050674D02*
X16547730Y-15041150D01*
X16547730Y-15041150D02*
X16576301Y-15041150D01*
X16576301Y-15041150D02*
X16595349Y-15050674D01*
X16671539Y-15250674D02*
X16681063Y-15241150D01*
X16681063Y-15241150D02*
X16700111Y-15212579D01*
X16700111Y-15212579D02*
X16709634Y-15193531D01*
X16709634Y-15193531D02*
X16719158Y-15164960D01*
X16719158Y-15164960D02*
X16728682Y-15117341D01*
X16728682Y-15117341D02*
X16728682Y-15079246D01*
X16728682Y-15079246D02*
X16719158Y-15031627D01*
X16719158Y-15031627D02*
X16709634Y-15003055D01*
X16709634Y-15003055D02*
X16700111Y-14984008D01*
X16700111Y-14984008D02*
X16681063Y-14955436D01*
X16681063Y-14955436D02*
X16671539Y-14945912D01*
D10*
X11692820Y-15378820D02*
X11692820Y-15315180D01*
X11629180Y-15315180D01*
X11629180Y-15378820D01*
X11692820Y-15378820D01*
D11*
X12004872Y-15238484D02*
X12023920Y-15238484D01*
X12023920Y-15238484D02*
X12042967Y-15248008D01*
X12042967Y-15248008D02*
X12052491Y-15257531D01*
X12052491Y-15257531D02*
X12062015Y-15276579D01*
X12062015Y-15276579D02*
X12071539Y-15314674D01*
X12071539Y-15314674D02*
X12071539Y-15362293D01*
X12071539Y-15362293D02*
X12062015Y-15400388D01*
X12062015Y-15400388D02*
X12052491Y-15419436D01*
X12052491Y-15419436D02*
X12042967Y-15428960D01*
X12042967Y-15428960D02*
X12023920Y-15438484D01*
X12023920Y-15438484D02*
X12004872Y-15438484D01*
X12004872Y-15438484D02*
X11985824Y-15428960D01*
X11985824Y-15428960D02*
X11976301Y-15419436D01*
X11976301Y-15419436D02*
X11966777Y-15400388D01*
X11966777Y-15400388D02*
X11957253Y-15362293D01*
X11957253Y-15362293D02*
X11957253Y-15314674D01*
X11957253Y-15314674D02*
X11966777Y-15276579D01*
X11966777Y-15276579D02*
X11976301Y-15257531D01*
X11976301Y-15257531D02*
X11985824Y-15248008D01*
X11985824Y-15248008D02*
X12004872Y-15238484D01*
X12157253Y-15419436D02*
X12166777Y-15428960D01*
X12166777Y-15428960D02*
X12157253Y-15438484D01*
X12157253Y-15438484D02*
X12147729Y-15428960D01*
X12147729Y-15428960D02*
X12157253Y-15419436D01*
X12157253Y-15419436D02*
X12157253Y-15438484D01*
X12262015Y-15438484D02*
X12300110Y-15438484D01*
X12300110Y-15438484D02*
X12319158Y-15428960D01*
X12319158Y-15428960D02*
X12328682Y-15419436D01*
X12328682Y-15419436D02*
X12347729Y-15390865D01*
X12347729Y-15390865D02*
X12357253Y-15352769D01*
X12357253Y-15352769D02*
X12357253Y-15276579D01*
X12357253Y-15276579D02*
X12347729Y-15257531D01*
X12347729Y-15257531D02*
X12338205Y-15248008D01*
X12338205Y-15248008D02*
X12319158Y-15238484D01*
X12319158Y-15238484D02*
X12281062Y-15238484D01*
X12281062Y-15238484D02*
X12262015Y-15248008D01*
X12262015Y-15248008D02*
X12252491Y-15257531D01*
X12252491Y-15257531D02*
X12242967Y-15276579D01*
X12242967Y-15276579D02*
X12242967Y-15324198D01*
X12242967Y-15324198D02*
X12252491Y-15343246D01*
X12252491Y-15343246D02*
X12262015Y-15352769D01*
X12262015Y-15352769D02*
X12281062Y-15362293D01*
X12281062Y-15362293D02*
X12319158Y-15362293D01*
X12319158Y-15362293D02*
X12338205Y-15352769D01*
X12338205Y-15352769D02*
X12347729Y-15343246D01*
X12347729Y-15343246D02*
X12357253Y-15324198D01*
X12481062Y-15238484D02*
X12500110Y-15238484D01*
X12500110Y-15238484D02*
X12519158Y-15248008D01*
X12519158Y-15248008D02*
X12528682Y-15257531D01*
X12528682Y-15257531D02*
X12538205Y-15276579D01*
X12538205Y-15276579D02*
X12547729Y-15314674D01*
X12547729Y-15314674D02*
X12547729Y-15362293D01*
X12547729Y-15362293D02*
X12538205Y-15400388D01*
X12538205Y-15400388D02*
X12528682Y-15419436D01*
X12528682Y-15419436D02*
X12519158Y-15428960D01*
X12519158Y-15428960D02*
X12500110Y-15438484D01*
X12500110Y-15438484D02*
X12481062Y-15438484D01*
X12481062Y-15438484D02*
X12462015Y-15428960D01*
X12462015Y-15428960D02*
X12452491Y-15419436D01*
X12452491Y-15419436D02*
X12442967Y-15400388D01*
X12442967Y-15400388D02*
X12433443Y-15362293D01*
X12433443Y-15362293D02*
X12433443Y-15314674D01*
X12433443Y-15314674D02*
X12442967Y-15276579D01*
X12442967Y-15276579D02*
X12452491Y-15257531D01*
X12452491Y-15257531D02*
X12462015Y-15248008D01*
X12462015Y-15248008D02*
X12481062Y-15238484D01*
X12671539Y-15238484D02*
X12690586Y-15238484D01*
X12690586Y-15238484D02*
X12709634Y-15248008D01*
X12709634Y-15248008D02*
X12719158Y-15257531D01*
X12719158Y-15257531D02*
X12728682Y-15276579D01*
X12728682Y-15276579D02*
X12738205Y-15314674D01*
X12738205Y-15314674D02*
X12738205Y-15362293D01*
X12738205Y-15362293D02*
X12728682Y-15400388D01*
X12728682Y-15400388D02*
X12719158Y-15419436D01*
X12719158Y-15419436D02*
X12709634Y-15428960D01*
X12709634Y-15428960D02*
X12690586Y-15438484D01*
X12690586Y-15438484D02*
X12671539Y-15438484D01*
X12671539Y-15438484D02*
X12652491Y-15428960D01*
X12652491Y-15428960D02*
X12642967Y-15419436D01*
X12642967Y-15419436D02*
X12633443Y-15400388D01*
X12633443Y-15400388D02*
X12623920Y-15362293D01*
X12623920Y-15362293D02*
X12623920Y-15314674D01*
X12623920Y-15314674D02*
X12633443Y-15276579D01*
X12633443Y-15276579D02*
X12642967Y-15257531D01*
X12642967Y-15257531D02*
X12652491Y-15248008D01*
X12652491Y-15248008D02*
X12671539Y-15238484D01*
X12823920Y-15438484D02*
X12823920Y-15305150D01*
X12823920Y-15324198D02*
X12833443Y-15314674D01*
X12833443Y-15314674D02*
X12852491Y-15305150D01*
X12852491Y-15305150D02*
X12881063Y-15305150D01*
X12881063Y-15305150D02*
X12900110Y-15314674D01*
X12900110Y-15314674D02*
X12909634Y-15333722D01*
X12909634Y-15333722D02*
X12909634Y-15438484D01*
X12909634Y-15333722D02*
X12919158Y-15314674D01*
X12919158Y-15314674D02*
X12938205Y-15305150D01*
X12938205Y-15305150D02*
X12966777Y-15305150D01*
X12966777Y-15305150D02*
X12985824Y-15314674D01*
X12985824Y-15314674D02*
X12995348Y-15333722D01*
X12995348Y-15333722D02*
X12995348Y-15438484D01*
X13090586Y-15438484D02*
X13090586Y-15305150D01*
X13090586Y-15324198D02*
X13100110Y-15314674D01*
X13100110Y-15314674D02*
X13119158Y-15305150D01*
X13119158Y-15305150D02*
X13147729Y-15305150D01*
X13147729Y-15305150D02*
X13166777Y-15314674D01*
X13166777Y-15314674D02*
X13176301Y-15333722D01*
X13176301Y-15333722D02*
X13176301Y-15438484D01*
X13176301Y-15333722D02*
X13185824Y-15314674D01*
X13185824Y-15314674D02*
X13204872Y-15305150D01*
X13204872Y-15305150D02*
X13233443Y-15305150D01*
X13233443Y-15305150D02*
X13252491Y-15314674D01*
X13252491Y-15314674D02*
X13262015Y-15333722D01*
X13262015Y-15333722D02*
X13262015Y-15438484D01*
X13652491Y-15228960D02*
X13481063Y-15486103D01*
X13909634Y-15238484D02*
X13928682Y-15238484D01*
X13928682Y-15238484D02*
X13947729Y-15248008D01*
X13947729Y-15248008D02*
X13957253Y-15257531D01*
X13957253Y-15257531D02*
X13966777Y-15276579D01*
X13966777Y-15276579D02*
X13976301Y-15314674D01*
X13976301Y-15314674D02*
X13976301Y-15362293D01*
X13976301Y-15362293D02*
X13966777Y-15400388D01*
X13966777Y-15400388D02*
X13957253Y-15419436D01*
X13957253Y-15419436D02*
X13947729Y-15428960D01*
X13947729Y-15428960D02*
X13928682Y-15438484D01*
X13928682Y-15438484D02*
X13909634Y-15438484D01*
X13909634Y-15438484D02*
X13890586Y-15428960D01*
X13890586Y-15428960D02*
X13881063Y-15419436D01*
X13881063Y-15419436D02*
X13871539Y-15400388D01*
X13871539Y-15400388D02*
X13862015Y-15362293D01*
X13862015Y-15362293D02*
X13862015Y-15314674D01*
X13862015Y-15314674D02*
X13871539Y-15276579D01*
X13871539Y-15276579D02*
X13881063Y-15257531D01*
X13881063Y-15257531D02*
X13890586Y-15248008D01*
X13890586Y-15248008D02*
X13909634Y-15238484D01*
X14062015Y-15419436D02*
X14071539Y-15428960D01*
X14071539Y-15428960D02*
X14062015Y-15438484D01*
X14062015Y-15438484D02*
X14052491Y-15428960D01*
X14052491Y-15428960D02*
X14062015Y-15419436D01*
X14062015Y-15419436D02*
X14062015Y-15438484D01*
X14195348Y-15238484D02*
X14214396Y-15238484D01*
X14214396Y-15238484D02*
X14233444Y-15248008D01*
X14233444Y-15248008D02*
X14242967Y-15257531D01*
X14242967Y-15257531D02*
X14252491Y-15276579D01*
X14252491Y-15276579D02*
X14262015Y-15314674D01*
X14262015Y-15314674D02*
X14262015Y-15362293D01*
X14262015Y-15362293D02*
X14252491Y-15400388D01*
X14252491Y-15400388D02*
X14242967Y-15419436D01*
X14242967Y-15419436D02*
X14233444Y-15428960D01*
X14233444Y-15428960D02*
X14214396Y-15438484D01*
X14214396Y-15438484D02*
X14195348Y-15438484D01*
X14195348Y-15438484D02*
X14176301Y-15428960D01*
X14176301Y-15428960D02*
X14166777Y-15419436D01*
X14166777Y-15419436D02*
X14157253Y-15400388D01*
X14157253Y-15400388D02*
X14147729Y-15362293D01*
X14147729Y-15362293D02*
X14147729Y-15314674D01*
X14147729Y-15314674D02*
X14157253Y-15276579D01*
X14157253Y-15276579D02*
X14166777Y-15257531D01*
X14166777Y-15257531D02*
X14176301Y-15248008D01*
X14176301Y-15248008D02*
X14195348Y-15238484D01*
X14328682Y-15238484D02*
X14452491Y-15238484D01*
X14452491Y-15238484D02*
X14385825Y-15314674D01*
X14385825Y-15314674D02*
X14414396Y-15314674D01*
X14414396Y-15314674D02*
X14433444Y-15324198D01*
X14433444Y-15324198D02*
X14442967Y-15333722D01*
X14442967Y-15333722D02*
X14452491Y-15352769D01*
X14452491Y-15352769D02*
X14452491Y-15400388D01*
X14452491Y-15400388D02*
X14442967Y-15419436D01*
X14442967Y-15419436D02*
X14433444Y-15428960D01*
X14433444Y-15428960D02*
X14414396Y-15438484D01*
X14414396Y-15438484D02*
X14357253Y-15438484D01*
X14357253Y-15438484D02*
X14338206Y-15428960D01*
X14338206Y-15428960D02*
X14328682Y-15419436D01*
X14633444Y-15238484D02*
X14538206Y-15238484D01*
X14538206Y-15238484D02*
X14528682Y-15333722D01*
X14528682Y-15333722D02*
X14538206Y-15324198D01*
X14538206Y-15324198D02*
X14557253Y-15314674D01*
X14557253Y-15314674D02*
X14604872Y-15314674D01*
X14604872Y-15314674D02*
X14623920Y-15324198D01*
X14623920Y-15324198D02*
X14633444Y-15333722D01*
X14633444Y-15333722D02*
X14642967Y-15352769D01*
X14642967Y-15352769D02*
X14642967Y-15400388D01*
X14642967Y-15400388D02*
X14633444Y-15419436D01*
X14633444Y-15419436D02*
X14623920Y-15428960D01*
X14623920Y-15428960D02*
X14604872Y-15438484D01*
X14604872Y-15438484D02*
X14557253Y-15438484D01*
X14557253Y-15438484D02*
X14538206Y-15428960D01*
X14538206Y-15428960D02*
X14528682Y-15419436D01*
X14814396Y-15305150D02*
X14814396Y-15438484D01*
X14766777Y-15228960D02*
X14719158Y-15371817D01*
X14719158Y-15371817D02*
X14842967Y-15371817D01*
X14909634Y-15238484D02*
X14909634Y-15276579D01*
X14985825Y-15238484D02*
X14985825Y-15276579D01*
X15281063Y-15514674D02*
X15271539Y-15505150D01*
X15271539Y-15505150D02*
X15252491Y-15476579D01*
X15252491Y-15476579D02*
X15242968Y-15457531D01*
X15242968Y-15457531D02*
X15233444Y-15428960D01*
X15233444Y-15428960D02*
X15223920Y-15381341D01*
X15223920Y-15381341D02*
X15223920Y-15343246D01*
X15223920Y-15343246D02*
X15233444Y-15295627D01*
X15233444Y-15295627D02*
X15242968Y-15267055D01*
X15242968Y-15267055D02*
X15252491Y-15248008D01*
X15252491Y-15248008D02*
X15271539Y-15219436D01*
X15271539Y-15219436D02*
X15281063Y-15209912D01*
X15347729Y-15257531D02*
X15357253Y-15248008D01*
X15357253Y-15248008D02*
X15376301Y-15238484D01*
X15376301Y-15238484D02*
X15423920Y-15238484D01*
X15423920Y-15238484D02*
X15442968Y-15248008D01*
X15442968Y-15248008D02*
X15452491Y-15257531D01*
X15452491Y-15257531D02*
X15462015Y-15276579D01*
X15462015Y-15276579D02*
X15462015Y-15295627D01*
X15462015Y-15295627D02*
X15452491Y-15324198D01*
X15452491Y-15324198D02*
X15338206Y-15438484D01*
X15338206Y-15438484D02*
X15462015Y-15438484D01*
X15700110Y-15438484D02*
X15700110Y-15238484D01*
X15785825Y-15438484D02*
X15785825Y-15333722D01*
X15785825Y-15333722D02*
X15776301Y-15314674D01*
X15776301Y-15314674D02*
X15757253Y-15305150D01*
X15757253Y-15305150D02*
X15728682Y-15305150D01*
X15728682Y-15305150D02*
X15709634Y-15314674D01*
X15709634Y-15314674D02*
X15700110Y-15324198D01*
X15909634Y-15438484D02*
X15890587Y-15428960D01*
X15890587Y-15428960D02*
X15881063Y-15419436D01*
X15881063Y-15419436D02*
X15871539Y-15400388D01*
X15871539Y-15400388D02*
X15871539Y-15343246D01*
X15871539Y-15343246D02*
X15881063Y-15324198D01*
X15881063Y-15324198D02*
X15890587Y-15314674D01*
X15890587Y-15314674D02*
X15909634Y-15305150D01*
X15909634Y-15305150D02*
X15938206Y-15305150D01*
X15938206Y-15305150D02*
X15957253Y-15314674D01*
X15957253Y-15314674D02*
X15966777Y-15324198D01*
X15966777Y-15324198D02*
X15976301Y-15343246D01*
X15976301Y-15343246D02*
X15976301Y-15400388D01*
X15976301Y-15400388D02*
X15966777Y-15419436D01*
X15966777Y-15419436D02*
X15957253Y-15428960D01*
X15957253Y-15428960D02*
X15938206Y-15438484D01*
X15938206Y-15438484D02*
X15909634Y-15438484D01*
X16090587Y-15438484D02*
X16071539Y-15428960D01*
X16071539Y-15428960D02*
X16062015Y-15409912D01*
X16062015Y-15409912D02*
X16062015Y-15238484D01*
X16242968Y-15428960D02*
X16223920Y-15438484D01*
X16223920Y-15438484D02*
X16185825Y-15438484D01*
X16185825Y-15438484D02*
X16166777Y-15428960D01*
X16166777Y-15428960D02*
X16157253Y-15409912D01*
X16157253Y-15409912D02*
X16157253Y-15333722D01*
X16157253Y-15333722D02*
X16166777Y-15314674D01*
X16166777Y-15314674D02*
X16185825Y-15305150D01*
X16185825Y-15305150D02*
X16223920Y-15305150D01*
X16223920Y-15305150D02*
X16242968Y-15314674D01*
X16242968Y-15314674D02*
X16252491Y-15333722D01*
X16252491Y-15333722D02*
X16252491Y-15352769D01*
X16252491Y-15352769D02*
X16157253Y-15371817D01*
X16328682Y-15428960D02*
X16347730Y-15438484D01*
X16347730Y-15438484D02*
X16385825Y-15438484D01*
X16385825Y-15438484D02*
X16404872Y-15428960D01*
X16404872Y-15428960D02*
X16414396Y-15409912D01*
X16414396Y-15409912D02*
X16414396Y-15400388D01*
X16414396Y-15400388D02*
X16404872Y-15381341D01*
X16404872Y-15381341D02*
X16385825Y-15371817D01*
X16385825Y-15371817D02*
X16357253Y-15371817D01*
X16357253Y-15371817D02*
X16338206Y-15362293D01*
X16338206Y-15362293D02*
X16328682Y-15343246D01*
X16328682Y-15343246D02*
X16328682Y-15333722D01*
X16328682Y-15333722D02*
X16338206Y-15314674D01*
X16338206Y-15314674D02*
X16357253Y-15305150D01*
X16357253Y-15305150D02*
X16385825Y-15305150D01*
X16385825Y-15305150D02*
X16404872Y-15314674D01*
X16481063Y-15514674D02*
X16490587Y-15505150D01*
X16490587Y-15505150D02*
X16509634Y-15476579D01*
X16509634Y-15476579D02*
X16519158Y-15457531D01*
X16519158Y-15457531D02*
X16528682Y-15428960D01*
X16528682Y-15428960D02*
X16538206Y-15381341D01*
X16538206Y-15381341D02*
X16538206Y-15343246D01*
X16538206Y-15343246D02*
X16528682Y-15295627D01*
X16528682Y-15295627D02*
X16519158Y-15267055D01*
X16519158Y-15267055D02*
X16509634Y-15248008D01*
X16509634Y-15248008D02*
X16490587Y-15219436D01*
X16490587Y-15219436D02*
X16481063Y-15209912D01*
D10*
X11656000Y-15661000D02*
X11706000Y-15611000D01*
X11656000Y-15561000D01*
X11606000Y-15611000D01*
X11656000Y-15661000D01*
D11*
X12071539Y-15702484D02*
X11957253Y-15702484D01*
X12014396Y-15702484D02*
X12014396Y-15502484D01*
X12014396Y-15502484D02*
X11995348Y-15531055D01*
X11995348Y-15531055D02*
X11976301Y-15550103D01*
X11976301Y-15550103D02*
X11957253Y-15559627D01*
X12157253Y-15683436D02*
X12166777Y-15692960D01*
X12166777Y-15692960D02*
X12157253Y-15702484D01*
X12157253Y-15702484D02*
X12147729Y-15692960D01*
X12147729Y-15692960D02*
X12157253Y-15683436D01*
X12157253Y-15683436D02*
X12157253Y-15702484D01*
X12290586Y-15502484D02*
X12309634Y-15502484D01*
X12309634Y-15502484D02*
X12328682Y-15512008D01*
X12328682Y-15512008D02*
X12338205Y-15521531D01*
X12338205Y-15521531D02*
X12347729Y-15540579D01*
X12347729Y-15540579D02*
X12357253Y-15578674D01*
X12357253Y-15578674D02*
X12357253Y-15626293D01*
X12357253Y-15626293D02*
X12347729Y-15664388D01*
X12347729Y-15664388D02*
X12338205Y-15683436D01*
X12338205Y-15683436D02*
X12328682Y-15692960D01*
X12328682Y-15692960D02*
X12309634Y-15702484D01*
X12309634Y-15702484D02*
X12290586Y-15702484D01*
X12290586Y-15702484D02*
X12271539Y-15692960D01*
X12271539Y-15692960D02*
X12262015Y-15683436D01*
X12262015Y-15683436D02*
X12252491Y-15664388D01*
X12252491Y-15664388D02*
X12242967Y-15626293D01*
X12242967Y-15626293D02*
X12242967Y-15578674D01*
X12242967Y-15578674D02*
X12252491Y-15540579D01*
X12252491Y-15540579D02*
X12262015Y-15521531D01*
X12262015Y-15521531D02*
X12271539Y-15512008D01*
X12271539Y-15512008D02*
X12290586Y-15502484D01*
X12481062Y-15502484D02*
X12500110Y-15502484D01*
X12500110Y-15502484D02*
X12519158Y-15512008D01*
X12519158Y-15512008D02*
X12528682Y-15521531D01*
X12528682Y-15521531D02*
X12538205Y-15540579D01*
X12538205Y-15540579D02*
X12547729Y-15578674D01*
X12547729Y-15578674D02*
X12547729Y-15626293D01*
X12547729Y-15626293D02*
X12538205Y-15664388D01*
X12538205Y-15664388D02*
X12528682Y-15683436D01*
X12528682Y-15683436D02*
X12519158Y-15692960D01*
X12519158Y-15692960D02*
X12500110Y-15702484D01*
X12500110Y-15702484D02*
X12481062Y-15702484D01*
X12481062Y-15702484D02*
X12462015Y-15692960D01*
X12462015Y-15692960D02*
X12452491Y-15683436D01*
X12452491Y-15683436D02*
X12442967Y-15664388D01*
X12442967Y-15664388D02*
X12433443Y-15626293D01*
X12433443Y-15626293D02*
X12433443Y-15578674D01*
X12433443Y-15578674D02*
X12442967Y-15540579D01*
X12442967Y-15540579D02*
X12452491Y-15521531D01*
X12452491Y-15521531D02*
X12462015Y-15512008D01*
X12462015Y-15512008D02*
X12481062Y-15502484D01*
X12671539Y-15502484D02*
X12690586Y-15502484D01*
X12690586Y-15502484D02*
X12709634Y-15512008D01*
X12709634Y-15512008D02*
X12719158Y-15521531D01*
X12719158Y-15521531D02*
X12728682Y-15540579D01*
X12728682Y-15540579D02*
X12738205Y-15578674D01*
X12738205Y-15578674D02*
X12738205Y-15626293D01*
X12738205Y-15626293D02*
X12728682Y-15664388D01*
X12728682Y-15664388D02*
X12719158Y-15683436D01*
X12719158Y-15683436D02*
X12709634Y-15692960D01*
X12709634Y-15692960D02*
X12690586Y-15702484D01*
X12690586Y-15702484D02*
X12671539Y-15702484D01*
X12671539Y-15702484D02*
X12652491Y-15692960D01*
X12652491Y-15692960D02*
X12642967Y-15683436D01*
X12642967Y-15683436D02*
X12633443Y-15664388D01*
X12633443Y-15664388D02*
X12623920Y-15626293D01*
X12623920Y-15626293D02*
X12623920Y-15578674D01*
X12623920Y-15578674D02*
X12633443Y-15540579D01*
X12633443Y-15540579D02*
X12642967Y-15521531D01*
X12642967Y-15521531D02*
X12652491Y-15512008D01*
X12652491Y-15512008D02*
X12671539Y-15502484D01*
X12823920Y-15702484D02*
X12823920Y-15569150D01*
X12823920Y-15588198D02*
X12833443Y-15578674D01*
X12833443Y-15578674D02*
X12852491Y-15569150D01*
X12852491Y-15569150D02*
X12881063Y-15569150D01*
X12881063Y-15569150D02*
X12900110Y-15578674D01*
X12900110Y-15578674D02*
X12909634Y-15597722D01*
X12909634Y-15597722D02*
X12909634Y-15702484D01*
X12909634Y-15597722D02*
X12919158Y-15578674D01*
X12919158Y-15578674D02*
X12938205Y-15569150D01*
X12938205Y-15569150D02*
X12966777Y-15569150D01*
X12966777Y-15569150D02*
X12985824Y-15578674D01*
X12985824Y-15578674D02*
X12995348Y-15597722D01*
X12995348Y-15597722D02*
X12995348Y-15702484D01*
X13090586Y-15702484D02*
X13090586Y-15569150D01*
X13090586Y-15588198D02*
X13100110Y-15578674D01*
X13100110Y-15578674D02*
X13119158Y-15569150D01*
X13119158Y-15569150D02*
X13147729Y-15569150D01*
X13147729Y-15569150D02*
X13166777Y-15578674D01*
X13166777Y-15578674D02*
X13176301Y-15597722D01*
X13176301Y-15597722D02*
X13176301Y-15702484D01*
X13176301Y-15597722D02*
X13185824Y-15578674D01*
X13185824Y-15578674D02*
X13204872Y-15569150D01*
X13204872Y-15569150D02*
X13233443Y-15569150D01*
X13233443Y-15569150D02*
X13252491Y-15578674D01*
X13252491Y-15578674D02*
X13262015Y-15597722D01*
X13262015Y-15597722D02*
X13262015Y-15702484D01*
X13652491Y-15492960D02*
X13481063Y-15750103D01*
X13909634Y-15502484D02*
X13928682Y-15502484D01*
X13928682Y-15502484D02*
X13947729Y-15512008D01*
X13947729Y-15512008D02*
X13957253Y-15521531D01*
X13957253Y-15521531D02*
X13966777Y-15540579D01*
X13966777Y-15540579D02*
X13976301Y-15578674D01*
X13976301Y-15578674D02*
X13976301Y-15626293D01*
X13976301Y-15626293D02*
X13966777Y-15664388D01*
X13966777Y-15664388D02*
X13957253Y-15683436D01*
X13957253Y-15683436D02*
X13947729Y-15692960D01*
X13947729Y-15692960D02*
X13928682Y-15702484D01*
X13928682Y-15702484D02*
X13909634Y-15702484D01*
X13909634Y-15702484D02*
X13890586Y-15692960D01*
X13890586Y-15692960D02*
X13881063Y-15683436D01*
X13881063Y-15683436D02*
X13871539Y-15664388D01*
X13871539Y-15664388D02*
X13862015Y-15626293D01*
X13862015Y-15626293D02*
X13862015Y-15578674D01*
X13862015Y-15578674D02*
X13871539Y-15540579D01*
X13871539Y-15540579D02*
X13881063Y-15521531D01*
X13881063Y-15521531D02*
X13890586Y-15512008D01*
X13890586Y-15512008D02*
X13909634Y-15502484D01*
X14062015Y-15683436D02*
X14071539Y-15692960D01*
X14071539Y-15692960D02*
X14062015Y-15702484D01*
X14062015Y-15702484D02*
X14052491Y-15692960D01*
X14052491Y-15692960D02*
X14062015Y-15683436D01*
X14062015Y-15683436D02*
X14062015Y-15702484D01*
X14195348Y-15502484D02*
X14214396Y-15502484D01*
X14214396Y-15502484D02*
X14233444Y-15512008D01*
X14233444Y-15512008D02*
X14242967Y-15521531D01*
X14242967Y-15521531D02*
X14252491Y-15540579D01*
X14252491Y-15540579D02*
X14262015Y-15578674D01*
X14262015Y-15578674D02*
X14262015Y-15626293D01*
X14262015Y-15626293D02*
X14252491Y-15664388D01*
X14252491Y-15664388D02*
X14242967Y-15683436D01*
X14242967Y-15683436D02*
X14233444Y-15692960D01*
X14233444Y-15692960D02*
X14214396Y-15702484D01*
X14214396Y-15702484D02*
X14195348Y-15702484D01*
X14195348Y-15702484D02*
X14176301Y-15692960D01*
X14176301Y-15692960D02*
X14166777Y-15683436D01*
X14166777Y-15683436D02*
X14157253Y-15664388D01*
X14157253Y-15664388D02*
X14147729Y-15626293D01*
X14147729Y-15626293D02*
X14147729Y-15578674D01*
X14147729Y-15578674D02*
X14157253Y-15540579D01*
X14157253Y-15540579D02*
X14166777Y-15521531D01*
X14166777Y-15521531D02*
X14176301Y-15512008D01*
X14176301Y-15512008D02*
X14195348Y-15502484D01*
X14328682Y-15502484D02*
X14452491Y-15502484D01*
X14452491Y-15502484D02*
X14385825Y-15578674D01*
X14385825Y-15578674D02*
X14414396Y-15578674D01*
X14414396Y-15578674D02*
X14433444Y-15588198D01*
X14433444Y-15588198D02*
X14442967Y-15597722D01*
X14442967Y-15597722D02*
X14452491Y-15616769D01*
X14452491Y-15616769D02*
X14452491Y-15664388D01*
X14452491Y-15664388D02*
X14442967Y-15683436D01*
X14442967Y-15683436D02*
X14433444Y-15692960D01*
X14433444Y-15692960D02*
X14414396Y-15702484D01*
X14414396Y-15702484D02*
X14357253Y-15702484D01*
X14357253Y-15702484D02*
X14338206Y-15692960D01*
X14338206Y-15692960D02*
X14328682Y-15683436D01*
X14547729Y-15702484D02*
X14585825Y-15702484D01*
X14585825Y-15702484D02*
X14604872Y-15692960D01*
X14604872Y-15692960D02*
X14614396Y-15683436D01*
X14614396Y-15683436D02*
X14633444Y-15654865D01*
X14633444Y-15654865D02*
X14642967Y-15616769D01*
X14642967Y-15616769D02*
X14642967Y-15540579D01*
X14642967Y-15540579D02*
X14633444Y-15521531D01*
X14633444Y-15521531D02*
X14623920Y-15512008D01*
X14623920Y-15512008D02*
X14604872Y-15502484D01*
X14604872Y-15502484D02*
X14566777Y-15502484D01*
X14566777Y-15502484D02*
X14547729Y-15512008D01*
X14547729Y-15512008D02*
X14538206Y-15521531D01*
X14538206Y-15521531D02*
X14528682Y-15540579D01*
X14528682Y-15540579D02*
X14528682Y-15588198D01*
X14528682Y-15588198D02*
X14538206Y-15607246D01*
X14538206Y-15607246D02*
X14547729Y-15616769D01*
X14547729Y-15616769D02*
X14566777Y-15626293D01*
X14566777Y-15626293D02*
X14604872Y-15626293D01*
X14604872Y-15626293D02*
X14623920Y-15616769D01*
X14623920Y-15616769D02*
X14633444Y-15607246D01*
X14633444Y-15607246D02*
X14642967Y-15588198D01*
X14814396Y-15569150D02*
X14814396Y-15702484D01*
X14766777Y-15492960D02*
X14719158Y-15635817D01*
X14719158Y-15635817D02*
X14842967Y-15635817D01*
X14909634Y-15502484D02*
X14909634Y-15540579D01*
X14985825Y-15502484D02*
X14985825Y-15540579D01*
X15281063Y-15778674D02*
X15271539Y-15769150D01*
X15271539Y-15769150D02*
X15252491Y-15740579D01*
X15252491Y-15740579D02*
X15242968Y-15721531D01*
X15242968Y-15721531D02*
X15233444Y-15692960D01*
X15233444Y-15692960D02*
X15223920Y-15645341D01*
X15223920Y-15645341D02*
X15223920Y-15607246D01*
X15223920Y-15607246D02*
X15233444Y-15559627D01*
X15233444Y-15559627D02*
X15242968Y-15531055D01*
X15242968Y-15531055D02*
X15252491Y-15512008D01*
X15252491Y-15512008D02*
X15271539Y-15483436D01*
X15271539Y-15483436D02*
X15281063Y-15473912D01*
X15442968Y-15569150D02*
X15442968Y-15702484D01*
X15395348Y-15492960D02*
X15347729Y-15635817D01*
X15347729Y-15635817D02*
X15471539Y-15635817D01*
X15528682Y-15502484D02*
X15652491Y-15502484D01*
X15652491Y-15502484D02*
X15585825Y-15578674D01*
X15585825Y-15578674D02*
X15614396Y-15578674D01*
X15614396Y-15578674D02*
X15633444Y-15588198D01*
X15633444Y-15588198D02*
X15642968Y-15597722D01*
X15642968Y-15597722D02*
X15652491Y-15616769D01*
X15652491Y-15616769D02*
X15652491Y-15664388D01*
X15652491Y-15664388D02*
X15642968Y-15683436D01*
X15642968Y-15683436D02*
X15633444Y-15692960D01*
X15633444Y-15692960D02*
X15614396Y-15702484D01*
X15614396Y-15702484D02*
X15557253Y-15702484D01*
X15557253Y-15702484D02*
X15538206Y-15692960D01*
X15538206Y-15692960D02*
X15528682Y-15683436D01*
X15890587Y-15702484D02*
X15890587Y-15502484D01*
X15976301Y-15702484D02*
X15976301Y-15597722D01*
X15976301Y-15597722D02*
X15966777Y-15578674D01*
X15966777Y-15578674D02*
X15947730Y-15569150D01*
X15947730Y-15569150D02*
X15919158Y-15569150D01*
X15919158Y-15569150D02*
X15900110Y-15578674D01*
X15900110Y-15578674D02*
X15890587Y-15588198D01*
X16100110Y-15702484D02*
X16081063Y-15692960D01*
X16081063Y-15692960D02*
X16071539Y-15683436D01*
X16071539Y-15683436D02*
X16062015Y-15664388D01*
X16062015Y-15664388D02*
X16062015Y-15607246D01*
X16062015Y-15607246D02*
X16071539Y-15588198D01*
X16071539Y-15588198D02*
X16081063Y-15578674D01*
X16081063Y-15578674D02*
X16100110Y-15569150D01*
X16100110Y-15569150D02*
X16128682Y-15569150D01*
X16128682Y-15569150D02*
X16147730Y-15578674D01*
X16147730Y-15578674D02*
X16157253Y-15588198D01*
X16157253Y-15588198D02*
X16166777Y-15607246D01*
X16166777Y-15607246D02*
X16166777Y-15664388D01*
X16166777Y-15664388D02*
X16157253Y-15683436D01*
X16157253Y-15683436D02*
X16147730Y-15692960D01*
X16147730Y-15692960D02*
X16128682Y-15702484D01*
X16128682Y-15702484D02*
X16100110Y-15702484D01*
X16281063Y-15702484D02*
X16262015Y-15692960D01*
X16262015Y-15692960D02*
X16252491Y-15673912D01*
X16252491Y-15673912D02*
X16252491Y-15502484D01*
X16433444Y-15692960D02*
X16414396Y-15702484D01*
X16414396Y-15702484D02*
X16376301Y-15702484D01*
X16376301Y-15702484D02*
X16357253Y-15692960D01*
X16357253Y-15692960D02*
X16347730Y-15673912D01*
X16347730Y-15673912D02*
X16347730Y-15597722D01*
X16347730Y-15597722D02*
X16357253Y-15578674D01*
X16357253Y-15578674D02*
X16376301Y-15569150D01*
X16376301Y-15569150D02*
X16414396Y-15569150D01*
X16414396Y-15569150D02*
X16433444Y-15578674D01*
X16433444Y-15578674D02*
X16442968Y-15597722D01*
X16442968Y-15597722D02*
X16442968Y-15616769D01*
X16442968Y-15616769D02*
X16347730Y-15635817D01*
X16519158Y-15692960D02*
X16538206Y-15702484D01*
X16538206Y-15702484D02*
X16576301Y-15702484D01*
X16576301Y-15702484D02*
X16595349Y-15692960D01*
X16595349Y-15692960D02*
X16604872Y-15673912D01*
X16604872Y-15673912D02*
X16604872Y-15664388D01*
X16604872Y-15664388D02*
X16595349Y-15645341D01*
X16595349Y-15645341D02*
X16576301Y-15635817D01*
X16576301Y-15635817D02*
X16547730Y-15635817D01*
X16547730Y-15635817D02*
X16528682Y-15626293D01*
X16528682Y-15626293D02*
X16519158Y-15607246D01*
X16519158Y-15607246D02*
X16519158Y-15597722D01*
X16519158Y-15597722D02*
X16528682Y-15578674D01*
X16528682Y-15578674D02*
X16547730Y-15569150D01*
X16547730Y-15569150D02*
X16576301Y-15569150D01*
X16576301Y-15569150D02*
X16595349Y-15578674D01*
X16671539Y-15778674D02*
X16681063Y-15769150D01*
X16681063Y-15769150D02*
X16700111Y-15740579D01*
X16700111Y-15740579D02*
X16709634Y-15721531D01*
X16709634Y-15721531D02*
X16719158Y-15692960D01*
X16719158Y-15692960D02*
X16728682Y-15645341D01*
X16728682Y-15645341D02*
X16728682Y-15607246D01*
X16728682Y-15607246D02*
X16719158Y-15559627D01*
X16719158Y-15559627D02*
X16709634Y-15531055D01*
X16709634Y-15531055D02*
X16700111Y-15512008D01*
X16700111Y-15512008D02*
X16681063Y-15483436D01*
X16681063Y-15483436D02*
X16671539Y-15473912D01*
D12*
X11576000Y-15810000D02*
X11706000Y-15940000D01*
X11706000Y-15810000D02*
X11576000Y-15940000D01*
X11706000Y-15875000D02*
G75*
G02*
X11576000Y-15875000I-65000J0D01*
G01*
X11576000Y-15875000D02*
G75*
G02*
X11706000Y-15875000I65000J0D01*
G01*
D11*
X12071539Y-15966484D02*
X11957253Y-15966484D01*
X12014396Y-15966484D02*
X12014396Y-15766484D01*
X12014396Y-15766484D02*
X11995348Y-15795055D01*
X11995348Y-15795055D02*
X11976301Y-15814103D01*
X11976301Y-15814103D02*
X11957253Y-15823627D01*
X12157253Y-15947436D02*
X12166777Y-15956960D01*
X12166777Y-15956960D02*
X12157253Y-15966484D01*
X12157253Y-15966484D02*
X12147729Y-15956960D01*
X12147729Y-15956960D02*
X12157253Y-15947436D01*
X12157253Y-15947436D02*
X12157253Y-15966484D01*
X12233443Y-15766484D02*
X12357253Y-15766484D01*
X12357253Y-15766484D02*
X12290586Y-15842674D01*
X12290586Y-15842674D02*
X12319158Y-15842674D01*
X12319158Y-15842674D02*
X12338205Y-15852198D01*
X12338205Y-15852198D02*
X12347729Y-15861722D01*
X12347729Y-15861722D02*
X12357253Y-15880769D01*
X12357253Y-15880769D02*
X12357253Y-15928388D01*
X12357253Y-15928388D02*
X12347729Y-15947436D01*
X12347729Y-15947436D02*
X12338205Y-15956960D01*
X12338205Y-15956960D02*
X12319158Y-15966484D01*
X12319158Y-15966484D02*
X12262015Y-15966484D01*
X12262015Y-15966484D02*
X12242967Y-15956960D01*
X12242967Y-15956960D02*
X12233443Y-15947436D01*
X12481062Y-15766484D02*
X12500110Y-15766484D01*
X12500110Y-15766484D02*
X12519158Y-15776008D01*
X12519158Y-15776008D02*
X12528682Y-15785531D01*
X12528682Y-15785531D02*
X12538205Y-15804579D01*
X12538205Y-15804579D02*
X12547729Y-15842674D01*
X12547729Y-15842674D02*
X12547729Y-15890293D01*
X12547729Y-15890293D02*
X12538205Y-15928388D01*
X12538205Y-15928388D02*
X12528682Y-15947436D01*
X12528682Y-15947436D02*
X12519158Y-15956960D01*
X12519158Y-15956960D02*
X12500110Y-15966484D01*
X12500110Y-15966484D02*
X12481062Y-15966484D01*
X12481062Y-15966484D02*
X12462015Y-15956960D01*
X12462015Y-15956960D02*
X12452491Y-15947436D01*
X12452491Y-15947436D02*
X12442967Y-15928388D01*
X12442967Y-15928388D02*
X12433443Y-15890293D01*
X12433443Y-15890293D02*
X12433443Y-15842674D01*
X12433443Y-15842674D02*
X12442967Y-15804579D01*
X12442967Y-15804579D02*
X12452491Y-15785531D01*
X12452491Y-15785531D02*
X12462015Y-15776008D01*
X12462015Y-15776008D02*
X12481062Y-15766484D01*
X12671539Y-15766484D02*
X12690586Y-15766484D01*
X12690586Y-15766484D02*
X12709634Y-15776008D01*
X12709634Y-15776008D02*
X12719158Y-15785531D01*
X12719158Y-15785531D02*
X12728682Y-15804579D01*
X12728682Y-15804579D02*
X12738205Y-15842674D01*
X12738205Y-15842674D02*
X12738205Y-15890293D01*
X12738205Y-15890293D02*
X12728682Y-15928388D01*
X12728682Y-15928388D02*
X12719158Y-15947436D01*
X12719158Y-15947436D02*
X12709634Y-15956960D01*
X12709634Y-15956960D02*
X12690586Y-15966484D01*
X12690586Y-15966484D02*
X12671539Y-15966484D01*
X12671539Y-15966484D02*
X12652491Y-15956960D01*
X12652491Y-15956960D02*
X12642967Y-15947436D01*
X12642967Y-15947436D02*
X12633443Y-15928388D01*
X12633443Y-15928388D02*
X12623920Y-15890293D01*
X12623920Y-15890293D02*
X12623920Y-15842674D01*
X12623920Y-15842674D02*
X12633443Y-15804579D01*
X12633443Y-15804579D02*
X12642967Y-15785531D01*
X12642967Y-15785531D02*
X12652491Y-15776008D01*
X12652491Y-15776008D02*
X12671539Y-15766484D01*
X12823920Y-15966484D02*
X12823920Y-15833150D01*
X12823920Y-15852198D02*
X12833443Y-15842674D01*
X12833443Y-15842674D02*
X12852491Y-15833150D01*
X12852491Y-15833150D02*
X12881063Y-15833150D01*
X12881063Y-15833150D02*
X12900110Y-15842674D01*
X12900110Y-15842674D02*
X12909634Y-15861722D01*
X12909634Y-15861722D02*
X12909634Y-15966484D01*
X12909634Y-15861722D02*
X12919158Y-15842674D01*
X12919158Y-15842674D02*
X12938205Y-15833150D01*
X12938205Y-15833150D02*
X12966777Y-15833150D01*
X12966777Y-15833150D02*
X12985824Y-15842674D01*
X12985824Y-15842674D02*
X12995348Y-15861722D01*
X12995348Y-15861722D02*
X12995348Y-15966484D01*
X13090586Y-15966484D02*
X13090586Y-15833150D01*
X13090586Y-15852198D02*
X13100110Y-15842674D01*
X13100110Y-15842674D02*
X13119158Y-15833150D01*
X13119158Y-15833150D02*
X13147729Y-15833150D01*
X13147729Y-15833150D02*
X13166777Y-15842674D01*
X13166777Y-15842674D02*
X13176301Y-15861722D01*
X13176301Y-15861722D02*
X13176301Y-15966484D01*
X13176301Y-15861722D02*
X13185824Y-15842674D01*
X13185824Y-15842674D02*
X13204872Y-15833150D01*
X13204872Y-15833150D02*
X13233443Y-15833150D01*
X13233443Y-15833150D02*
X13252491Y-15842674D01*
X13252491Y-15842674D02*
X13262015Y-15861722D01*
X13262015Y-15861722D02*
X13262015Y-15966484D01*
X13652491Y-15756960D02*
X13481063Y-16014103D01*
X13909634Y-15766484D02*
X13928682Y-15766484D01*
X13928682Y-15766484D02*
X13947729Y-15776008D01*
X13947729Y-15776008D02*
X13957253Y-15785531D01*
X13957253Y-15785531D02*
X13966777Y-15804579D01*
X13966777Y-15804579D02*
X13976301Y-15842674D01*
X13976301Y-15842674D02*
X13976301Y-15890293D01*
X13976301Y-15890293D02*
X13966777Y-15928388D01*
X13966777Y-15928388D02*
X13957253Y-15947436D01*
X13957253Y-15947436D02*
X13947729Y-15956960D01*
X13947729Y-15956960D02*
X13928682Y-15966484D01*
X13928682Y-15966484D02*
X13909634Y-15966484D01*
X13909634Y-15966484D02*
X13890586Y-15956960D01*
X13890586Y-15956960D02*
X13881063Y-15947436D01*
X13881063Y-15947436D02*
X13871539Y-15928388D01*
X13871539Y-15928388D02*
X13862015Y-15890293D01*
X13862015Y-15890293D02*
X13862015Y-15842674D01*
X13862015Y-15842674D02*
X13871539Y-15804579D01*
X13871539Y-15804579D02*
X13881063Y-15785531D01*
X13881063Y-15785531D02*
X13890586Y-15776008D01*
X13890586Y-15776008D02*
X13909634Y-15766484D01*
X14062015Y-15947436D02*
X14071539Y-15956960D01*
X14071539Y-15956960D02*
X14062015Y-15966484D01*
X14062015Y-15966484D02*
X14052491Y-15956960D01*
X14052491Y-15956960D02*
X14062015Y-15947436D01*
X14062015Y-15947436D02*
X14062015Y-15966484D01*
X14195348Y-15766484D02*
X14214396Y-15766484D01*
X14214396Y-15766484D02*
X14233444Y-15776008D01*
X14233444Y-15776008D02*
X14242967Y-15785531D01*
X14242967Y-15785531D02*
X14252491Y-15804579D01*
X14252491Y-15804579D02*
X14262015Y-15842674D01*
X14262015Y-15842674D02*
X14262015Y-15890293D01*
X14262015Y-15890293D02*
X14252491Y-15928388D01*
X14252491Y-15928388D02*
X14242967Y-15947436D01*
X14242967Y-15947436D02*
X14233444Y-15956960D01*
X14233444Y-15956960D02*
X14214396Y-15966484D01*
X14214396Y-15966484D02*
X14195348Y-15966484D01*
X14195348Y-15966484D02*
X14176301Y-15956960D01*
X14176301Y-15956960D02*
X14166777Y-15947436D01*
X14166777Y-15947436D02*
X14157253Y-15928388D01*
X14157253Y-15928388D02*
X14147729Y-15890293D01*
X14147729Y-15890293D02*
X14147729Y-15842674D01*
X14147729Y-15842674D02*
X14157253Y-15804579D01*
X14157253Y-15804579D02*
X14166777Y-15785531D01*
X14166777Y-15785531D02*
X14176301Y-15776008D01*
X14176301Y-15776008D02*
X14195348Y-15766484D01*
X14442967Y-15766484D02*
X14347729Y-15766484D01*
X14347729Y-15766484D02*
X14338206Y-15861722D01*
X14338206Y-15861722D02*
X14347729Y-15852198D01*
X14347729Y-15852198D02*
X14366777Y-15842674D01*
X14366777Y-15842674D02*
X14414396Y-15842674D01*
X14414396Y-15842674D02*
X14433444Y-15852198D01*
X14433444Y-15852198D02*
X14442967Y-15861722D01*
X14442967Y-15861722D02*
X14452491Y-15880769D01*
X14452491Y-15880769D02*
X14452491Y-15928388D01*
X14452491Y-15928388D02*
X14442967Y-15947436D01*
X14442967Y-15947436D02*
X14433444Y-15956960D01*
X14433444Y-15956960D02*
X14414396Y-15966484D01*
X14414396Y-15966484D02*
X14366777Y-15966484D01*
X14366777Y-15966484D02*
X14347729Y-15956960D01*
X14347729Y-15956960D02*
X14338206Y-15947436D01*
X14642967Y-15966484D02*
X14528682Y-15966484D01*
X14585825Y-15966484D02*
X14585825Y-15766484D01*
X14585825Y-15766484D02*
X14566777Y-15795055D01*
X14566777Y-15795055D02*
X14547729Y-15814103D01*
X14547729Y-15814103D02*
X14528682Y-15823627D01*
X14719158Y-15785531D02*
X14728682Y-15776008D01*
X14728682Y-15776008D02*
X14747729Y-15766484D01*
X14747729Y-15766484D02*
X14795348Y-15766484D01*
X14795348Y-15766484D02*
X14814396Y-15776008D01*
X14814396Y-15776008D02*
X14823920Y-15785531D01*
X14823920Y-15785531D02*
X14833444Y-15804579D01*
X14833444Y-15804579D02*
X14833444Y-15823627D01*
X14833444Y-15823627D02*
X14823920Y-15852198D01*
X14823920Y-15852198D02*
X14709634Y-15966484D01*
X14709634Y-15966484D02*
X14833444Y-15966484D01*
X14909634Y-15766484D02*
X14909634Y-15804579D01*
X14985825Y-15766484D02*
X14985825Y-15804579D01*
X15281063Y-16042674D02*
X15271539Y-16033150D01*
X15271539Y-16033150D02*
X15252491Y-16004579D01*
X15252491Y-16004579D02*
X15242968Y-15985531D01*
X15242968Y-15985531D02*
X15233444Y-15956960D01*
X15233444Y-15956960D02*
X15223920Y-15909341D01*
X15223920Y-15909341D02*
X15223920Y-15871246D01*
X15223920Y-15871246D02*
X15233444Y-15823627D01*
X15233444Y-15823627D02*
X15242968Y-15795055D01*
X15242968Y-15795055D02*
X15252491Y-15776008D01*
X15252491Y-15776008D02*
X15271539Y-15747436D01*
X15271539Y-15747436D02*
X15281063Y-15737912D01*
X15338206Y-15766484D02*
X15471539Y-15766484D01*
X15471539Y-15766484D02*
X15385825Y-15966484D01*
X15700110Y-15966484D02*
X15700110Y-15766484D01*
X15785825Y-15966484D02*
X15785825Y-15861722D01*
X15785825Y-15861722D02*
X15776301Y-15842674D01*
X15776301Y-15842674D02*
X15757253Y-15833150D01*
X15757253Y-15833150D02*
X15728682Y-15833150D01*
X15728682Y-15833150D02*
X15709634Y-15842674D01*
X15709634Y-15842674D02*
X15700110Y-15852198D01*
X15909634Y-15966484D02*
X15890587Y-15956960D01*
X15890587Y-15956960D02*
X15881063Y-15947436D01*
X15881063Y-15947436D02*
X15871539Y-15928388D01*
X15871539Y-15928388D02*
X15871539Y-15871246D01*
X15871539Y-15871246D02*
X15881063Y-15852198D01*
X15881063Y-15852198D02*
X15890587Y-15842674D01*
X15890587Y-15842674D02*
X15909634Y-15833150D01*
X15909634Y-15833150D02*
X15938206Y-15833150D01*
X15938206Y-15833150D02*
X15957253Y-15842674D01*
X15957253Y-15842674D02*
X15966777Y-15852198D01*
X15966777Y-15852198D02*
X15976301Y-15871246D01*
X15976301Y-15871246D02*
X15976301Y-15928388D01*
X15976301Y-15928388D02*
X15966777Y-15947436D01*
X15966777Y-15947436D02*
X15957253Y-15956960D01*
X15957253Y-15956960D02*
X15938206Y-15966484D01*
X15938206Y-15966484D02*
X15909634Y-15966484D01*
X16090587Y-15966484D02*
X16071539Y-15956960D01*
X16071539Y-15956960D02*
X16062015Y-15937912D01*
X16062015Y-15937912D02*
X16062015Y-15766484D01*
X16242968Y-15956960D02*
X16223920Y-15966484D01*
X16223920Y-15966484D02*
X16185825Y-15966484D01*
X16185825Y-15966484D02*
X16166777Y-15956960D01*
X16166777Y-15956960D02*
X16157253Y-15937912D01*
X16157253Y-15937912D02*
X16157253Y-15861722D01*
X16157253Y-15861722D02*
X16166777Y-15842674D01*
X16166777Y-15842674D02*
X16185825Y-15833150D01*
X16185825Y-15833150D02*
X16223920Y-15833150D01*
X16223920Y-15833150D02*
X16242968Y-15842674D01*
X16242968Y-15842674D02*
X16252491Y-15861722D01*
X16252491Y-15861722D02*
X16252491Y-15880769D01*
X16252491Y-15880769D02*
X16157253Y-15899817D01*
X16328682Y-15956960D02*
X16347730Y-15966484D01*
X16347730Y-15966484D02*
X16385825Y-15966484D01*
X16385825Y-15966484D02*
X16404872Y-15956960D01*
X16404872Y-15956960D02*
X16414396Y-15937912D01*
X16414396Y-15937912D02*
X16414396Y-15928388D01*
X16414396Y-15928388D02*
X16404872Y-15909341D01*
X16404872Y-15909341D02*
X16385825Y-15899817D01*
X16385825Y-15899817D02*
X16357253Y-15899817D01*
X16357253Y-15899817D02*
X16338206Y-15890293D01*
X16338206Y-15890293D02*
X16328682Y-15871246D01*
X16328682Y-15871246D02*
X16328682Y-15861722D01*
X16328682Y-15861722D02*
X16338206Y-15842674D01*
X16338206Y-15842674D02*
X16357253Y-15833150D01*
X16357253Y-15833150D02*
X16385825Y-15833150D01*
X16385825Y-15833150D02*
X16404872Y-15842674D01*
X16481063Y-16042674D02*
X16490587Y-16033150D01*
X16490587Y-16033150D02*
X16509634Y-16004579D01*
X16509634Y-16004579D02*
X16519158Y-15985531D01*
X16519158Y-15985531D02*
X16528682Y-15956960D01*
X16528682Y-15956960D02*
X16538206Y-15909341D01*
X16538206Y-15909341D02*
X16538206Y-15871246D01*
X16538206Y-15871246D02*
X16528682Y-15823627D01*
X16528682Y-15823627D02*
X16519158Y-15795055D01*
X16519158Y-15795055D02*
X16509634Y-15776008D01*
X16509634Y-15776008D02*
X16490587Y-15747436D01*
X16490587Y-15747436D02*
X16481063Y-15737912D01*
D13*
X11556000Y-16064000D02*
X11706000Y-16214000D01*
X11706000Y-16064000D02*
X11556000Y-16214000D01*
X11631000Y-16064000D02*
X11631000Y-16214000D01*
X11556000Y-16139000D02*
X11706000Y-16139000D01*
D11*
X12071539Y-16230484D02*
X11957253Y-16230484D01*
X12014396Y-16230484D02*
X12014396Y-16030484D01*
X12014396Y-16030484D02*
X11995348Y-16059055D01*
X11995348Y-16059055D02*
X11976301Y-16078103D01*
X11976301Y-16078103D02*
X11957253Y-16087627D01*
X12157253Y-16211436D02*
X12166777Y-16220960D01*
X12166777Y-16220960D02*
X12157253Y-16230484D01*
X12157253Y-16230484D02*
X12147729Y-16220960D01*
X12147729Y-16220960D02*
X12157253Y-16211436D01*
X12157253Y-16211436D02*
X12157253Y-16230484D01*
X12347729Y-16030484D02*
X12252491Y-16030484D01*
X12252491Y-16030484D02*
X12242967Y-16125722D01*
X12242967Y-16125722D02*
X12252491Y-16116198D01*
X12252491Y-16116198D02*
X12271539Y-16106674D01*
X12271539Y-16106674D02*
X12319158Y-16106674D01*
X12319158Y-16106674D02*
X12338205Y-16116198D01*
X12338205Y-16116198D02*
X12347729Y-16125722D01*
X12347729Y-16125722D02*
X12357253Y-16144769D01*
X12357253Y-16144769D02*
X12357253Y-16192388D01*
X12357253Y-16192388D02*
X12347729Y-16211436D01*
X12347729Y-16211436D02*
X12338205Y-16220960D01*
X12338205Y-16220960D02*
X12319158Y-16230484D01*
X12319158Y-16230484D02*
X12271539Y-16230484D01*
X12271539Y-16230484D02*
X12252491Y-16220960D01*
X12252491Y-16220960D02*
X12242967Y-16211436D01*
X12481062Y-16030484D02*
X12500110Y-16030484D01*
X12500110Y-16030484D02*
X12519158Y-16040008D01*
X12519158Y-16040008D02*
X12528682Y-16049531D01*
X12528682Y-16049531D02*
X12538205Y-16068579D01*
X12538205Y-16068579D02*
X12547729Y-16106674D01*
X12547729Y-16106674D02*
X12547729Y-16154293D01*
X12547729Y-16154293D02*
X12538205Y-16192388D01*
X12538205Y-16192388D02*
X12528682Y-16211436D01*
X12528682Y-16211436D02*
X12519158Y-16220960D01*
X12519158Y-16220960D02*
X12500110Y-16230484D01*
X12500110Y-16230484D02*
X12481062Y-16230484D01*
X12481062Y-16230484D02*
X12462015Y-16220960D01*
X12462015Y-16220960D02*
X12452491Y-16211436D01*
X12452491Y-16211436D02*
X12442967Y-16192388D01*
X12442967Y-16192388D02*
X12433443Y-16154293D01*
X12433443Y-16154293D02*
X12433443Y-16106674D01*
X12433443Y-16106674D02*
X12442967Y-16068579D01*
X12442967Y-16068579D02*
X12452491Y-16049531D01*
X12452491Y-16049531D02*
X12462015Y-16040008D01*
X12462015Y-16040008D02*
X12481062Y-16030484D01*
X12671539Y-16030484D02*
X12690586Y-16030484D01*
X12690586Y-16030484D02*
X12709634Y-16040008D01*
X12709634Y-16040008D02*
X12719158Y-16049531D01*
X12719158Y-16049531D02*
X12728682Y-16068579D01*
X12728682Y-16068579D02*
X12738205Y-16106674D01*
X12738205Y-16106674D02*
X12738205Y-16154293D01*
X12738205Y-16154293D02*
X12728682Y-16192388D01*
X12728682Y-16192388D02*
X12719158Y-16211436D01*
X12719158Y-16211436D02*
X12709634Y-16220960D01*
X12709634Y-16220960D02*
X12690586Y-16230484D01*
X12690586Y-16230484D02*
X12671539Y-16230484D01*
X12671539Y-16230484D02*
X12652491Y-16220960D01*
X12652491Y-16220960D02*
X12642967Y-16211436D01*
X12642967Y-16211436D02*
X12633443Y-16192388D01*
X12633443Y-16192388D02*
X12623920Y-16154293D01*
X12623920Y-16154293D02*
X12623920Y-16106674D01*
X12623920Y-16106674D02*
X12633443Y-16068579D01*
X12633443Y-16068579D02*
X12642967Y-16049531D01*
X12642967Y-16049531D02*
X12652491Y-16040008D01*
X12652491Y-16040008D02*
X12671539Y-16030484D01*
X12823920Y-16230484D02*
X12823920Y-16097150D01*
X12823920Y-16116198D02*
X12833443Y-16106674D01*
X12833443Y-16106674D02*
X12852491Y-16097150D01*
X12852491Y-16097150D02*
X12881063Y-16097150D01*
X12881063Y-16097150D02*
X12900110Y-16106674D01*
X12900110Y-16106674D02*
X12909634Y-16125722D01*
X12909634Y-16125722D02*
X12909634Y-16230484D01*
X12909634Y-16125722D02*
X12919158Y-16106674D01*
X12919158Y-16106674D02*
X12938205Y-16097150D01*
X12938205Y-16097150D02*
X12966777Y-16097150D01*
X12966777Y-16097150D02*
X12985824Y-16106674D01*
X12985824Y-16106674D02*
X12995348Y-16125722D01*
X12995348Y-16125722D02*
X12995348Y-16230484D01*
X13090586Y-16230484D02*
X13090586Y-16097150D01*
X13090586Y-16116198D02*
X13100110Y-16106674D01*
X13100110Y-16106674D02*
X13119158Y-16097150D01*
X13119158Y-16097150D02*
X13147729Y-16097150D01*
X13147729Y-16097150D02*
X13166777Y-16106674D01*
X13166777Y-16106674D02*
X13176301Y-16125722D01*
X13176301Y-16125722D02*
X13176301Y-16230484D01*
X13176301Y-16125722D02*
X13185824Y-16106674D01*
X13185824Y-16106674D02*
X13204872Y-16097150D01*
X13204872Y-16097150D02*
X13233443Y-16097150D01*
X13233443Y-16097150D02*
X13252491Y-16106674D01*
X13252491Y-16106674D02*
X13262015Y-16125722D01*
X13262015Y-16125722D02*
X13262015Y-16230484D01*
X13652491Y-16020960D02*
X13481063Y-16278103D01*
X13909634Y-16030484D02*
X13928682Y-16030484D01*
X13928682Y-16030484D02*
X13947729Y-16040008D01*
X13947729Y-16040008D02*
X13957253Y-16049531D01*
X13957253Y-16049531D02*
X13966777Y-16068579D01*
X13966777Y-16068579D02*
X13976301Y-16106674D01*
X13976301Y-16106674D02*
X13976301Y-16154293D01*
X13976301Y-16154293D02*
X13966777Y-16192388D01*
X13966777Y-16192388D02*
X13957253Y-16211436D01*
X13957253Y-16211436D02*
X13947729Y-16220960D01*
X13947729Y-16220960D02*
X13928682Y-16230484D01*
X13928682Y-16230484D02*
X13909634Y-16230484D01*
X13909634Y-16230484D02*
X13890586Y-16220960D01*
X13890586Y-16220960D02*
X13881063Y-16211436D01*
X13881063Y-16211436D02*
X13871539Y-16192388D01*
X13871539Y-16192388D02*
X13862015Y-16154293D01*
X13862015Y-16154293D02*
X13862015Y-16106674D01*
X13862015Y-16106674D02*
X13871539Y-16068579D01*
X13871539Y-16068579D02*
X13881063Y-16049531D01*
X13881063Y-16049531D02*
X13890586Y-16040008D01*
X13890586Y-16040008D02*
X13909634Y-16030484D01*
X14062015Y-16211436D02*
X14071539Y-16220960D01*
X14071539Y-16220960D02*
X14062015Y-16230484D01*
X14062015Y-16230484D02*
X14052491Y-16220960D01*
X14052491Y-16220960D02*
X14062015Y-16211436D01*
X14062015Y-16211436D02*
X14062015Y-16230484D01*
X14195348Y-16030484D02*
X14214396Y-16030484D01*
X14214396Y-16030484D02*
X14233444Y-16040008D01*
X14233444Y-16040008D02*
X14242967Y-16049531D01*
X14242967Y-16049531D02*
X14252491Y-16068579D01*
X14252491Y-16068579D02*
X14262015Y-16106674D01*
X14262015Y-16106674D02*
X14262015Y-16154293D01*
X14262015Y-16154293D02*
X14252491Y-16192388D01*
X14252491Y-16192388D02*
X14242967Y-16211436D01*
X14242967Y-16211436D02*
X14233444Y-16220960D01*
X14233444Y-16220960D02*
X14214396Y-16230484D01*
X14214396Y-16230484D02*
X14195348Y-16230484D01*
X14195348Y-16230484D02*
X14176301Y-16220960D01*
X14176301Y-16220960D02*
X14166777Y-16211436D01*
X14166777Y-16211436D02*
X14157253Y-16192388D01*
X14157253Y-16192388D02*
X14147729Y-16154293D01*
X14147729Y-16154293D02*
X14147729Y-16106674D01*
X14147729Y-16106674D02*
X14157253Y-16068579D01*
X14157253Y-16068579D02*
X14166777Y-16049531D01*
X14166777Y-16049531D02*
X14176301Y-16040008D01*
X14176301Y-16040008D02*
X14195348Y-16030484D01*
X14442967Y-16030484D02*
X14347729Y-16030484D01*
X14347729Y-16030484D02*
X14338206Y-16125722D01*
X14338206Y-16125722D02*
X14347729Y-16116198D01*
X14347729Y-16116198D02*
X14366777Y-16106674D01*
X14366777Y-16106674D02*
X14414396Y-16106674D01*
X14414396Y-16106674D02*
X14433444Y-16116198D01*
X14433444Y-16116198D02*
X14442967Y-16125722D01*
X14442967Y-16125722D02*
X14452491Y-16144769D01*
X14452491Y-16144769D02*
X14452491Y-16192388D01*
X14452491Y-16192388D02*
X14442967Y-16211436D01*
X14442967Y-16211436D02*
X14433444Y-16220960D01*
X14433444Y-16220960D02*
X14414396Y-16230484D01*
X14414396Y-16230484D02*
X14366777Y-16230484D01*
X14366777Y-16230484D02*
X14347729Y-16220960D01*
X14347729Y-16220960D02*
X14338206Y-16211436D01*
X14547729Y-16230484D02*
X14585825Y-16230484D01*
X14585825Y-16230484D02*
X14604872Y-16220960D01*
X14604872Y-16220960D02*
X14614396Y-16211436D01*
X14614396Y-16211436D02*
X14633444Y-16182865D01*
X14633444Y-16182865D02*
X14642967Y-16144769D01*
X14642967Y-16144769D02*
X14642967Y-16068579D01*
X14642967Y-16068579D02*
X14633444Y-16049531D01*
X14633444Y-16049531D02*
X14623920Y-16040008D01*
X14623920Y-16040008D02*
X14604872Y-16030484D01*
X14604872Y-16030484D02*
X14566777Y-16030484D01*
X14566777Y-16030484D02*
X14547729Y-16040008D01*
X14547729Y-16040008D02*
X14538206Y-16049531D01*
X14538206Y-16049531D02*
X14528682Y-16068579D01*
X14528682Y-16068579D02*
X14528682Y-16116198D01*
X14528682Y-16116198D02*
X14538206Y-16135246D01*
X14538206Y-16135246D02*
X14547729Y-16144769D01*
X14547729Y-16144769D02*
X14566777Y-16154293D01*
X14566777Y-16154293D02*
X14604872Y-16154293D01*
X14604872Y-16154293D02*
X14623920Y-16144769D01*
X14623920Y-16144769D02*
X14633444Y-16135246D01*
X14633444Y-16135246D02*
X14642967Y-16116198D01*
X14833444Y-16230484D02*
X14719158Y-16230484D01*
X14776301Y-16230484D02*
X14776301Y-16030484D01*
X14776301Y-16030484D02*
X14757253Y-16059055D01*
X14757253Y-16059055D02*
X14738206Y-16078103D01*
X14738206Y-16078103D02*
X14719158Y-16087627D01*
X14909634Y-16030484D02*
X14909634Y-16068579D01*
X14985825Y-16030484D02*
X14985825Y-16068579D01*
X15281063Y-16306674D02*
X15271539Y-16297150D01*
X15271539Y-16297150D02*
X15252491Y-16268579D01*
X15252491Y-16268579D02*
X15242968Y-16249531D01*
X15242968Y-16249531D02*
X15233444Y-16220960D01*
X15233444Y-16220960D02*
X15223920Y-16173341D01*
X15223920Y-16173341D02*
X15223920Y-16135246D01*
X15223920Y-16135246D02*
X15233444Y-16087627D01*
X15233444Y-16087627D02*
X15242968Y-16059055D01*
X15242968Y-16059055D02*
X15252491Y-16040008D01*
X15252491Y-16040008D02*
X15271539Y-16011436D01*
X15271539Y-16011436D02*
X15281063Y-16001912D01*
X15347729Y-16049531D02*
X15357253Y-16040008D01*
X15357253Y-16040008D02*
X15376301Y-16030484D01*
X15376301Y-16030484D02*
X15423920Y-16030484D01*
X15423920Y-16030484D02*
X15442968Y-16040008D01*
X15442968Y-16040008D02*
X15452491Y-16049531D01*
X15452491Y-16049531D02*
X15462015Y-16068579D01*
X15462015Y-16068579D02*
X15462015Y-16087627D01*
X15462015Y-16087627D02*
X15452491Y-16116198D01*
X15452491Y-16116198D02*
X15338206Y-16230484D01*
X15338206Y-16230484D02*
X15462015Y-16230484D01*
X15700110Y-16230484D02*
X15700110Y-16030484D01*
X15785825Y-16230484D02*
X15785825Y-16125722D01*
X15785825Y-16125722D02*
X15776301Y-16106674D01*
X15776301Y-16106674D02*
X15757253Y-16097150D01*
X15757253Y-16097150D02*
X15728682Y-16097150D01*
X15728682Y-16097150D02*
X15709634Y-16106674D01*
X15709634Y-16106674D02*
X15700110Y-16116198D01*
X15909634Y-16230484D02*
X15890587Y-16220960D01*
X15890587Y-16220960D02*
X15881063Y-16211436D01*
X15881063Y-16211436D02*
X15871539Y-16192388D01*
X15871539Y-16192388D02*
X15871539Y-16135246D01*
X15871539Y-16135246D02*
X15881063Y-16116198D01*
X15881063Y-16116198D02*
X15890587Y-16106674D01*
X15890587Y-16106674D02*
X15909634Y-16097150D01*
X15909634Y-16097150D02*
X15938206Y-16097150D01*
X15938206Y-16097150D02*
X15957253Y-16106674D01*
X15957253Y-16106674D02*
X15966777Y-16116198D01*
X15966777Y-16116198D02*
X15976301Y-16135246D01*
X15976301Y-16135246D02*
X15976301Y-16192388D01*
X15976301Y-16192388D02*
X15966777Y-16211436D01*
X15966777Y-16211436D02*
X15957253Y-16220960D01*
X15957253Y-16220960D02*
X15938206Y-16230484D01*
X15938206Y-16230484D02*
X15909634Y-16230484D01*
X16090587Y-16230484D02*
X16071539Y-16220960D01*
X16071539Y-16220960D02*
X16062015Y-16201912D01*
X16062015Y-16201912D02*
X16062015Y-16030484D01*
X16242968Y-16220960D02*
X16223920Y-16230484D01*
X16223920Y-16230484D02*
X16185825Y-16230484D01*
X16185825Y-16230484D02*
X16166777Y-16220960D01*
X16166777Y-16220960D02*
X16157253Y-16201912D01*
X16157253Y-16201912D02*
X16157253Y-16125722D01*
X16157253Y-16125722D02*
X16166777Y-16106674D01*
X16166777Y-16106674D02*
X16185825Y-16097150D01*
X16185825Y-16097150D02*
X16223920Y-16097150D01*
X16223920Y-16097150D02*
X16242968Y-16106674D01*
X16242968Y-16106674D02*
X16252491Y-16125722D01*
X16252491Y-16125722D02*
X16252491Y-16144769D01*
X16252491Y-16144769D02*
X16157253Y-16163817D01*
X16328682Y-16220960D02*
X16347730Y-16230484D01*
X16347730Y-16230484D02*
X16385825Y-16230484D01*
X16385825Y-16230484D02*
X16404872Y-16220960D01*
X16404872Y-16220960D02*
X16414396Y-16201912D01*
X16414396Y-16201912D02*
X16414396Y-16192388D01*
X16414396Y-16192388D02*
X16404872Y-16173341D01*
X16404872Y-16173341D02*
X16385825Y-16163817D01*
X16385825Y-16163817D02*
X16357253Y-16163817D01*
X16357253Y-16163817D02*
X16338206Y-16154293D01*
X16338206Y-16154293D02*
X16328682Y-16135246D01*
X16328682Y-16135246D02*
X16328682Y-16125722D01*
X16328682Y-16125722D02*
X16338206Y-16106674D01*
X16338206Y-16106674D02*
X16357253Y-16097150D01*
X16357253Y-16097150D02*
X16385825Y-16097150D01*
X16385825Y-16097150D02*
X16404872Y-16106674D01*
X16481063Y-16306674D02*
X16490587Y-16297150D01*
X16490587Y-16297150D02*
X16509634Y-16268579D01*
X16509634Y-16268579D02*
X16519158Y-16249531D01*
X16519158Y-16249531D02*
X16528682Y-16220960D01*
X16528682Y-16220960D02*
X16538206Y-16173341D01*
X16538206Y-16173341D02*
X16538206Y-16135246D01*
X16538206Y-16135246D02*
X16528682Y-16087627D01*
X16528682Y-16087627D02*
X16519158Y-16059055D01*
X16519158Y-16059055D02*
X16509634Y-16040008D01*
X16509634Y-16040008D02*
X16490587Y-16011436D01*
X16490587Y-16011436D02*
X16481063Y-16001912D01*
M02*
